<?xml version="1.0" encoding="utf-8"?>
<!-- Generator: Adobe Illustrator 23.1.0, SVG Export Plug-In . SVG Version: 6.00 Build 0)  -->
<svg version="1.1" id="Layer_1" xmlns="http://www.w3.org/2000/svg" xmlns:xlink="http://www.w3.org/1999/xlink" x="0px" y="0px"
	 viewBox="0 0 787.05 3478.22" style="enable-background:new 0 0 787.05 3478.22;" xml:space="preserve">
<style type="text/css">
	.st0{fill:#327598;}
	.st1{fill:#EEA143;}
	.st2{fill:#56A4D0;}
	.st3{fill:#EFE043;}
	.st4{fill:#FFFFFF;}
</style>
<g>
	<path class="st0" d="M393.46,1905.22l0,393.25h393.46l0-393.25L393.46,1905.22z"/>
	<path class="st0" d="M393.46,1511.97l0,393.26l393.46,0l0-393.26L393.46,1511.97z"/>
	<path class="st0" d="M786.92,0l0,393.24l-393.46,0C393.46,176.07,569.61,0,786.92,0z"/>
	<path class="st0" d="M393.46,3478.22l0-393.25l-393.46,0C0,3302.16,176.14,3478.22,393.46,3478.22z"/>
	<g>
		<path class="st1" d="M388.73,1511.98c0-217.18,176.15-393.26,393.46-393.26l-393.46,0L388.73,1511.98z"/>
		<path class="st1" d="M532.3,1511.98l254.75,0l0-254.61C646.35,1257.37,532.3,1371.36,532.3,1511.98z"/>
	</g>
	<path class="st0" d="M0,2298.47l0,393.25l393.46,0C393.46,2474.52,217.3,2298.47,0,2298.47z"/>
	<path class="st2" d="M475.08,1986.8l0,230.08h230.22l0-230.08L475.08,1986.8z"/>
	<g>
		<path class="st2" d="M393.46,3472.16v6.06h10.14C399.2,3478.22,395.4,3475.77,393.46,3472.16z"/>
		<path class="st2" d="M393.46,3090.52c2.1-2.77,5.41-4.57,9.16-4.57h0.99c101.75-0.02,184.25,82.44,184.25,184.14v-0.98
			c0-101.71,82.5-184.14,184.25-184.14c6.35,0,11.5,5.14,11.5,11.49v0.98c0,101.69-82.49,184.14-184.25,184.14
			c-6.35,0-11.5-5.14-11.5-11.49c0,6.35-5.15,11.49-11.5,11.49h-0.99c-91.77,0-167.86-67.07-181.91-154.82l0,316.58
			c11.06-91.14,88.72-161.74,182.87-161.74c6.35,0,11.5,5.14,11.5,11.49v0.98c0.03,101.69-82.47,184.14-184.23,184.14l383.33,0
			l0-393.25l-393.46,0V3090.52z M600.34,3281.61c101.73-0.02,184.23,82.44,184.23,184.14c0,6.35-5.15,11.49-11.5,11.49h-0.98
			c-101.77,0-184.25-82.45-184.25-184.14c0-6.35,5.15-11.49,11.5-11.49H600.34z"/>
	</g>
	<path class="st1" d="M594.57,723.83c-2.22,2.22-5.85,2.22-8.1,0l-0.35-0.35c-35.8-35.78-35.8-93.79,0-129.56
		c2.23-2.23,5.85-2.23,8.1,0l0.35,0.33C630.38,630.04,630.38,688.05,594.57,723.83z"/>
	<path class="st1" d="M594.22,585.83c-2.22,2.22-5.85,2.22-8.1,0l-0.35-0.35c-35.8-35.78-35.8-93.79,0-129.58
		c2.23-2.22,5.85-2.22,8.1,0l0.35,0.35C630.03,492.04,630.03,550.04,594.22,585.83z"/>
	<path class="st1" d="M456.15,594.26c-2.22-2.22-2.22-5.84,0-8.08l0.35-0.35c35.81-35.78,93.84-35.78,129.65,0
		c2.22,2.22,2.22,5.85,0,8.1l-0.35,0.33C549.99,630.04,491.96,630.04,456.15,594.26z"/>
	<path class="st1" d="M594.22,593.91c-2.22-2.22-2.22-5.84,0-8.08l0.35-0.35c35.81-35.78,93.84-35.78,129.64,0
		c2.23,2.22,2.23,5.85,0,8.1l-0.35,0.33C688.06,629.7,630.03,629.7,594.22,593.91z"/>
	<g>
		<path class="st0" d="M786.92,2691.72l0,393.25H393.46"/>
		<path class="st1" d="M393.46,3084.97l0-393.25l393.46,0"/>
	</g>
	<g>
		<path class="st2" d="M786.92,2298.47H585.46v95.24c27.55-1.28,55.51,8.59,76.55,29.61c39.66,39.63,39.66,103.89,0,143.52
			c-21.03,21.02-49,30.89-76.55,29.61v95.27h201.46L786.92,2298.47z"/>
		<path class="st3" d="M393.46,2691.72h201.46l0-95.24c-27.55,1.28-55.51-8.59-76.55-29.61c-39.66-39.63-39.66-103.89,0-143.52
			c21.03-21.02,49-30.89,76.55-29.61l0-95.27l-201.47,0L393.46,2691.72z"/>
	</g>
	<path class="st1" d="M40.98,2888.33l155.72,155.64l155.72-155.64L196.7,2732.68L40.98,2888.33z M253.4,2888.34
		c0,31.29-25.38,56.66-56.69,56.66s-56.69-25.37-56.69-56.66c0-31.29,25.38-56.66,56.69-56.66S253.4,2857.05,253.4,2888.34z"/>
	<path class="st4" d="M490.6,1829.76c0-12.27-9.96-22.22-22.24-22.22c-12.28,0-22.24,9.96-22.24,22.22
		c0,12.28,9.96,22.22,22.24,22.22C480.65,1851.98,490.6,1842.03,490.6,1829.76z"/>
	<path class="st4" d="M572.49,1829.76c0-12.27-9.96-22.22-22.24-22.22c-12.28,0-22.24,9.96-22.24,22.22
		c0,12.28,9.96,22.22,22.24,22.22C562.53,1851.98,572.49,1842.03,572.49,1829.76z"/>
	<path class="st4" d="M654.38,1829.76c0-12.27-9.96-22.22-22.24-22.22c-12.28,0-22.24,9.96-22.24,22.22
		c0,12.28,9.96,22.22,22.24,22.22C644.43,1851.98,654.38,1842.03,654.38,1829.76z"/>
	<path class="st4" d="M717.52,1807.83c-12.11-1.98-23.54,6.24-25.52,18.36c-1.96,12.11,6.26,23.53,18.37,25.49
		c12.12,1.98,23.54-6.24,25.52-18.35C737.87,1821.21,729.65,1809.79,717.52,1807.83z"/>
	<path class="st4" d="M490.6,1747.91c0-12.28-9.96-22.22-22.24-22.22c-12.28,0-22.24,9.94-22.24,22.22
		c0,12.28,9.96,22.22,22.24,22.22C480.65,1770.13,490.6,1760.19,490.6,1747.91z"/>
	<path class="st4" d="M572.49,1747.91c0-12.28-9.96-22.22-22.24-22.22c-12.28,0-22.24,9.94-22.24,22.22
		c0,12.28,9.96,22.22,22.24,22.22C562.53,1770.13,572.49,1760.19,572.49,1747.91z"/>
	<path class="st4" d="M654.38,1747.91c0-12.28-9.96-22.22-22.24-22.22c-12.28,0-22.24,9.94-22.24,22.22s9.96,22.22,22.24,22.22
		C644.43,1770.13,654.38,1760.19,654.38,1747.91z"/>
	<path class="st4" d="M716.92,1725.97c-12.18-1.6-23.34,6.97-24.93,19.14c-1.59,12.16,6.98,23.33,19.16,24.92
		c12.18,1.59,23.34-6.98,24.93-19.14C737.68,1738.71,729.1,1727.56,716.92,1725.97z"/>
	<path class="st4" d="M490.6,1672.12c0-12.28-9.96-22.22-22.24-22.22c-12.28,0-22.24,9.94-22.24,22.22
		c0,12.27,9.96,22.22,22.24,22.22C480.65,1694.34,490.6,1684.39,490.6,1672.12z"/>
	<path class="st4" d="M572.49,1672.12c0-12.28-9.96-22.22-22.24-22.22c-12.28,0-22.24,9.94-22.24,22.22
		c0,12.27,9.96,22.22,22.24,22.22C562.53,1694.34,572.49,1684.39,572.49,1672.12z"/>
	<path class="st4" d="M654.38,1672.12c0-12.28-9.96-22.22-22.24-22.22c-12.28,0-22.24,9.94-22.24,22.22
		c0,12.27,9.96,22.22,22.24,22.22C644.43,1694.34,654.38,1684.39,654.38,1672.12z"/>
	<path class="st4" d="M717.61,1650.12c-12.12-1.96-23.54,6.26-25.51,18.39c-1.96,12.11,6.26,23.52,18.39,25.49
		c12.12,1.96,23.54-6.26,25.51-18.37C737.96,1663.5,729.74,1652.09,717.61,1650.12z"/>
	<path class="st4" d="M490.6,1590.27c0-12.28-9.96-22.22-22.24-22.22c-12.28,0-22.24,9.94-22.24,22.22
		c0,12.27,9.96,22.22,22.24,22.22C480.65,1612.5,490.6,1602.54,490.6,1590.27z"/>
	<path class="st4" d="M572.49,1590.27c0-12.28-9.96-22.22-22.24-22.22c-12.28,0-22.24,9.94-22.24,22.22
		c0,12.27,9.96,22.22,22.24,22.22C562.53,1612.5,572.49,1602.54,572.49,1590.27z"/>
	<path class="st4" d="M654.38,1590.27c0-12.28-9.96-22.22-22.24-22.22c-12.28,0-22.24,9.94-22.24,22.22
		c0,12.27,9.96,22.22,22.24,22.22C644.43,1612.5,654.38,1602.54,654.38,1590.27z"/>
	<path class="st4" d="M717.61,1568.27c-12.12-1.96-23.54,6.26-25.51,18.39c-1.98,12.11,6.26,23.52,18.39,25.49
		c12.11,1.96,23.53-6.26,25.51-18.39C737.96,1581.65,729.74,1570.25,717.61,1568.27z"/>
	<path class="st3" d="M393.46,725.49l0,393.25l393.47,0l0-393.25L393.46,725.49z"/>
	<path class="st1" d="M393.46,1117.77l0-393.25l393.46,0"/>
	<path class="st2" d="M506.96,1003.76l0-166.37h166.46"/>
</g>
<g>
</g>
<g>
</g>
<g>
</g>
<g>
</g>
<g>
</g>
<g>
</g>
</svg>
