<?xml version="1.0" encoding="utf-8"?>
<!-- Generator: Adobe Illustrator 23.1.0, SVG Export Plug-In . SVG Version: 6.00 Build 0)  -->
<svg version="1.1" id="Layer_1" xmlns="http://www.w3.org/2000/svg" xmlns:xlink="http://www.w3.org/1999/xlink" x="0px" y="0px"
	 viewBox="0 0 787.63 3478.22" style="enable-background:new 0 0 787.63 3478.22;" xml:space="preserve">
<style type="text/css">
	.st0{fill:#327598;}
	.st1{fill:#EEA143;}
	.st2{fill:#56A4D0;}
	.st3{fill:#EFE043;}
	.st4{fill:#FFFFFF;}
</style>
<g>
	<path class="st0" d="M393.9,1573.09l0.09-393.25l-393.46-0.09L0.44,1573L393.9,1573.09z"/>
	<path class="st0" d="M393.81,1966.34l0.09-393.26L0.44,1573l-0.09,393.26L393.81,1966.34z"/>
	<path class="st0" d="M0,3478.22l0.09-393.24l393.46,0.09C393.5,3302.24,217.31,3478.27,0,3478.22z"/>
	<path class="st0" d="M394.26,0.09l-0.09,393.25l393.46,0.09C787.68,176.25,611.58,0.14,394.26,0.09z"/>
	<g>
		<path class="st1" d="M398.54,1966.33c-0.05,217.18-176.24,393.22-393.55,393.17l393.46,0.09L398.54,1966.33z"/>
		<path class="st1" d="M254.97,1966.3l-254.75-0.06l-0.06,254.61C140.86,2220.88,254.94,2106.92,254.97,1966.3z"/>
	</g>
	<path class="st0" d="M787.45,1179.93l0.09-393.25l-393.46-0.09C394.03,1003.79,570.15,1179.88,787.45,1179.93z"/>
	<path class="st2" d="M312.3,1491.49l0.05-230.08l-230.22-0.05l-0.05,230.08L312.3,1491.49z"/>
	<g>
		<path class="st2" d="M394.26,6.15l0-6.06l-10.14,0C388.52,0.09,392.32,2.54,394.26,6.15z"/>
		<path class="st2" d="M394.17,387.79c-2.1,2.77-5.42,4.57-9.16,4.57l-0.99,0c-101.75-0.01-184.23-82.48-184.2-184.18l0,0.98
			c-0.02,101.71-82.54,184.12-184.29,184.1c-6.35,0-11.49-5.14-11.49-11.49l0-0.98c0.02-101.69,82.53-184.12,184.29-184.1
			c6.35,0,11.5,5.15,11.49,11.49c0-6.35,5.15-11.49,11.5-11.49l0.99,0c91.77,0.02,167.84,67.1,181.88,154.86l0.07-316.58
			c-11.08,91.13-88.75,161.72-182.91,161.7c-6.35,0-11.5-5.14-11.49-11.49l0-0.98c0-101.69,82.52-184.12,184.28-184.1L0.8,0
			L0.71,393.25l393.46,0.09L394.17,387.79z M187.33,196.66C85.6,196.65,3.12,114.18,3.14,12.47c0-6.35,5.15-11.49,11.5-11.49l0.97,0
			c101.77,0.02,184.23,82.49,184.2,184.18c0,6.35-5.15,11.49-11.5,11.49L187.33,196.66z"/>
	</g>
	<path class="st1" d="M192.52,2754.43c2.22-2.22,5.85-2.22,8.1,0l0.35,0.35c35.79,35.79,35.78,93.8-0.03,129.56
		c-2.23,2.23-5.85,2.23-8.1,0l-0.35-0.33C156.69,2848.22,156.7,2790.21,192.52,2754.43z"/>
	<path class="st1" d="M192.84,2892.44c2.22-2.22,5.85-2.22,8.1,0l0.35,0.35c35.79,35.79,35.78,93.8-0.03,129.58
		c-2.23,2.22-5.85,2.22-8.1,0l-0.35-0.35C157,2986.22,157.02,2928.21,192.84,2892.44z"/>
	<path class="st1" d="M330.91,2884.04c2.22,2.22,2.22,5.84,0,8.08l-0.35,0.35c-35.82,35.78-93.85,35.76-129.65-0.03
		c-2.22-2.22-2.22-5.85,0-8.1l0.35-0.33C237.07,2848.23,295.11,2848.25,330.91,2884.04z"/>
	<path class="st1" d="M192.84,2884.35c2.22,2.22,2.22,5.84,0,8.08l-0.35,0.35c-35.82,35.78-93.85,35.76-129.64-0.03
		c-2.23-2.22-2.23-5.85,0-8.1l0.35-0.33C99,2848.55,157.04,2848.56,192.84,2884.35z"/>
	<g>
		<path class="st0" d="M0.62,786.5l0.09-393.25l393.46,0.09"/>
		<path class="st1" d="M394.17,393.34l-0.09,393.25L0.62,786.5"/>
	</g>
	<g>
		<path class="st2" d="M0.53,1179.75l201.47,0.05l0.02-95.24c-27.55,1.28-55.51-8.6-76.54-29.63
			c-39.65-39.64-39.64-103.89,0.03-143.52c21.04-21.02,49.01-30.88,76.55-29.59l0.02-95.27L0.62,786.5L0.53,1179.75z"/>
		<path class="st3" d="M394.08,786.59l-201.47-0.05l-0.02,95.24c27.55-1.28,55.51,8.6,76.54,29.63
			c39.65,39.64,39.64,103.89-0.03,143.52c-21.04,21.02-49.01,30.88-76.55,29.59l-0.02,95.27l201.46,0.05L394.08,786.59z"/>
	</g>
	<path class="st1" d="M746.6,590.07L590.91,434.39L435.15,589.99l155.69,155.68L746.6,590.07z M534.18,590.01
		c0.01-31.29,25.39-56.65,56.7-56.65c31.31,0.01,56.68,25.38,56.67,56.67c-0.01,31.29-25.39,56.65-56.7,56.65
		C559.55,646.67,534.17,621.3,534.18,590.01z"/>
	<path class="st4" d="M296.74,1648.54c0,12.27,9.95,22.22,22.23,22.23c12.28,0,22.24-9.95,22.24-22.22
		c0-12.28-9.95-22.22-22.23-22.23C306.7,1626.32,296.74,1636.26,296.74,1648.54z"/>
	<path class="st4" d="M214.86,1648.52c0,12.27,9.95,22.22,22.23,22.23c12.28,0,22.24-9.95,22.24-22.22
		c0-12.28-9.95-22.22-22.23-22.23C224.82,1626.3,214.86,1636.24,214.86,1648.52z"/>
	<path class="st4" d="M132.96,1648.5c0,12.27,9.95,22.22,22.23,22.23c12.28,0,22.24-9.95,22.24-22.22
		c0-12.28-9.95-22.22-22.23-22.23C142.92,1626.28,132.96,1636.22,132.96,1648.5z"/>
	<path class="st4" d="M69.81,1670.41c12.11,1.98,23.55-6.23,25.52-18.35c1.97-12.11-6.26-23.53-18.37-25.5
		c-12.12-1.98-23.55,6.23-25.52,18.34C49.47,1657.02,57.69,1668.44,69.81,1670.41z"/>
	<path class="st4" d="M296.72,1730.38c0,12.28,9.95,22.22,22.23,22.23c12.28,0,22.24-9.94,22.24-22.22
		c0-12.28-9.95-22.22-22.23-22.23C306.68,1708.16,296.72,1718.1,296.72,1730.38z"/>
	<path class="st4" d="M214.84,1730.36c0,12.28,9.95,22.22,22.23,22.23c12.28,0,22.24-9.94,22.24-22.22
		c0-12.28-9.95-22.22-22.23-22.23C224.8,1708.14,214.84,1718.08,214.84,1730.36z"/>
	<path class="st4" d="M132.94,1730.34c0,12.28,9.95,22.22,22.23,22.23c12.28,0,22.24-9.94,22.24-22.22
		c0-12.28-9.95-22.22-22.23-22.23C142.9,1708.12,132.94,1718.06,132.94,1730.34z"/>
	<path class="st4" d="M70.4,1752.27c12.18,1.61,23.34-6.96,24.93-19.14c1.59-12.16-6.97-23.33-19.15-24.92s-23.34,6.97-24.93,19.14
		C49.64,1739.52,58.22,1750.68,70.4,1752.27z"/>
	<path class="st4" d="M296.7,1806.17c0,12.28,9.95,22.22,22.23,22.23c12.28,0,22.24-9.94,22.24-22.22
		c0-12.27-9.95-22.22-22.23-22.23C306.67,1783.95,296.71,1793.91,296.7,1806.17z"/>
	<path class="st4" d="M214.82,1806.15c0,12.28,9.95,22.22,22.23,22.23c12.28,0,22.24-9.94,22.24-22.22
		c0-12.27-9.95-22.22-22.23-22.23C224.78,1783.93,214.82,1793.89,214.82,1806.15z"/>
	<path class="st4" d="M132.92,1806.13c0,12.28,9.95,22.22,22.23,22.23c12.28,0,22.24-9.94,22.24-22.22
		c0-12.27-9.95-22.22-22.23-22.23C142.88,1783.91,132.92,1793.87,132.92,1806.13z"/>
	<path class="st4" d="M69.69,1828.12c12.12,1.97,23.55-6.26,25.51-18.38c1.97-12.11-6.26-23.52-18.38-25.5
		c-12.12-1.97-23.55,6.26-25.51,18.37C49.34,1814.74,57.56,1826.15,69.69,1828.12z"/>
	<path class="st4" d="M296.69,1888.02c0,12.28,9.95,22.22,22.23,22.23c12.28,0,22.24-9.94,22.24-22.22
		c0-12.27-9.95-22.22-22.23-22.23C306.65,1865.8,296.69,1875.75,296.69,1888.02z"/>
	<path class="st4" d="M214.8,1888c0,12.28,9.95,22.22,22.23,22.23c12.28,0,22.24-9.94,22.24-22.22c0-12.27-9.95-22.22-22.23-22.23
		C224.76,1865.78,214.8,1875.73,214.8,1888z"/>
	<path class="st4" d="M132.9,1887.98c0,12.28,9.95,22.22,22.23,22.23c12.28,0,22.24-9.94,22.24-22.22
		c0-12.27-9.95-22.22-22.23-22.23C142.86,1865.76,132.91,1875.71,132.9,1887.98z"/>
	<path class="st4" d="M69.67,1909.97c12.12,1.97,23.55-6.26,25.51-18.38c1.98-12.11-6.26-23.52-18.38-25.5
		c-12.11-1.97-23.53,6.26-25.51,18.38C49.32,1896.58,57.55,1907.99,69.67,1909.97z"/>
	<path class="st3" d="M393.63,2752.82l0.09-393.25l-393.46-0.09l-0.09,393.25L393.63,2752.82z"/>
	<path class="st1" d="M393.72,2360.54l-0.09,393.25L0.16,2753.7"/>
	<path class="st2" d="M280.19,2474.52l-0.04,166.37l-166.46-0.04"/>
</g>
<g>
</g>
<g>
</g>
<g>
</g>
<g>
</g>
<g>
</g>
<g>
</g>
</svg>
