<?xml version="1.0" encoding="utf-8"?>
<!-- Generator: Adobe Illustrator 23.1.0, SVG Export Plug-In . SVG Version: 6.00 Build 0)  -->
<svg version="1.1" id="Layer_1" xmlns="http://www.w3.org/2000/svg" xmlns:xlink="http://www.w3.org/1999/xlink" x="0px" y="0px"
	 viewBox="0 0 4353.6 4170.4" style="enable-background:new 0 0 4353.6 4170.4;" xml:space="preserve">
<style type="text/css">
	.st0{fill:#327498;}
</style>
<g>
	<g>
		<g>
			<path class="st0" d="M1927.3,0c19.6,0,35.5,15.9,35.5,35.5c0,19.6-15.9,35.5-35.5,35.5c-19.6,0-35.5-15.9-35.5-35.5
				C1891.8,15.9,1907.7,0,1927.3,0z"/>
			<path class="st0" d="M2042.4,2.2c19.6,0,35.5,15.9,35.5,35.5c0,19.6-15.9,35.5-35.5,35.5S2007,57.2,2007,37.6
				C2007,18.1,2022.9,2.2,2042.4,2.2z"/>
			<path class="st0" d="M1796.8,0c19.6,0,35.5,15.9,35.5,35.5c0,19.6-15.9,35.5-35.5,35.5c-19.6,0-35.4-15.9-35.4-35.5
				C1761.3,15.9,1777.2,0,1796.8,0z"/>
			<path class="st0" d="M2672.4,0c19.6,0,35.4,15.9,35.4,35.5c0,19.6-15.9,35.5-35.4,35.5c-19.6,0-35.5-15.9-35.5-35.5
				C2636.9,15.9,2652.8,0,2672.4,0z"/>
			<path class="st0" d="M2551.5,0c19.6,0,35.5,15.9,35.5,35.5c0,19.6-15.9,35.5-35.5,35.5c-19.6,0-35.5-15.9-35.5-35.5
				C2516.1,15.9,2531.9,0,2551.5,0z"/>
			<path class="st0" d="M2421,0c19.6,0,35.4,15.9,35.4,35.5c0,19.6-15.9,35.5-35.4,35.5c-19.6,0-35.5-15.9-35.5-35.5
				C2385.6,15.9,2401.4,0,2421,0z"/>
			<path class="st0" d="M2301,0c19.6,0,35.5,15.9,35.5,35.5c0,19.6-15.9,35.5-35.5,35.5s-35.5-15.9-35.5-35.5
				C2265.6,15.9,2281.4,0,2301,0z"/>
			<path class="st0" d="M2936.8,73.1c19.6,0,35.5-15.9,35.5-35.5s-15.9-35.5-35.5-35.5s-35.5,15.9-35.5,35.5
				S2917.2,73.1,2936.8,73.1z"/>
			<path class="st0" d="M2812.4,73.1c19.6,0,35.5-15.9,35.5-35.5S2832,2.2,2812.4,2.2c-19.6,0-35.5,15.9-35.5,35.5
				S2792.8,73.1,2812.4,73.1z"/>
			<path class="st0" d="M3179.2,73.1c19.6,0,35.5-15.9,35.5-35.5s-15.9-35.5-35.5-35.5c-19.6,0-35.5,15.9-35.5,35.5
				S3159.6,73.1,3179.2,73.1z"/>
			<path class="st0" d="M3059.2,73.1c19.6,0,35.4-15.9,35.4-35.5s-15.9-35.5-35.4-35.5c-19.6,0-35.5,15.9-35.5,35.5
				S3039.6,73.1,3059.2,73.1z"/>
			<path class="st0" d="M417.3,0c19.6,0,35.5,15.9,35.5,35.5c0,19.6-15.9,35.5-35.5,35.5c-19.6,0-35.5-15.9-35.5-35.5
				C381.8,15.9,397.7,0,417.3,0z"/>
			<path class="st0" d="M286.8,0c19.6,0,35.5,15.9,35.5,35.5c0,19.6-15.9,35.5-35.5,35.5c-19.6,0-35.5-15.9-35.5-35.5
				C251.3,15.9,267.2,0,286.8,0z"/>
			<path class="st0" d="M165.9,0c19.6,0,35.5,15.9,35.5,35.5c0,19.6-15.9,35.5-35.5,35.5S130.5,55,130.5,35.5
				C130.5,15.9,146.4,0,165.9,0z"/>
			<path class="st0" d="M35.5,0C55,0,70.9,15.9,70.9,35.5C70.9,55,55,70.9,35.5,70.9S0,55,0,35.5C0,15.9,15.9,0,35.5,0z"/>
			<path class="st0" d="M1041.5,0c19.6,0,35.5,15.9,35.5,35.5c0,19.6-15.9,35.5-35.5,35.5c-19.6,0-35.5-15.9-35.5-35.5
				C1006.1,15.9,1022,0,1041.5,0z"/>
			<path class="st0" d="M911,0c19.6,0,35.5,15.9,35.5,35.5c0,19.6-15.9,35.5-35.5,35.5c-19.6,0-35.5-15.9-35.5-35.5
				C875.6,15.9,891.5,0,911,0z"/>
			<path class="st0" d="M790.2,0c19.6,0,35.5,15.9,35.5,35.5c0,19.6-15.9,35.5-35.5,35.5c-19.6,0-35.5-15.9-35.5-35.5
				C754.7,15.9,770.6,0,790.2,0z"/>
			<path class="st0" d="M659.7,0c19.6,0,35.5,15.9,35.5,35.5c0,19.6-15.9,35.5-35.5,35.5S624.2,55,624.2,35.5
				C624.3,15.9,640.1,0,659.7,0z"/>
			<path class="st0" d="M539.7,0c19.6,0,35.5,15.9,35.5,35.5c0,19.6-15.9,35.5-35.5,35.5c-19.6,0-35.5-15.9-35.5-35.5
				C504.3,15.9,520.1,0,539.7,0z"/>
			<path class="st0" d="M1169.1,0c19.6,0,35.4,15.9,35.4,35.5c0,19.6-15.9,35.5-35.4,35.5s-35.5-15.9-35.5-35.5
				C1133.6,15.9,1149.5,0,1169.1,0z"/>
			<path class="st0" d="M1672,0c19.6,0,35.5,15.9,35.5,35.5s-15.9,35.5-35.5,35.5c-19.6,0-35.5-15.9-35.5-35.5
				C1636.6,15.9,1652.5,0,1672,0z"/>
			<path class="st0" d="M1541.5,0c19.6,0,35.5,15.9,35.5,35.5c0,19.6-15.9,35.5-35.5,35.5c-19.6,0-35.5-15.9-35.5-35.5
				C1506.1,15.9,1521.9,0,1541.5,0z"/>
			<path class="st0" d="M1420.7,0c19.6,0,35.5,15.9,35.5,35.5c0,19.6-15.9,35.5-35.5,35.5c-19.6,0-35.5-15.9-35.5-35.5
				C1385.2,15.9,1401.1,0,1420.7,0z"/>
			<path class="st0" d="M1290.2,0c19.6,0,35.4,15.9,35.4,35.5c0,19.6-15.9,35.5-35.4,35.5c-19.6,0-35.5-15.9-35.5-35.5
				C1254.7,15.9,1270.6,0,1290.2,0z"/>
		</g>
		<g>
			<path class="st0" d="M1927.3,127.4c19.6,0,35.5,15.9,35.5,35.5c0,19.6-15.9,35.5-35.5,35.5c-19.6,0-35.5-15.9-35.5-35.5
				C1891.8,143.2,1907.7,127.4,1927.3,127.4z"/>
			<path class="st0" d="M2042.4,129.5c19.6,0,35.5,15.9,35.5,35.5c0,19.6-15.9,35.5-35.5,35.5S2007,184.6,2007,165
				C2007,145.4,2022.9,129.5,2042.4,129.5z"/>
			<path class="st0" d="M1796.8,127.4c19.6,0,35.5,15.9,35.5,35.5c0,19.6-15.9,35.5-35.5,35.5c-19.6,0-35.4-15.9-35.4-35.5
				C1761.3,143.2,1777.2,127.4,1796.8,127.4z"/>
			<path class="st0" d="M2672.4,127.4c19.6,0,35.4,15.9,35.4,35.5c0,19.6-15.9,35.5-35.4,35.5c-19.6,0-35.5-15.9-35.5-35.5
				C2636.9,143.2,2652.8,127.4,2672.4,127.4z"/>
			<path class="st0" d="M2551.5,127.4c19.6,0,35.5,15.9,35.5,35.5c0,19.6-15.9,35.5-35.5,35.5c-19.6,0-35.5-15.9-35.5-35.5
				C2516.1,143.2,2531.9,127.4,2551.5,127.4z"/>
			<path class="st0" d="M2421,127.4c19.6,0,35.4,15.9,35.4,35.5c0,19.6-15.9,35.5-35.4,35.5c-19.6,0-35.5-15.9-35.5-35.5
				C2385.6,143.2,2401.4,127.4,2421,127.4z"/>
			<path class="st0" d="M2301,127.4c19.6,0,35.5,15.9,35.5,35.5c0,19.6-15.9,35.5-35.5,35.5s-35.5-15.9-35.5-35.5
				C2265.6,143.2,2281.4,127.4,2301,127.4z"/>
			<path class="st0" d="M2812.4,200.5c19.6,0,35.5-15.9,35.5-35.5s-15.9-35.5-35.5-35.5c-19.6,0-35.5,15.9-35.5,35.5
				S2792.8,200.5,2812.4,200.5z"/>
			<path class="st0" d="M3179.2,200.5c19.6,0,35.5-15.9,35.5-35.5s-15.9-35.5-35.5-35.5c-19.6,0-35.5,15.9-35.5,35.5
				S3159.6,200.5,3179.2,200.5z"/>
			<path class="st0" d="M3059.2,200.5c19.6,0,35.4-15.9,35.4-35.5s-15.9-35.5-35.4-35.5c-19.6,0-35.5,15.9-35.5,35.5
				S3039.6,200.5,3059.2,200.5z"/>
			<path class="st0" d="M417.3,127.4c19.6,0,35.5,15.9,35.5,35.5c0,19.6-15.9,35.5-35.5,35.5c-19.6,0-35.5-15.9-35.5-35.5
				C381.8,143.2,397.7,127.4,417.3,127.4z"/>
			<path class="st0" d="M165.9,127.4c19.6,0,35.5,15.9,35.5,35.5c0,19.6-15.9,35.5-35.5,35.5s-35.5-15.9-35.5-35.5
				C130.5,143.2,146.4,127.4,165.9,127.4z"/>
			<path class="st0" d="M35.5,127.4c19.6,0,35.5,15.9,35.5,35.5c0,19.6-15.9,35.5-35.5,35.5S0,182.4,0,162.8
				C0,143.2,15.9,127.4,35.5,127.4z"/>
			<path class="st0" d="M1041.5,127.4c19.6,0,35.5,15.9,35.5,35.5c0,19.6-15.9,35.5-35.5,35.5c-19.6,0-35.5-15.9-35.5-35.5
				C1006.1,143.2,1022,127.4,1041.5,127.4z"/>
			<path class="st0" d="M911,127.4c19.6,0,35.5,15.9,35.5,35.5c0,19.6-15.9,35.5-35.5,35.5c-19.6,0-35.5-15.9-35.5-35.5
				C875.6,143.2,891.5,127.4,911,127.4z"/>
			<path class="st0" d="M790.2,127.4c19.6,0,35.5,15.9,35.5,35.5c0,19.6-15.9,35.5-35.5,35.5c-19.6,0-35.5-15.9-35.5-35.5
				C754.7,143.2,770.6,127.4,790.2,127.4z"/>
			<path class="st0" d="M659.7,127.4c19.6,0,35.5,15.9,35.5,35.5c0,19.6-15.9,35.5-35.5,35.5s-35.5-15.9-35.5-35.5
				C624.3,143.2,640.1,127.4,659.7,127.4z"/>
			<path class="st0" d="M539.7,127.4c19.6,0,35.5,15.9,35.5,35.5c0,19.6-15.9,35.5-35.5,35.5c-19.6,0-35.5-15.9-35.5-35.5
				C504.3,143.2,520.1,127.4,539.7,127.4z"/>
			<path class="st0" d="M1169.1,127.4c19.6,0,35.4,15.9,35.4,35.5c0,19.6-15.9,35.5-35.4,35.5s-35.5-15.9-35.5-35.5
				C1133.6,143.2,1149.5,127.4,1169.1,127.4z"/>
			<path class="st0" d="M1672,127.4c19.6,0,35.5,15.9,35.5,35.5s-15.9,35.5-35.5,35.5c-19.6,0-35.5-15.9-35.5-35.5
				C1636.6,143.2,1652.5,127.4,1672,127.4z"/>
			<path class="st0" d="M1541.5,127.4c19.6,0,35.5,15.9,35.5,35.5c0,19.6-15.9,35.5-35.5,35.5c-19.6,0-35.5-15.9-35.5-35.5
				C1506.1,143.2,1521.9,127.4,1541.5,127.4z"/>
			<path class="st0" d="M1420.7,127.4c19.6,0,35.5,15.9,35.5,35.5c0,19.6-15.9,35.5-35.5,35.5c-19.6,0-35.5-15.9-35.5-35.5
				C1385.2,143.2,1401.1,127.4,1420.7,127.4z"/>
			<path class="st0" d="M1290.2,127.4c19.6,0,35.4,15.9,35.4,35.5c0,19.6-15.9,35.5-35.4,35.5c-19.6,0-35.5-15.9-35.5-35.5
				C1254.7,143.2,1270.6,127.4,1290.2,127.4z"/>
		</g>
		<g>
			<path class="st0" d="M2178.6,257c19.6,0,35.5,15.9,35.5,35.5c0,19.6-15.9,35.5-35.5,35.5s-35.5-15.9-35.5-35.5
				C2143.1,272.8,2159,257,2178.6,257z"/>
			<path class="st0" d="M1927.3,257c19.6,0,35.5,15.9,35.5,35.5c0,19.6-15.9,35.5-35.5,35.5c-19.6,0-35.5-15.9-35.5-35.5
				C1891.8,272.8,1907.7,257,1927.3,257z"/>
			<path class="st0" d="M2042.4,259.1c19.6,0,35.5,15.9,35.5,35.5c0,19.6-15.9,35.5-35.5,35.5s-35.4-15.9-35.4-35.5
				C2007,275,2022.9,259.1,2042.4,259.1z"/>
			<path class="st0" d="M1796.8,257c19.6,0,35.5,15.9,35.5,35.5c0,19.6-15.9,35.5-35.5,35.5c-19.6,0-35.4-15.9-35.4-35.5
				C1761.3,272.8,1777.2,257,1796.8,257z"/>
			<path class="st0" d="M2672.4,257c19.6,0,35.4,15.9,35.4,35.5c0,19.6-15.9,35.5-35.4,35.5c-19.6,0-35.5-15.9-35.5-35.5
				C2636.9,272.8,2652.8,257,2672.4,257z"/>
			<path class="st0" d="M2551.5,257c19.6,0,35.5,15.9,35.5,35.5c0,19.6-15.9,35.5-35.5,35.5c-19.6,0-35.5-15.9-35.5-35.5
				C2516.1,272.8,2531.9,257,2551.5,257z"/>
			<path class="st0" d="M2421,257c19.6,0,35.4,15.9,35.4,35.5c0,19.6-15.9,35.5-35.4,35.5c-19.6,0-35.5-15.9-35.5-35.5
				C2385.6,272.8,2401.4,257,2421,257z"/>
			<path class="st0" d="M2301,257c19.6,0,35.5,15.9,35.5,35.5c0,19.6-15.9,35.5-35.5,35.5s-35.5-15.9-35.5-35.5
				C2265.6,272.8,2281.4,257,2301,257z"/>
			<path class="st0" d="M2812.4,330.1c19.6,0,35.5-15.9,35.5-35.5s-15.9-35.5-35.5-35.5c-19.6,0-35.5,15.9-35.5,35.5
				S2792.8,330.1,2812.4,330.1z"/>
			<path class="st0" d="M3179.2,330.1c19.6,0,35.5-15.9,35.5-35.5s-15.9-35.5-35.5-35.5c-19.6,0-35.5,15.9-35.5,35.5
				S3159.6,330.1,3179.2,330.1z"/>
			<path class="st0" d="M3059.2,330.1c19.6,0,35.4-15.9,35.4-35.5s-15.9-35.5-35.4-35.5c-19.6,0-35.5,15.9-35.5,35.5
				S3039.6,330.1,3059.2,330.1z"/>
			<path class="st0" d="M417.3,257c19.6,0,35.5,15.9,35.5,35.5c0,19.6-15.9,35.5-35.5,35.5c-19.6,0-35.5-15.9-35.5-35.5
				C381.8,272.8,397.7,257,417.3,257z"/>
			<path class="st0" d="M165.9,257c19.6,0,35.5,15.9,35.5,35.5c0,19.6-15.9,35.5-35.5,35.5s-35.5-15.9-35.5-35.5
				C130.5,272.8,146.4,257,165.9,257z"/>
			<path class="st0" d="M35.5,257c19.6,0,35.5,15.9,35.5,35.5c0,19.6-15.9,35.5-35.5,35.5S0,312,0,292.4C0,272.8,15.9,257,35.5,257z
				"/>
			<path class="st0" d="M1041.5,257c19.6,0,35.5,15.9,35.5,35.5c0,19.6-15.9,35.5-35.5,35.5c-19.6,0-35.5-15.9-35.5-35.5
				C1006.1,272.8,1022,257,1041.5,257z"/>
			<path class="st0" d="M911,257c19.6,0,35.5,15.9,35.5,35.5c0,19.6-15.9,35.5-35.5,35.5c-19.6,0-35.5-15.9-35.5-35.5
				C875.6,272.8,891.5,257,911,257z"/>
			<path class="st0" d="M790.2,257c19.6,0,35.5,15.9,35.5,35.5c0,19.6-15.9,35.5-35.5,35.5c-19.6,0-35.5-15.9-35.5-35.5
				C754.7,272.8,770.6,257,790.2,257z"/>
			<path class="st0" d="M659.7,257c19.6,0,35.5,15.9,35.5,35.5c0,19.6-15.9,35.5-35.5,35.5s-35.5-15.9-35.5-35.5
				C624.3,272.8,640.1,257,659.7,257z"/>
			<path class="st0" d="M539.7,257c19.6,0,35.5,15.9,35.5,35.5c0,19.6-15.9,35.5-35.5,35.5c-19.6,0-35.5-15.9-35.5-35.5
				C504.3,272.8,520.1,257,539.7,257z"/>
			<path class="st0" d="M1541.5,257c19.6,0,35.5,15.9,35.5,35.5c0,19.6-15.9,35.5-35.5,35.5c-19.6,0-35.5-15.9-35.5-35.5
				C1506.1,272.8,1521.9,257,1541.5,257z"/>
			<path class="st0" d="M1420.7,257c19.6,0,35.5,15.9,35.5,35.5c0,19.6-15.9,35.5-35.5,35.5c-19.6,0-35.5-15.9-35.5-35.5
				C1385.2,272.8,1401.1,257,1420.7,257z"/>
			<path class="st0" d="M1290.2,257c19.6,0,35.4,15.9,35.4,35.5c0,19.6-15.9,35.5-35.4,35.5c-19.6,0-35.5-15.9-35.5-35.5
				C1254.7,272.8,1270.6,257,1290.2,257z"/>
		</g>
		<g>
			<path class="st0" d="M1929.4,392.1c19.6,0,35.5,15.9,35.5,35.5c0,19.6-15.9,35.5-35.5,35.5c-19.6,0-35.5-15.9-35.5-35.5
				C1894,408,1909.9,392.1,1929.4,392.1z"/>
			<path class="st0" d="M2044.6,394.3c19.6,0,35.5,15.9,35.5,35.5c0,19.6-15.9,35.5-35.5,35.5s-35.4-15.9-35.4-35.5
				C2009.2,410.2,2025.1,394.3,2044.6,394.3z"/>
			<path class="st0" d="M2939,465.2c19.6,0,35.5-15.9,35.5-35.5c0-19.6-15.9-35.5-35.5-35.5s-35.5,15.9-35.5,35.5
				C2903.5,449.3,2919.4,465.2,2939,465.2z"/>
			<path class="st0" d="M2814.6,465.2c19.6,0,35.5-15.9,35.5-35.5c0-19.6-15.9-35.5-35.5-35.5c-19.6,0-35.5,15.9-35.5,35.5
				C2779.1,449.3,2795,465.2,2814.6,465.2z"/>
			<path class="st0" d="M3181.4,465.2c19.6,0,35.5-15.9,35.5-35.5c0-19.6-15.9-35.5-35.5-35.5c-19.6,0-35.5,15.9-35.5,35.5
				C3145.9,449.3,3161.8,465.2,3181.4,465.2z"/>
			<path class="st0" d="M3061.4,465.2c19.6,0,35.4-15.9,35.4-35.5c0-19.6-15.9-35.5-35.4-35.5c-19.6,0-35.5,15.9-35.5,35.5
				C3025.9,449.3,3041.8,465.2,3061.4,465.2z"/>
			<path class="st0" d="M419.5,392.1c19.6,0,35.5,15.9,35.5,35.5c0,19.6-15.9,35.5-35.5,35.5c-19.6,0-35.5-15.9-35.5-35.5
				C384,408,399.9,392.1,419.5,392.1z"/>
			<path class="st0" d="M289,392.1c19.6,0,35.5,15.9,35.5,35.5c0,19.6-15.9,35.5-35.5,35.5s-35.5-15.9-35.5-35.5
				C253.5,408,269.4,392.1,289,392.1z"/>
			<path class="st0" d="M37.6,392.1c19.6,0,35.5,15.9,35.5,35.5c0,19.6-15.9,35.5-35.5,35.5S2.2,447.1,2.2,427.6
				C2.2,408,18,392.1,37.6,392.1z"/>
			<path class="st0" d="M1043.7,392.1c19.6,0,35.5,15.9,35.5,35.5c0,19.6-15.9,35.5-35.5,35.5c-19.6,0-35.5-15.9-35.5-35.5
				C1008.3,408,1024.1,392.1,1043.7,392.1z"/>
			<path class="st0" d="M913.2,392.1c19.6,0,35.5,15.9,35.5,35.5c0,19.6-15.9,35.5-35.5,35.5s-35.5-15.9-35.5-35.5
				C877.8,408,893.6,392.1,913.2,392.1z"/>
			<path class="st0" d="M792.4,392.1c19.6,0,35.5,15.9,35.5,35.5c0,19.6-15.9,35.5-35.5,35.5c-19.6,0-35.5-15.9-35.5-35.5
				C756.9,408,772.8,392.1,792.4,392.1z"/>
			<path class="st0" d="M661.9,392.1c19.6,0,35.5,15.9,35.5,35.5c0,19.6-15.9,35.5-35.5,35.5c-19.6,0-35.5-15.9-35.5-35.5
				C626.4,408,642.3,392.1,661.9,392.1z"/>
			<path class="st0" d="M541.9,392.1c19.6,0,35.5,15.9,35.5,35.5c0,19.6-15.9,35.5-35.5,35.5s-35.5-15.9-35.5-35.5
				C506.4,408,522.3,392.1,541.9,392.1z"/>
			<path class="st0" d="M1543.7,392.1c19.6,0,35.5,15.9,35.5,35.5c0,19.6-15.9,35.5-35.5,35.5c-19.6,0-35.5-15.9-35.5-35.5
				C1508.2,408,1524.1,392.1,1543.7,392.1z"/>
			<path class="st0" d="M1422.9,392.1c19.6,0,35.5,15.9,35.5,35.5c0,19.6-15.9,35.5-35.5,35.5c-19.6,0-35.5-15.9-35.5-35.5
				C1387.4,408,1403.3,392.1,1422.9,392.1z"/>
			<path class="st0" d="M1292.3,392.1c19.6,0,35.4,15.9,35.4,35.5c0,19.6-15.9,35.5-35.4,35.5c-19.6,0-35.5-15.9-35.5-35.5
				C1256.9,408,1272.8,392.1,1292.3,392.1z"/>
		</g>
		<g>
			<path class="st0" d="M419.5,513.9c19.6,0,35.5,15.9,35.5,35.5c0,19.6-15.9,35.5-35.5,35.5c-19.6,0-35.5-15.9-35.5-35.5
				C384,529.7,399.9,513.9,419.5,513.9z"/>
			<path class="st0" d="M289,513.9c19.6,0,35.5,15.9,35.5,35.5c0,19.6-15.9,35.5-35.5,35.5s-35.5-15.9-35.5-35.5
				C253.5,529.7,269.4,513.9,289,513.9z"/>
			<path class="st0" d="M37.6,513.9c19.6,0,35.5,15.9,35.5,35.5c0,19.6-15.9,35.5-35.5,35.5S2.2,568.9,2.2,549.3
				C2.2,529.7,18,513.9,37.6,513.9z"/>
		</g>
		<g>
			<path class="st0" d="M419.5,640.2c19.6,0,35.5,15.9,35.5,35.5c0,19.6-15.9,35.5-35.5,35.5c-19.6,0-35.5-15.9-35.5-35.5
				C384,656.1,399.9,640.2,419.5,640.2z"/>
			<path class="st0" d="M289,640.2c19.6,0,35.5,15.9,35.5,35.5c0,19.6-15.9,35.5-35.5,35.5s-35.5-15.9-35.5-35.5
				C253.5,656.1,269.4,640.2,289,640.2z"/>
			<path class="st0" d="M168.1,640.2c19.6,0,35.5,15.9,35.5,35.5c0,19.6-15.9,35.5-35.5,35.5c-19.6,0-35.5-15.9-35.5-35.5
				C132.7,656.1,148.5,640.2,168.1,640.2z"/>
			<path class="st0" d="M37.6,640.2c19.6,0,35.5,15.9,35.5,35.5c0,19.6-15.9,35.5-35.5,35.5S2.2,695.2,2.2,675.7
				C2.2,656.1,18,640.2,37.6,640.2z"/>
		</g>
		<g>
			<path class="st0" d="M419.5,767.2c19.6,0,35.5,15.9,35.5,35.5c0,19.6-15.9,35.5-35.5,35.5c-19.6,0-35.5-15.9-35.5-35.5
				C384,783.1,399.9,767.2,419.5,767.2z"/>
			<path class="st0" d="M289,767.2c19.6,0,35.5,15.9,35.5,35.5c0,19.6-15.9,35.5-35.5,35.5s-35.5-15.9-35.5-35.5
				C253.5,783.1,269.4,767.2,289,767.2z"/>
			<path class="st0" d="M168.1,767.2c19.6,0,35.5,15.9,35.5,35.5c0,19.6-15.9,35.5-35.5,35.5c-19.6,0-35.5-15.9-35.5-35.5
				C132.7,783.1,148.5,767.2,168.1,767.2z"/>
			<path class="st0" d="M37.6,767.2c19.6,0,35.5,15.9,35.5,35.5c0,19.6-15.9,35.5-35.5,35.5S2.2,822.2,2.2,802.6
				C2.2,783.1,18,767.2,37.6,767.2z"/>
		</g>
		<g>
			<path class="st0" d="M289,893.2c19.6,0,35.5,15.9,35.5,35.5c0,19.6-15.9,35.5-35.5,35.5s-35.5-15.9-35.5-35.5
				C253.5,909.1,269.4,893.2,289,893.2z"/>
			<path class="st0" d="M168.1,893.2c19.6,0,35.5,15.9,35.5,35.5c0,19.6-15.9,35.5-35.5,35.5c-19.6,0-35.5-15.9-35.5-35.5
				C132.7,909.1,148.5,893.2,168.1,893.2z"/>
			<path class="st0" d="M37.6,893.2c19.6,0,35.5,15.9,35.5,35.5c0,19.6-15.9,35.5-35.5,35.5S2.2,948.3,2.2,928.7
				C2.2,909.1,18,893.2,37.6,893.2z"/>
		</g>
		<g>
			<path class="st0" d="M419.5,1020.6c19.6,0,35.5,15.9,35.5,35.5c0,19.6-15.9,35.5-35.5,35.5c-19.6,0-35.5-15.9-35.5-35.5
				C384,1036.5,399.9,1020.6,419.5,1020.6z"/>
			<path class="st0" d="M289,1020.6c19.6,0,35.5,15.9,35.5,35.5c0,19.6-15.9,35.5-35.5,35.5s-35.5-15.9-35.5-35.5
				C253.5,1036.5,269.4,1020.6,289,1020.6z"/>
			<path class="st0" d="M168.1,1020.6c19.6,0,35.5,15.9,35.5,35.5c0,19.6-15.9,35.5-35.5,35.5c-19.6,0-35.5-15.9-35.5-35.5
				C132.7,1036.5,148.5,1020.6,168.1,1020.6z"/>
			<path class="st0" d="M37.6,1020.6c19.6,0,35.5,15.9,35.5,35.5c0,19.6-15.9,35.5-35.5,35.5s-35.5-15.9-35.5-35.5
				C2.2,1036.5,18,1020.6,37.6,1020.6z"/>
		</g>
		<g>
			<path class="st0" d="M419.5,1150.2c19.6,0,35.5,15.9,35.5,35.5c0,19.6-15.9,35.5-35.5,35.5c-19.6,0-35.5-15.9-35.5-35.5
				C384,1166.1,399.9,1150.2,419.5,1150.2z"/>
			<path class="st0" d="M289,1150.2c19.6,0,35.5,15.9,35.5,35.5c0,19.6-15.9,35.5-35.5,35.5s-35.5-15.9-35.5-35.5
				C253.5,1166.1,269.4,1150.2,289,1150.2z"/>
			<path class="st0" d="M37.6,1150.2c19.6,0,35.5,15.9,35.5,35.5c0,19.6-15.9,35.5-35.5,35.5s-35.5-15.9-35.5-35.5
				C2.2,1166.1,18,1150.2,37.6,1150.2z"/>
		</g>
		<g>
			<path class="st0" d="M421.6,1285.3c19.6,0,35.5,15.9,35.5,35.5c0,19.6-15.9,35.5-35.5,35.5c-19.6,0-35.5-15.9-35.5-35.5
				C386.2,1301.2,402,1285.3,421.6,1285.3z"/>
			<path class="st0" d="M291.1,1285.3c19.6,0,35.5,15.9,35.5,35.5c0,19.6-15.9,35.5-35.5,35.5s-35.5-15.9-35.5-35.5
				C255.7,1301.2,271.5,1285.3,291.1,1285.3z"/>
			<path class="st0" d="M170.3,1285.3c19.6,0,35.5,15.9,35.5,35.5c0,19.6-15.9,35.5-35.5,35.5c-19.6,0-35.5-15.9-35.5-35.5
				C134.8,1301.2,150.7,1285.3,170.3,1285.3z"/>
			<path class="st0" d="M39.8,1285.3c19.6,0,35.5,15.9,35.5,35.5c0,19.6-15.9,35.5-35.5,35.5s-35.5-15.9-35.5-35.5
				C4.3,1301.2,20.2,1285.3,39.8,1285.3z"/>
		</g>
		<g>
			<path class="st0" d="M421.6,1407.1c19.6,0,35.5,15.9,35.5,35.5c0,19.6-15.9,35.5-35.5,35.5c-19.6,0-35.5-15.9-35.5-35.5
				C386.2,1423,402,1407.1,421.6,1407.1z"/>
			<path class="st0" d="M291.1,1407.1c19.6,0,35.5,15.9,35.5,35.5c0,19.6-15.9,35.5-35.5,35.5s-35.5-15.9-35.5-35.5
				C255.7,1423,271.5,1407.1,291.1,1407.1z"/>
			<path class="st0" d="M170.3,1407.1c19.6,0,35.5,15.9,35.5,35.5c0,19.6-15.9,35.5-35.5,35.5c-19.6,0-35.5-15.9-35.5-35.5
				C134.8,1423,150.7,1407.1,170.3,1407.1z"/>
			<path class="st0" d="M39.8,1407.1c19.6,0,35.5,15.9,35.5,35.5c0,19.6-15.9,35.5-35.5,35.5s-35.5-15.9-35.5-35.5
				C4.3,1423,20.2,1407.1,39.8,1407.1z"/>
		</g>
		<g>
			<path class="st0" d="M421.6,1533.4c19.6,0,35.5,15.9,35.5,35.5c0,19.6-15.9,35.5-35.5,35.5c-19.6,0-35.5-15.9-35.5-35.5
				C386.2,1549.3,402,1533.4,421.6,1533.4z"/>
			<path class="st0" d="M291.1,1533.4c19.6,0,35.5,15.9,35.5,35.5c0,19.6-15.9,35.5-35.5,35.5s-35.5-15.9-35.5-35.5
				C255.7,1549.3,271.5,1533.4,291.1,1533.4z"/>
			<path class="st0" d="M39.8,1533.4c19.6,0,35.5,15.9,35.5,35.5c0,19.6-15.9,35.5-35.5,35.5s-35.5-15.9-35.5-35.5
				C4.3,1549.3,20.2,1533.4,39.8,1533.4z"/>
		</g>
		<g>
			<path class="st0" d="M39.8,1660.4c19.6,0,35.5,15.9,35.5,35.5c0,19.6-15.9,35.5-35.5,35.5s-35.5-15.9-35.5-35.5
				C4.3,1676.3,20.2,1660.4,39.8,1660.4z"/>
		</g>
		<g>
			<path class="st0" d="M419.3,1796.9c19.6,0,35.5,15.9,35.5,35.5c0,19.6-15.9,35.5-35.5,35.5c-19.6,0-35.5-15.9-35.5-35.5
				C383.8,1812.8,399.7,1796.9,419.3,1796.9z"/>
			<path class="st0" d="M288.8,1796.9c19.6,0,35.5,15.9,35.5,35.5c0,19.6-15.9,35.5-35.5,35.5c-19.6,0-35.5-15.9-35.5-35.5
				C253.4,1812.8,269.2,1796.9,288.8,1796.9z"/>
			<path class="st0" d="M168,1796.9c19.6,0,35.5,15.9,35.5,35.5c0,19.6-15.9,35.5-35.5,35.5s-35.5-15.9-35.5-35.5
				C132.5,1812.8,148.4,1796.9,168,1796.9z"/>
			<path class="st0" d="M37.5,1796.9c19.6,0,35.5,15.9,35.5,35.5c0,19.6-15.9,35.5-35.5,35.5S2,1852,2,1832.4
				C2,1812.8,17.9,1796.9,37.5,1796.9z"/>
		</g>
		<g>
			<path class="st0" d="M419.3,1926.5c19.6,0,35.5,15.9,35.5,35.5s-15.9,35.5-35.5,35.5c-19.6,0-35.5-15.9-35.5-35.5
				S399.7,1926.5,419.3,1926.5z"/>
			<path class="st0" d="M288.8,1926.5c19.6,0,35.5,15.9,35.5,35.5s-15.9,35.5-35.5,35.5c-19.6,0-35.5-15.9-35.5-35.5
				C253.4,1942.4,269.2,1926.5,288.8,1926.5z"/>
			<path class="st0" d="M168,1926.5c19.6,0,35.5,15.9,35.5,35.5s-15.9,35.5-35.5,35.5s-35.5-15.9-35.5-35.5
				C132.5,1942.4,148.4,1926.5,168,1926.5z"/>
			<path class="st0" d="M37.5,1926.5c19.6,0,35.5,15.9,35.5,35.5s-15.9,35.5-35.5,35.5S2,1981.6,2,1962S17.9,1926.5,37.5,1926.5z"/>
		</g>
		<g>
			<path class="st0" d="M421.5,2061.7c19.6,0,35.5,15.9,35.5,35.5c0,19.6-15.9,35.5-35.5,35.5c-19.6,0-35.5-15.9-35.5-35.5
				C386,2077.5,401.9,2061.7,421.5,2061.7z"/>
			<path class="st0" d="M291,2061.7c19.6,0,35.5,15.9,35.5,35.5c0,19.6-15.9,35.5-35.5,35.5c-19.6,0-35.5-15.9-35.5-35.5
				C255.5,2077.5,271.4,2061.7,291,2061.7z"/>
			<path class="st0" d="M170.1,2061.7c19.6,0,35.5,15.9,35.5,35.5c0,19.6-15.9,35.5-35.5,35.5s-35.5-15.9-35.5-35.5
				C134.7,2077.5,150.6,2061.7,170.1,2061.7z"/>
			<path class="st0" d="M39.6,2061.7c19.6,0,35.5,15.9,35.5,35.5c0,19.6-15.9,35.5-35.5,35.5s-35.5-15.9-35.5-35.5
				C4.2,2077.5,20.1,2061.7,39.6,2061.7z"/>
		</g>
		<g>
			<path class="st0" d="M421.5,2183.4c19.6,0,35.5,15.9,35.5,35.5c0,19.6-15.9,35.5-35.5,35.5c-19.6,0-35.5-15.9-35.5-35.5
				C386,2199.3,401.9,2183.4,421.5,2183.4z"/>
			<path class="st0" d="M170.1,2183.4c19.6,0,35.5,15.9,35.5,35.5c0,19.6-15.9,35.5-35.5,35.5s-35.5-15.9-35.5-35.5
				C134.7,2199.3,150.6,2183.4,170.1,2183.4z"/>
			<path class="st0" d="M39.6,2183.4c19.6,0,35.5,15.9,35.5,35.5c0,19.6-15.9,35.5-35.5,35.5s-35.5-15.9-35.5-35.5
				C4.2,2199.3,20.1,2183.4,39.6,2183.4z"/>
		</g>
		<g>
			<path class="st0" d="M421.5,2309.8c19.6,0,35.5,15.9,35.5,35.5c0,19.6-15.9,35.5-35.5,35.5c-19.6,0-35.5-15.9-35.5-35.5
				C386,2325.6,401.9,2309.8,421.5,2309.8z"/>
			<path class="st0" d="M170.1,2309.8c19.6,0,35.5,15.9,35.5,35.5c0,19.6-15.9,35.5-35.5,35.5s-35.5-15.9-35.5-35.5
				C134.7,2325.6,150.6,2309.8,170.1,2309.8z"/>
			<path class="st0" d="M39.6,2309.8c19.6,0,35.5,15.9,35.5,35.5c0,19.6-15.9,35.5-35.5,35.5s-35.5-15.9-35.5-35.5
				C4.2,2325.6,20.1,2309.8,39.6,2309.8z"/>
		</g>
		<g>
			<path class="st0" d="M421.5,2436.7c19.6,0,35.5,15.9,35.5,35.5c0,19.6-15.9,35.5-35.5,35.5c-19.6,0-35.5-15.9-35.5-35.5
				C386,2452.6,401.9,2436.7,421.5,2436.7z"/>
			<path class="st0" d="M291,2436.7c19.6,0,35.5,15.9,35.5,35.5c0,19.6-15.9,35.5-35.5,35.5c-19.6,0-35.5-15.9-35.5-35.5
				C255.5,2452.6,271.4,2436.7,291,2436.7z"/>
			<path class="st0" d="M170.1,2436.7c19.6,0,35.5,15.9,35.5,35.5c0,19.6-15.9,35.5-35.5,35.5s-35.5-15.9-35.5-35.5
				C134.7,2452.6,150.6,2436.7,170.1,2436.7z"/>
			<path class="st0" d="M39.6,2436.7c19.6,0,35.5,15.9,35.5,35.5c0,19.6-15.9,35.5-35.5,35.5s-35.5-15.9-35.5-35.5
				C4.2,2452.6,20.1,2436.7,39.6,2436.7z"/>
		</g>
	</g>
	<g>
		<g>
			<path class="st0" d="M4071.4,1733.7c19.6,0,35.5-15.9,35.5-35.5c0-19.6-15.9-35.5-35.5-35.5c-19.6,0-35.5,15.9-35.5,35.5
				C4036,1717.8,4051.8,1733.7,4071.4,1733.7z"/>
			<path class="st0" d="M3947,1733.7c19.6,0,35.5-15.9,35.5-35.5c0-19.6-15.9-35.5-35.5-35.5s-35.5,15.9-35.5,35.5
				C3911.6,1717.8,3927.4,1733.7,3947,1733.7z"/>
			<path class="st0" d="M4313.8,1733.7c19.6,0,35.5-15.9,35.5-35.5c0-19.6-15.9-35.5-35.5-35.5c-19.6,0-35.5,15.9-35.5,35.5
				C4278.4,1717.8,4294.2,1733.7,4313.8,1733.7z"/>
			<path class="st0" d="M4193.8,1733.7c19.6,0,35.4-15.9,35.4-35.5c0-19.6-15.9-35.5-35.4-35.5c-19.6,0-35.5,15.9-35.5,35.5
				C4158.4,1717.8,4174.2,1733.7,4193.8,1733.7z"/>
		</g>
		<g>
			<path class="st0" d="M3947,1861c19.6,0,35.5-15.9,35.5-35.5c0-19.6-15.9-35.5-35.5-35.5s-35.5,15.9-35.5,35.5
				C3911.6,1845.2,3927.4,1861,3947,1861z"/>
			<path class="st0" d="M4313.8,1861c19.6,0,35.5-15.9,35.5-35.5c0-19.6-15.9-35.5-35.5-35.5c-19.6,0-35.5,15.9-35.5,35.5
				C4278.4,1845.2,4294.2,1861,4313.8,1861z"/>
			<path class="st0" d="M4193.8,1861c19.6,0,35.4-15.9,35.4-35.5c0-19.6-15.9-35.5-35.4-35.5c-19.6,0-35.5,15.9-35.5,35.5
				C4158.4,1845.2,4174.2,1861,4193.8,1861z"/>
		</g>
		<g>
			<path class="st0" d="M3947,1990.6c19.6,0,35.5-15.9,35.5-35.5s-15.9-35.5-35.5-35.5s-35.5,15.9-35.5,35.5
				S3927.4,1990.6,3947,1990.6z"/>
			<path class="st0" d="M4313.8,1990.6c19.6,0,35.5-15.9,35.5-35.5s-15.9-35.5-35.5-35.5c-19.6,0-35.5,15.9-35.5,35.5
				S4294.2,1990.6,4313.8,1990.6z"/>
			<path class="st0" d="M4193.8,1990.6c19.6,0,35.4-15.9,35.4-35.5s-15.9-35.5-35.4-35.5c-19.6,0-35.5,15.9-35.5,35.5
				S4174.2,1990.6,4193.8,1990.6z"/>
		</g>
		<g>
			<path class="st0" d="M4073.6,2125.8c19.6,0,35.5-15.9,35.5-35.5s-15.9-35.5-35.5-35.5c-19.6,0-35.5,15.9-35.5,35.5
				S4054,2125.8,4073.6,2125.8z"/>
			<path class="st0" d="M3949.2,2125.8c19.6,0,35.5-15.9,35.5-35.5s-15.9-35.5-35.5-35.5c-19.6,0-35.5,15.9-35.5,35.5
				S3929.6,2125.8,3949.2,2125.8z"/>
			<path class="st0" d="M4316,2125.8c19.6,0,35.5-15.9,35.5-35.5s-15.9-35.5-35.5-35.5c-19.6,0-35.5,15.9-35.5,35.5
				S4296.4,2125.8,4316,2125.8z"/>
			<path class="st0" d="M4196,2125.8c19.6,0,35.4-15.9,35.4-35.5s-15.9-35.5-35.4-35.5c-19.6,0-35.5,15.9-35.5,35.5
				S4176.4,2125.8,4196,2125.8z"/>
		</g>
		<g>
			<path class="st0" d="M4073.6,2247.6c19.6,0,35.5-15.9,35.5-35.5s-15.9-35.5-35.5-35.5c-19.6,0-35.5,15.9-35.5,35.5
				S4054,2247.6,4073.6,2247.6z"/>
			<path class="st0" d="M3949.2,2247.6c19.6,0,35.5-15.9,35.5-35.5s-15.9-35.5-35.5-35.5c-19.6,0-35.5,15.9-35.5,35.5
				S3929.6,2247.6,3949.2,2247.6z"/>
			<path class="st0" d="M4316,2247.6c19.6,0,35.5-15.9,35.5-35.5s-15.9-35.5-35.5-35.5c-19.6,0-35.5,15.9-35.5,35.5
				S4296.4,2247.6,4316,2247.6z"/>
			<path class="st0" d="M4196,2247.6c19.6,0,35.4-15.9,35.4-35.5s-15.9-35.5-35.4-35.5c-19.6,0-35.5,15.9-35.5,35.5
				S4176.4,2247.6,4196,2247.6z"/>
		</g>
		<g>
			<path class="st0" d="M4073.6,2373.9c19.6,0,35.5-15.9,35.5-35.5s-15.9-35.5-35.5-35.5c-19.6,0-35.5,15.9-35.5,35.5
				S4054,2373.9,4073.6,2373.9z"/>
			<path class="st0" d="M3949.2,2373.9c19.6,0,35.5-15.9,35.5-35.5s-15.9-35.5-35.5-35.5c-19.6,0-35.5,15.9-35.5,35.5
				S3929.6,2373.9,3949.2,2373.9z"/>
			<path class="st0" d="M4316,2373.9c19.6,0,35.5-15.9,35.5-35.5s-15.9-35.5-35.5-35.5c-19.6,0-35.5,15.9-35.5,35.5
				S4296.4,2373.9,4316,2373.9z"/>
			<path class="st0" d="M4196,2373.9c19.6,0,35.4-15.9,35.4-35.5s-15.9-35.5-35.4-35.5c-19.6,0-35.5,15.9-35.5,35.5
				S4176.4,2373.9,4196,2373.9z"/>
		</g>
		<g>
			<path class="st0" d="M4073.6,2500.9c19.6,0,35.5-15.9,35.5-35.5c0-19.6-15.9-35.5-35.5-35.5c-19.6,0-35.5,15.9-35.5,35.5
				C4038.1,2485,4054,2500.9,4073.6,2500.9z"/>
			<path class="st0" d="M3949.2,2500.9c19.6,0,35.5-15.9,35.5-35.5c0-19.6-15.9-35.5-35.5-35.5c-19.6,0-35.5,15.9-35.5,35.5
				C3913.7,2485,3929.6,2500.9,3949.2,2500.9z"/>
			<path class="st0" d="M4316,2500.9c19.6,0,35.5-15.9,35.5-35.5c0-19.6-15.9-35.5-35.5-35.5c-19.6,0-35.5,15.9-35.5,35.5
				C4280.5,2485,4296.4,2500.9,4316,2500.9z"/>
			<path class="st0" d="M4196,2500.9c19.6,0,35.4-15.9,35.4-35.5c0-19.6-15.9-35.5-35.4-35.5c-19.6,0-35.5,15.9-35.5,35.5
				C4160.5,2485,4176.4,2500.9,4196,2500.9z"/>
		</g>
		<g>
			<path class="st0" d="M4073.6,2626.9c19.6,0,35.5-15.9,35.5-35.5s-15.9-35.5-35.5-35.5c-19.6,0-35.5,15.9-35.5,35.5
				S4054,2626.9,4073.6,2626.9z"/>
			<path class="st0" d="M3949.2,2626.9c19.6,0,35.5-15.9,35.5-35.5s-15.9-35.5-35.5-35.5c-19.6,0-35.5,15.9-35.5,35.5
				S3929.6,2626.9,3949.2,2626.9z"/>
			<path class="st0" d="M4316,2626.9c19.6,0,35.5-15.9,35.5-35.5s-15.9-35.5-35.5-35.5c-19.6,0-35.5,15.9-35.5,35.5
				S4296.4,2626.9,4316,2626.9z"/>
			<path class="st0" d="M4196,2626.9c19.6,0,35.4-15.9,35.4-35.5s-15.9-35.5-35.4-35.5c-19.6,0-35.5,15.9-35.5,35.5
				S4176.4,2626.9,4196,2626.9z"/>
		</g>
		<g>
			<path class="st0" d="M4073.6,2754.3c19.6,0,35.5-15.9,35.5-35.5s-15.9-35.5-35.5-35.5c-19.6,0-35.5,15.9-35.5,35.5
				S4054,2754.3,4073.6,2754.3z"/>
			<path class="st0" d="M3949.2,2754.3c19.6,0,35.5-15.9,35.5-35.5s-15.9-35.5-35.5-35.5c-19.6,0-35.5,15.9-35.5,35.5
				S3929.6,2754.3,3949.2,2754.3z"/>
			<path class="st0" d="M4316,2754.3c19.6,0,35.5-15.9,35.5-35.5s-15.9-35.5-35.5-35.5c-19.6,0-35.5,15.9-35.5,35.5
				S4296.4,2754.3,4316,2754.3z"/>
		</g>
		<g>
			<path class="st0" d="M4073.6,2883.9c19.6,0,35.5-15.9,35.5-35.5s-15.9-35.5-35.5-35.5c-19.6,0-35.5,15.9-35.5,35.5
				S4054,2883.9,4073.6,2883.9z"/>
			<path class="st0" d="M3949.2,2883.9c19.6,0,35.5-15.9,35.5-35.5s-15.9-35.5-35.5-35.5c-19.6,0-35.5,15.9-35.5,35.5
				S3929.6,2883.9,3949.2,2883.9z"/>
			<path class="st0" d="M4316,2883.9c19.6,0,35.5-15.9,35.5-35.5s-15.9-35.5-35.5-35.5c-19.6,0-35.5,15.9-35.5,35.5
				S4296.4,2883.9,4316,2883.9z"/>
		</g>
		<g>
			<path class="st0" d="M4075.8,3019c19.6,0,35.5-15.9,35.5-35.5c0-19.6-15.9-35.5-35.5-35.5s-35.5,15.9-35.5,35.5
				C4040.3,3003.1,4056.2,3019,4075.8,3019z"/>
			<path class="st0" d="M3951.4,3019c19.6,0,35.5-15.9,35.5-35.5c0-19.6-15.9-35.5-35.5-35.5c-19.6,0-35.5,15.9-35.5,35.5
				C3915.9,3003.1,3931.8,3019,3951.4,3019z"/>
			<path class="st0" d="M4318.2,3019c19.6,0,35.5-15.9,35.5-35.5c0-19.6-15.9-35.5-35.5-35.5c-19.6,0-35.5,15.9-35.5,35.5
				C4282.7,3003.1,4298.6,3019,4318.2,3019z"/>
		</g>
		<g>
			<path class="st0" d="M4075.8,3140.8c19.6,0,35.5-15.9,35.5-35.5s-15.9-35.5-35.5-35.5s-35.5,15.9-35.5,35.5
				S4056.2,3140.8,4075.8,3140.8z"/>
			<path class="st0" d="M3951.4,3140.8c19.6,0,35.5-15.9,35.5-35.5s-15.9-35.5-35.5-35.5c-19.6,0-35.5,15.9-35.5,35.5
				S3931.8,3140.8,3951.4,3140.8z"/>
			<path class="st0" d="M4318.2,3140.8c19.6,0,35.5-15.9,35.5-35.5s-15.9-35.5-35.5-35.5c-19.6,0-35.5,15.9-35.5,35.5
				S4298.6,3140.8,4318.2,3140.8z"/>
			<path class="st0" d="M4198.2,3140.8c19.6,0,35.4-15.9,35.4-35.5s-15.9-35.5-35.4-35.5c-19.6,0-35.5,15.9-35.5,35.5
				S4178.6,3140.8,4198.2,3140.8z"/>
		</g>
		<g>
			<path class="st0" d="M4075.8,3267.1c19.6,0,35.5-15.9,35.5-35.5s-15.9-35.5-35.5-35.5s-35.5,15.9-35.5,35.5
				S4056.2,3267.1,4075.8,3267.1z"/>
			<path class="st0" d="M3951.4,3267.1c19.6,0,35.5-15.9,35.5-35.5s-15.9-35.5-35.5-35.5c-19.6,0-35.5,15.9-35.5,35.5
				S3931.8,3267.1,3951.4,3267.1z"/>
			<path class="st0" d="M4318.2,3267.1c19.6,0,35.5-15.9,35.5-35.5s-15.9-35.5-35.5-35.5c-19.6,0-35.5,15.9-35.5,35.5
				S4298.6,3267.1,4318.2,3267.1z"/>
			<path class="st0" d="M4198.2,3267.1c19.6,0,35.4-15.9,35.4-35.5s-15.9-35.5-35.4-35.5c-19.6,0-35.5,15.9-35.5,35.5
				S4178.6,3267.1,4198.2,3267.1z"/>
		</g>
		<g>
			<path class="st0" d="M4075.8,3394.1c19.6,0,35.5-15.9,35.5-35.5c0-19.6-15.9-35.5-35.5-35.5s-35.5,15.9-35.5,35.5
				C4040.3,3378.2,4056.2,3394.1,4075.8,3394.1z"/>
			<path class="st0" d="M3951.4,3394.1c19.6,0,35.5-15.9,35.5-35.5c0-19.6-15.9-35.5-35.5-35.5c-19.6,0-35.5,15.9-35.5,35.5
				C3915.9,3378.2,3931.8,3394.1,3951.4,3394.1z"/>
			<path class="st0" d="M4318.2,3394.1c19.6,0,35.5-15.9,35.5-35.5c0-19.6-15.9-35.5-35.5-35.5c-19.6,0-35.5,15.9-35.5,35.5
				C4282.7,3378.2,4298.6,3394.1,4318.2,3394.1z"/>
		</g>
		<g>
			<path class="st0" d="M4073.4,3530.6c19.6,0,35.5-15.9,35.5-35.5s-15.9-35.5-35.5-35.5c-19.6,0-35.5,15.9-35.5,35.5
				S4053.9,3530.6,4073.4,3530.6z"/>
			<path class="st0" d="M3949,3530.6c19.6,0,35.5-15.9,35.5-35.5s-15.9-35.5-35.5-35.5s-35.5,15.9-35.5,35.5
				S3929.5,3530.6,3949,3530.6z"/>
			<path class="st0" d="M4315.8,3530.6c19.6,0,35.5-15.9,35.5-35.5s-15.9-35.5-35.5-35.5c-19.6,0-35.5,15.9-35.5,35.5
				S4296.2,3530.6,4315.8,3530.6z"/>
			<path class="st0" d="M4195.8,3530.6c19.6,0,35.4-15.9,35.4-35.5s-15.9-35.5-35.4-35.5c-19.6,0-35.5,15.9-35.5,35.5
				S4176.3,3530.6,4195.8,3530.6z"/>
		</g>
		<g>
			<path class="st0" d="M4073.4,3660.2c19.6,0,35.5-15.9,35.5-35.5s-15.9-35.5-35.5-35.5c-19.6,0-35.5,15.9-35.5,35.5
				S4053.9,3660.2,4073.4,3660.2z"/>
			<path class="st0" d="M4315.8,3660.2c19.6,0,35.5-15.9,35.5-35.5s-15.9-35.5-35.5-35.5c-19.6,0-35.5,15.9-35.5,35.5
				S4296.2,3660.2,4315.8,3660.2z"/>
			<path class="st0" d="M4195.8,3660.2c19.6,0,35.4-15.9,35.4-35.5s-15.9-35.5-35.4-35.5c-19.6,0-35.5,15.9-35.5,35.5
				S4176.3,3660.2,4195.8,3660.2z"/>
		</g>
		<g>
			<path class="st0" d="M3317.4,3722.2c19.6,0,35.5,15.9,35.5,35.5c0,19.6-15.9,35.5-35.5,35.5c-19.6,0-35.5-15.9-35.5-35.5
				C3281.9,3738.1,3297.8,3722.2,3317.4,3722.2z"/>
			<path class="st0" d="M3066,3722.2c19.6,0,35.5,15.9,35.5,35.5c0,19.6-15.9,35.5-35.5,35.5c-19.6,0-35.5-15.9-35.5-35.5
				C3030.6,3738.1,3046.5,3722.2,3066,3722.2z"/>
			<path class="st0" d="M3181.2,3724.4c19.6,0,35.5,15.9,35.5,35.5s-15.9,35.5-35.5,35.5s-35.4-15.9-35.4-35.5
				C3145.8,3740.3,3161.7,3724.4,3181.2,3724.4z"/>
			<path class="st0" d="M3811.1,3722.2c19.6,0,35.4,15.9,35.4,35.5c0,19.6-15.9,35.5-35.4,35.5c-19.6,0-35.5-15.9-35.5-35.5
				C3775.7,3738.1,3791.6,3722.2,3811.1,3722.2z"/>
			<path class="st0" d="M3690.3,3722.2c19.6,0,35.5,15.9,35.5,35.5c0,19.6-15.9,35.5-35.5,35.5s-35.5-15.9-35.5-35.5
				C3654.8,3738.1,3670.7,3722.2,3690.3,3722.2z"/>
			<path class="st0" d="M3559.8,3722.2c19.6,0,35.4,15.9,35.4,35.5c0,19.6-15.9,35.5-35.4,35.5s-35.5-15.9-35.5-35.5
				C3524.3,3738.1,3540.2,3722.2,3559.8,3722.2z"/>
			<path class="st0" d="M3439.8,3722.2c19.6,0,35.5,15.9,35.5,35.5c0,19.6-15.9,35.5-35.5,35.5s-35.5-15.9-35.5-35.5
				C3404.3,3738.1,3420.2,3722.2,3439.8,3722.2z"/>
			<path class="st0" d="M4075.6,3795.4c19.6,0,35.5-15.9,35.5-35.5c0-19.6-15.9-35.5-35.5-35.5c-19.6,0-35.5,15.9-35.5,35.5
				C4040.2,3779.5,4056,3795.4,4075.6,3795.4z"/>
			<path class="st0" d="M4318,3795.4c19.6,0,35.5-15.9,35.5-35.5c0-19.6-15.9-35.5-35.5-35.5s-35.5,15.9-35.5,35.5
				C4282.5,3779.5,4298.4,3795.4,4318,3795.4z"/>
			<path class="st0" d="M4198,3795.4c19.6,0,35.4-15.9,35.4-35.5c0-19.6-15.9-35.5-35.4-35.5c-19.6,0-35.5,15.9-35.5,35.5
				C4162.6,3779.5,4178.4,3795.4,4198,3795.4z"/>
			<path class="st0" d="M1556.1,3722.2c19.6,0,35.5,15.9,35.5,35.5c0,19.6-15.9,35.5-35.5,35.5c-19.6,0-35.5-15.9-35.5-35.5
				C1520.6,3738.1,1536.5,3722.2,1556.1,3722.2z"/>
			<path class="st0" d="M1425.6,3722.2c19.6,0,35.5,15.9,35.5,35.5c0,19.6-15.9,35.5-35.5,35.5s-35.5-15.9-35.5-35.5
				C1390.1,3738.1,1406,3722.2,1425.6,3722.2z"/>
			<path class="st0" d="M1304.7,3722.2c19.6,0,35.5,15.9,35.5,35.5c0,19.6-15.9,35.5-35.5,35.5c-19.6,0-35.5-15.9-35.5-35.5
				C1269.3,3738.1,1285.2,3722.2,1304.7,3722.2z"/>
			<path class="st0" d="M1174.2,3722.2c19.6,0,35.5,15.9,35.5,35.5c0,19.6-15.9,35.5-35.5,35.5c-19.6,0-35.5-15.9-35.5-35.5
				C1138.8,3738.1,1154.7,3722.2,1174.2,3722.2z"/>
			<path class="st0" d="M1678.5,3722.2c19.6,0,35.5,15.9,35.5,35.5c0,19.6-15.9,35.5-35.5,35.5c-19.6,0-35.5-15.9-35.5-35.5
				C1643,3738.1,1658.9,3722.2,1678.5,3722.2z"/>
			<path class="st0" d="M2307.9,3722.2c19.6,0,35.4,15.9,35.4,35.5c0,19.6-15.9,35.5-35.4,35.5c-19.6,0-35.5-15.9-35.5-35.5
				C2272.4,3738.1,2288.3,3722.2,2307.9,3722.2z"/>
			<path class="st0" d="M2429,3722.2c19.6,0,35.4,15.9,35.4,35.5c0,19.6-15.9,35.5-35.4,35.5s-35.5-15.9-35.5-35.5
				C2393.5,3738.1,2409.4,3722.2,2429,3722.2z"/>
		</g>
		<g>
			<path class="st0" d="M3317.4,3844c19.6,0,35.5,15.9,35.5,35.5c0,19.6-15.9,35.5-35.5,35.5c-19.6,0-35.5-15.9-35.5-35.5
				C3281.9,3859.9,3297.8,3844,3317.4,3844z"/>
			<path class="st0" d="M3066,3844c19.6,0,35.5,15.9,35.5,35.5c0,19.6-15.9,35.5-35.5,35.5c-19.6,0-35.5-15.9-35.5-35.5
				C3030.6,3859.9,3046.5,3844,3066,3844z"/>
			<path class="st0" d="M3181.2,3846.2c19.6,0,35.5,15.9,35.5,35.5s-15.9,35.5-35.5,35.5s-35.4-15.9-35.4-35.5
				C3145.8,3862.1,3161.7,3846.2,3181.2,3846.2z"/>
			<path class="st0" d="M3559.8,3844c19.6,0,35.4,15.9,35.4,35.5c0,19.6-15.9,35.5-35.4,35.5s-35.5-15.9-35.5-35.5
				C3524.3,3859.9,3540.2,3844,3559.8,3844z"/>
			<path class="st0" d="M3439.8,3844c19.6,0,35.5,15.9,35.5,35.5c0,19.6-15.9,35.5-35.5,35.5s-35.5-15.9-35.5-35.5
				C3404.3,3859.9,3420.2,3844,3439.8,3844z"/>
			<path class="st0" d="M4075.6,3917.1c19.6,0,35.5-15.9,35.5-35.5c0-19.6-15.9-35.5-35.5-35.5c-19.6,0-35.5,15.9-35.5,35.5
				C4040.2,3901.2,4056,3917.1,4075.6,3917.1z"/>
			<path class="st0" d="M4318,3917.1c19.6,0,35.5-15.9,35.5-35.5c0-19.6-15.9-35.5-35.5-35.5s-35.5,15.9-35.5,35.5
				C4282.5,3901.2,4298.4,3917.1,4318,3917.1z"/>
			<path class="st0" d="M4198,3917.1c19.6,0,35.4-15.9,35.4-35.5c0-19.6-15.9-35.5-35.4-35.5c-19.6,0-35.5,15.9-35.5,35.5
				C4162.6,3901.2,4178.4,3917.1,4198,3917.1z"/>
			<path class="st0" d="M1556.1,3844c19.6,0,35.5,15.9,35.5,35.5c0,19.6-15.9,35.5-35.5,35.5c-19.6,0-35.5-15.9-35.5-35.5
				C1520.6,3859.9,1536.5,3844,1556.1,3844z"/>
			<path class="st0" d="M1304.7,3844c19.6,0,35.5,15.9,35.5,35.5c0,19.6-15.9,35.5-35.5,35.5c-19.6,0-35.5-15.9-35.5-35.5
				C1269.3,3859.9,1285.2,3844,1304.7,3844z"/>
			<path class="st0" d="M1174.2,3844c19.6,0,35.5,15.9,35.5,35.5c0,19.6-15.9,35.5-35.5,35.5c-19.6,0-35.5-15.9-35.5-35.5
				C1138.8,3859.9,1154.7,3844,1174.2,3844z"/>
			<path class="st0" d="M2180.3,3844c19.6,0,35.5,15.9,35.5,35.5c0,19.6-15.9,35.5-35.5,35.5s-35.5-15.9-35.5-35.5
				C2144.9,3859.9,2160.7,3844,2180.3,3844z"/>
			<path class="st0" d="M2049.8,3844c19.6,0,35.5,15.9,35.5,35.5c0,19.6-15.9,35.5-35.5,35.5c-19.6,0-35.5-15.9-35.5-35.5
				C2014.4,3859.9,2030.2,3844,2049.8,3844z"/>
			<path class="st0" d="M1929,3844c19.6,0,35.5,15.9,35.5,35.5c0,19.6-15.9,35.5-35.5,35.5c-19.6,0-35.5-15.9-35.5-35.5
				C1893.5,3859.9,1909.4,3844,1929,3844z"/>
			<path class="st0" d="M1798.5,3844c19.6,0,35.5,15.9,35.5,35.5c0,19.6-15.9,35.5-35.5,35.5c-19.6,0-35.5-15.9-35.5-35.5
				C1763,3859.9,1778.9,3844,1798.5,3844z"/>
			<path class="st0" d="M1678.5,3844c19.6,0,35.5,15.9,35.5,35.5c0,19.6-15.9,35.5-35.5,35.5c-19.6,0-35.5-15.9-35.5-35.5
				C1643,3859.9,1658.9,3844,1678.5,3844z"/>
			<path class="st0" d="M2307.9,3844c19.6,0,35.4,15.9,35.4,35.5c0,19.6-15.9,35.5-35.4,35.5c-19.6,0-35.5-15.9-35.5-35.5
				C2272.4,3859.9,2288.3,3844,2307.9,3844z"/>
			<path class="st0" d="M2810.8,3844c19.6,0,35.5,15.9,35.5,35.5s-15.9,35.5-35.5,35.5c-19.6,0-35.5-15.9-35.5-35.5
				C2775.4,3859.9,2791.3,3844,2810.8,3844z"/>
			<path class="st0" d="M2680.3,3844c19.6,0,35.5,15.9,35.5,35.5c0,19.6-15.9,35.5-35.5,35.5c-19.6,0-35.5-15.9-35.5-35.5
				C2644.8,3859.9,2660.7,3844,2680.3,3844z"/>
			<path class="st0" d="M2559.5,3844c19.6,0,35.5,15.9,35.5,35.5c0,19.6-15.9,35.5-35.5,35.5c-19.6,0-35.5-15.9-35.5-35.5
				C2524,3859.9,2539.9,3844,2559.5,3844z"/>
			<path class="st0" d="M2429,3844c19.6,0,35.4,15.9,35.4,35.5c0,19.6-15.9,35.5-35.4,35.5s-35.5-15.9-35.5-35.5
				C2393.5,3859.9,2409.4,3844,2429,3844z"/>
		</g>
		<g>
			<path class="st0" d="M3317.4,3970.3c19.6,0,35.5,15.9,35.5,35.5c0,19.6-15.9,35.5-35.5,35.5c-19.6,0-35.5-15.9-35.5-35.5
				C3281.9,3986.2,3297.8,3970.3,3317.4,3970.3z"/>
			<path class="st0" d="M3066,3970.3c19.6,0,35.5,15.9,35.5,35.5c0,19.6-15.9,35.5-35.5,35.5c-19.6,0-35.5-15.9-35.5-35.5
				C3030.6,3986.2,3046.5,3970.3,3066,3970.3z"/>
			<path class="st0" d="M3181.2,3972.5c19.6,0,35.5,15.9,35.5,35.5s-15.9,35.5-35.5,35.5s-35.4-15.9-35.4-35.5
				C3145.8,3988.4,3161.7,3972.5,3181.2,3972.5z"/>
			<path class="st0" d="M3811.1,3970.3c19.6,0,35.4,15.9,35.4,35.5c0,19.6-15.9,35.5-35.4,35.5c-19.6,0-35.5-15.9-35.5-35.5
				C3775.7,3986.2,3791.6,3970.3,3811.1,3970.3z"/>
			<path class="st0" d="M3690.3,3970.3c19.6,0,35.5,15.9,35.5,35.5c0,19.6-15.9,35.5-35.5,35.5s-35.5-15.9-35.5-35.5
				C3654.8,3986.2,3670.7,3970.3,3690.3,3970.3z"/>
			<path class="st0" d="M3559.8,3970.3c19.6,0,35.4,15.9,35.4,35.5c0,19.6-15.9,35.5-35.4,35.5s-35.5-15.9-35.5-35.5
				C3524.3,3986.2,3540.2,3970.3,3559.8,3970.3z"/>
			<path class="st0" d="M3439.8,3970.3c19.6,0,35.5,15.9,35.5,35.5c0,19.6-15.9,35.5-35.5,35.5s-35.5-15.9-35.5-35.5
				C3404.3,3986.2,3420.2,3970.3,3439.8,3970.3z"/>
			<path class="st0" d="M4075.6,4043.5c19.6,0,35.5-15.9,35.5-35.5c0-19.6-15.9-35.5-35.5-35.5c-19.6,0-35.5,15.9-35.5,35.5
				C4040.2,4027.6,4056,4043.5,4075.6,4043.5z"/>
			<path class="st0" d="M3951.2,4043.5c19.6,0,35.5-15.9,35.5-35.5c0-19.6-15.9-35.5-35.5-35.5s-35.5,15.9-35.5,35.5
				C3915.8,4027.6,3931.6,4043.5,3951.2,4043.5z"/>
			<path class="st0" d="M4318,4043.5c19.6,0,35.5-15.9,35.5-35.5c0-19.6-15.9-35.5-35.5-35.5s-35.5,15.9-35.5,35.5
				C4282.5,4027.6,4298.4,4043.5,4318,4043.5z"/>
			<path class="st0" d="M4198,4043.5c19.6,0,35.4-15.9,35.4-35.5c0-19.6-15.9-35.5-35.4-35.5c-19.6,0-35.5,15.9-35.5,35.5
				C4162.6,4027.6,4178.4,4043.5,4198,4043.5z"/>
			<path class="st0" d="M1556.1,3970.3c19.6,0,35.5,15.9,35.5,35.5c0,19.6-15.9,35.5-35.5,35.5c-19.6,0-35.5-15.9-35.5-35.5
				C1520.6,3986.2,1536.5,3970.3,1556.1,3970.3z"/>
			<path class="st0" d="M1304.7,3970.3c19.6,0,35.5,15.9,35.5,35.5c0,19.6-15.9,35.5-35.5,35.5c-19.6,0-35.5-15.9-35.5-35.5
				C1269.3,3986.2,1285.2,3970.3,1304.7,3970.3z"/>
			<path class="st0" d="M1174.2,3970.3c19.6,0,35.5,15.9,35.5,35.5c0,19.6-15.9,35.5-35.5,35.5c-19.6,0-35.5-15.9-35.5-35.5
				C1138.8,3986.2,1154.7,3970.3,1174.2,3970.3z"/>
			<path class="st0" d="M2180.3,3970.3c19.6,0,35.5,15.9,35.5,35.5c0,19.6-15.9,35.5-35.5,35.5s-35.5-15.9-35.5-35.5
				C2144.9,3986.2,2160.7,3970.3,2180.3,3970.3z"/>
			<path class="st0" d="M2049.8,3970.3c19.6,0,35.5,15.9,35.5,35.5c0,19.6-15.9,35.5-35.5,35.5c-19.6,0-35.5-15.9-35.5-35.5
				C2014.4,3986.2,2030.2,3970.3,2049.8,3970.3z"/>
			<path class="st0" d="M1929,3970.3c19.6,0,35.5,15.9,35.5,35.5c0,19.6-15.9,35.5-35.5,35.5c-19.6,0-35.5-15.9-35.5-35.5
				C1893.5,3986.2,1909.4,3970.3,1929,3970.3z"/>
			<path class="st0" d="M1798.5,3970.3c19.6,0,35.5,15.9,35.5,35.5c0,19.6-15.9,35.5-35.5,35.5c-19.6,0-35.5-15.9-35.5-35.5
				C1763,3986.2,1778.9,3970.3,1798.5,3970.3z"/>
			<path class="st0" d="M1678.5,3970.3c19.6,0,35.5,15.9,35.5,35.5c0,19.6-15.9,35.5-35.5,35.5c-19.6,0-35.5-15.9-35.5-35.5
				C1643,3986.2,1658.9,3970.3,1678.5,3970.3z"/>
			<path class="st0" d="M2810.8,3970.4c19.6,0,35.5,15.9,35.5,35.5s-15.9,35.5-35.5,35.5c-19.6,0-35.5-15.9-35.5-35.5
				C2775.4,3986.2,2791.3,3970.4,2810.8,3970.4z"/>
		</g>
		<g>
			<path class="st0" d="M3317.4,4097.3c19.6,0,35.5,15.9,35.5,35.5s-15.9,35.5-35.5,35.5c-19.6,0-35.5-15.9-35.5-35.5
				S3297.8,4097.3,3317.4,4097.3z"/>
			<path class="st0" d="M3066,4097.3c19.6,0,35.5,15.9,35.5,35.5s-15.9,35.5-35.5,35.5c-19.6,0-35.5-15.9-35.5-35.5
				C3030.6,4113.2,3046.5,4097.3,3066,4097.3z"/>
			<path class="st0" d="M3181.2,4099.5c19.6,0,35.5,15.9,35.5,35.5c0,19.6-15.9,35.5-35.5,35.5s-35.4-15.9-35.4-35.5
				C3145.8,4115.4,3161.7,4099.5,3181.2,4099.5z"/>
			<path class="st0" d="M2935.5,4097.3c19.6,0,35.5,15.9,35.5,35.5s-15.9,35.5-35.5,35.5c-19.6,0-35.4-15.9-35.4-35.5
				S2916,4097.3,2935.5,4097.3z"/>
			<path class="st0" d="M3811.1,4097.3c19.6,0,35.4,15.9,35.4,35.5s-15.9,35.5-35.4,35.5c-19.6,0-35.5-15.9-35.5-35.5
				S3791.6,4097.3,3811.1,4097.3z"/>
			<path class="st0" d="M3690.3,4097.3c19.6,0,35.5,15.9,35.5,35.5s-15.9,35.5-35.5,35.5s-35.5-15.9-35.5-35.5
				C3654.8,4113.2,3670.7,4097.3,3690.3,4097.3z"/>
			<path class="st0" d="M3559.8,4097.3c19.6,0,35.4,15.9,35.4,35.5s-15.9,35.5-35.4,35.5s-35.5-15.9-35.5-35.5
				C3524.3,4113.2,3540.2,4097.3,3559.8,4097.3z"/>
			<path class="st0" d="M3439.8,4097.3c19.6,0,35.5,15.9,35.5,35.5s-15.9,35.5-35.5,35.5s-35.5-15.9-35.5-35.5
				S3420.2,4097.3,3439.8,4097.3z"/>
			<path class="st0" d="M4075.6,4170.4c19.6,0,35.5-15.9,35.5-35.5c0-19.6-15.9-35.5-35.5-35.5c-19.6,0-35.5,15.9-35.5,35.5
				C4040.2,4154.6,4056,4170.4,4075.6,4170.4z"/>
			<path class="st0" d="M3951.2,4170.4c19.6,0,35.5-15.9,35.5-35.5c0-19.6-15.9-35.5-35.5-35.5s-35.5,15.9-35.5,35.5
				C3915.8,4154.6,3931.6,4170.4,3951.2,4170.4z"/>
			<path class="st0" d="M4318,4170.4c19.6,0,35.5-15.9,35.5-35.5c0-19.6-15.9-35.5-35.5-35.5s-35.5,15.9-35.5,35.5
				C4282.5,4154.6,4298.4,4170.4,4318,4170.4z"/>
			<path class="st0" d="M4198,4170.4c19.6,0,35.4-15.9,35.4-35.5c0-19.6-15.9-35.5-35.4-35.5c-19.6,0-35.5,15.9-35.5,35.5
				C4162.6,4154.6,4178.4,4170.4,4198,4170.4z"/>
			<path class="st0" d="M1556.1,4097.3c19.6,0,35.5,15.9,35.5,35.5s-15.9,35.5-35.5,35.5c-19.6,0-35.5-15.9-35.5-35.5
				S1536.5,4097.3,1556.1,4097.3z"/>
			<path class="st0" d="M1425.6,4097.3c19.6,0,35.5,15.9,35.5,35.5s-15.9,35.5-35.5,35.5s-35.5-15.9-35.5-35.5
				C1390.1,4113.2,1406,4097.3,1425.6,4097.3z"/>
			<path class="st0" d="M1304.7,4097.3c19.6,0,35.5,15.9,35.5,35.5s-15.9,35.5-35.5,35.5c-19.6,0-35.5-15.9-35.5-35.5
				C1269.3,4113.2,1285.2,4097.3,1304.7,4097.3z"/>
			<path class="st0" d="M1174.2,4097.3c19.6,0,35.5,15.9,35.5,35.5s-15.9,35.5-35.5,35.5c-19.6,0-35.5-15.9-35.5-35.5
				S1154.7,4097.3,1174.2,4097.3z"/>
			<path class="st0" d="M2180.3,4097.3c19.6,0,35.5,15.9,35.5,35.5s-15.9,35.5-35.5,35.5s-35.5-15.9-35.5-35.5
				C2144.9,4113.2,2160.7,4097.3,2180.3,4097.3z"/>
			<path class="st0" d="M2049.8,4097.3c19.6,0,35.5,15.9,35.5,35.5s-15.9,35.5-35.5,35.5c-19.6,0-35.5-15.9-35.5-35.5
				S2030.2,4097.3,2049.8,4097.3z"/>
			<path class="st0" d="M1929,4097.3c19.6,0,35.5,15.9,35.5,35.5s-15.9,35.5-35.5,35.5c-19.6,0-35.5-15.9-35.5-35.5
				S1909.4,4097.3,1929,4097.3z"/>
			<path class="st0" d="M1798.5,4097.3c19.6,0,35.5,15.9,35.5,35.5s-15.9,35.5-35.5,35.5c-19.6,0-35.5-15.9-35.5-35.5
				C1763,4113.2,1778.9,4097.3,1798.5,4097.3z"/>
			<path class="st0" d="M1678.5,4097.3c19.6,0,35.5,15.9,35.5,35.5s-15.9,35.5-35.5,35.5c-19.6,0-35.5-15.9-35.5-35.5
				S1658.9,4097.3,1678.5,4097.3z"/>
			<path class="st0" d="M2307.9,4097.3c19.6,0,35.4,15.9,35.4,35.5s-15.9,35.5-35.4,35.5c-19.6,0-35.5-15.9-35.5-35.5
				S2288.3,4097.3,2307.9,4097.3z"/>
			<path class="st0" d="M2810.8,4097.3c19.6,0,35.5,15.9,35.5,35.5s-15.9,35.5-35.5,35.5c-19.6,0-35.5-15.9-35.5-35.5
				C2775.4,4113.2,2791.3,4097.3,2810.8,4097.3z"/>
			<path class="st0" d="M2680.3,4097.3c19.6,0,35.5,15.9,35.5,35.5s-15.9,35.5-35.5,35.5c-19.6,0-35.5-15.9-35.5-35.5
				S2660.7,4097.3,2680.3,4097.3z"/>
			<path class="st0" d="M2559.5,4097.3c19.6,0,35.5,15.9,35.5,35.5s-15.9,35.5-35.5,35.5c-19.6,0-35.5-15.9-35.5-35.5
				S2539.9,4097.3,2559.5,4097.3z"/>
			<path class="st0" d="M2429,4097.3c19.6,0,35.4,15.9,35.4,35.5s-15.9,35.5-35.4,35.5s-35.5-15.9-35.5-35.5
				C2393.5,4113.2,2409.4,4097.3,2429,4097.3z"/>
		</g>
	</g>
</g>
<image style="display:none;overflow:visible;" width="3000" height="2400" xlink:href="../Mockup/laptop-mockup-ujian.png"  transform="matrix(1.2141 0 0 1.2141 361.2292 742.0749)">
</image>
</svg>
