<?xml version="1.0" encoding="utf-8"?>
<!-- Generator: Adobe Illustrator 23.1.0, SVG Export Plug-In . SVG Version: 6.00 Build 0)  -->
<svg version="1.1" id="Layer_1" xmlns="http://www.w3.org/2000/svg" xmlns:xlink="http://www.w3.org/1999/xlink" x="0px" y="0px"
	 viewBox="0 0 2372 1610.1" style="enable-background:new 0 0 2372 1610.1;" xml:space="preserve">
<style type="text/css">
	.st0{fill:#327598;}
	.st1{fill:#EEA143;}
	.st2{fill:#56A4D0;}
	.st3{fill:#EFE043;}
</style>
<g>
	<path class="st0" d="M1299.3,1341.7l268.2,0l0,268.4l-268.2,0L1299.3,1341.7z"/>
	<path class="st1" d="M2103.9,805l268.2,0v268.4h-268.2L2103.9,805z"/>
	<path class="st0" d="M1835.7,805l268.2,0v268.4l-268.2,0V805z"/>
	<path class="st2" d="M1969.4,805h135.1v135.2l-135.1,0L1969.4,805z"/>
	<path class="st2" d="M1835.7,938.1l135.1,0l0,135.2h-135.1V938.1z"/>
	<path class="st0" d="M0,1610.1l268.2,0l0-268.4C120.1,1341.7,0,1461.9,0,1610.1z"/>
	<path class="st0" d="M2372,1341.7h-268.2v-268.4C2252,1073.3,2372,1193.5,2372,1341.7z"/>
	<path class="st0" d="M2372-0.1v94.6c-95.9,0-173.6,77.8-173.6,173.8l-94.6,0C2103.8,120,2223.9-0.1,2372-0.1z"/>
	<g>
		<path class="st1" d="M1031.1,1338.5c-148.1,0-268.2,120.1-268.2,268.4l0-268.4L1031.1,1338.5z"/>
		<path class="st1" d="M1031.1,1436.4l0,173.8l-173.6,0C857.5,1514.2,935.2,1436.4,1031.1,1436.4z"/>
	</g>
	<path class="st3" d="M2165.9,1073.3h-62c0-148.2,120.1-268.4,268.2-268.4v66.2C2270,892.6,2189.2,972,2165.9,1073.3z"/>
	<path class="st3" d="M1299.3,1073.3l268.2,0l0,268.4l-268.2,0L1299.3,1073.3z"/>
	<path class="st3" d="M1836.3,536.6l268.2,0V805l-268.2,0L1836.3,536.6z"/>
	<path class="st1" d="M1299.3,1135.4v-62c148.1,0,268.2,120.2,268.2,268.4h-66.2C1480,1239.6,1400.6,1158.8,1299.3,1135.4z"/>
	<path class="st0" d="M1567.5,1073.3l268.2,0l0,268.4C1687.6,1341.7,1567.5,1221.6,1567.5,1073.3z"/>
	<path class="st2" d="M1354.9,1397.4l156.9,0v157l-156.9,0V1397.4z"/>
	<path class="st0" d="M2103.8,268.2l268.2,0l0,268.4l-268.2,0V268.2z"/>
	<path class="st2" d="M2159.5,323.9l156.9,0l0,157l-156.9,0V323.9z"/>
	<g>
		<path class="st2" d="M2367.9,1341.7h4.1v6.9C2372,1345.6,2370.4,1343,2367.9,1341.7z"/>
		<path class="st2" d="M2107.7,1341.7c-1.9,1.4-3.1,3.7-3.1,6.2v0.7c0,69.4,56.2,125.7,125.6,125.7h-0.7
			c-69.4,0-125.6,56.3-125.6,125.7c0,4.3,3.5,7.8,7.8,7.8h0.7c69.3,0,125.6-56.3,125.6-125.7c0-4.3-3.5-7.8-7.8-7.8
			c4.3,0,7.8-3.5,7.8-7.8v-0.7c0-62.6-45.7-114.5-105.6-124.1h215.9c-62.2,7.5-110.3,60.5-110.3,124.7c0,4.3,3.5,7.8,7.8,7.8h0.7
			c69.3,0,125.6-56.3,125.6-125.7l0,261.5l-268.2,0l0-268.4H2107.7z M2238,1482.8c0,69.4,56.2,125.7,125.6,125.7
			c4.3,0,7.8-3.5,7.8-7.8v-0.7c0-69.4-56.2-125.7-125.6-125.7c-4.3,0-7.8,3.5-7.8,7.8V1482.8z"/>
	</g>
	<g>
		<path class="st2" d="M1027,1073.3h4.1v6.9C1031.1,1077.2,1029.5,1074.6,1027,1073.3z"/>
		<path class="st2" d="M766.7,1073.3c-1.9,1.4-3.1,3.7-3.1,6.2v0.7c0,69.4,56.2,125.7,125.6,125.7h-0.7
			c-69.4,0-125.6,56.3-125.6,125.7c0,4.3,3.5,7.8,7.8,7.8h0.7c69.3,0,125.6-56.3,125.6-125.7c0-4.3-3.5-7.8-7.8-7.8
			c4.3,0,7.8-3.5,7.8-7.8v-0.7c0-62.6-45.7-114.5-105.6-124.1l215.9,0c-62.2,7.5-110.3,60.5-110.3,124.7c0,4.3,3.5,7.8,7.8,7.8h0.7
			c69.3,0,125.6-56.3,125.6-125.7v261.5l-268.2,0l0-268.4H766.7z M897,1214.4c0,69.4,56.2,125.7,125.6,125.7c4.3,0,7.8-3.5,7.8-7.8
			v-0.7c0-69.4-56.2-125.7-125.6-125.7c-4.3,0-7.8,3.5-7.8,7.8V1214.4z"/>
	</g>
	<path class="st1" d="M493.6,1478.9c1.5-1.5,1.5-4,0-5.5l-0.2-0.2c-24.4-24.4-64-24.4-88.4,0c-1.5,1.5-1.5,4,0,5.5l0.2,0.2
		C429.7,1503.3,469.2,1503.3,493.6,1478.9z"/>
	<path class="st1" d="M399.5,1478.6c1.5-1.5,1.5-4,0-5.5l-0.2-0.2c-24.4-24.4-64-24.4-88.4,0c-1.5,1.5-1.5,4,0,5.5l0.2,0.2
		C335.6,1503.1,375.1,1503.1,399.5,1478.6z"/>
	<path class="st1" d="M405.3,1384.5c-1.5-1.5-4-1.5-5.5,0l-0.2,0.2c-24.4,24.4-24.4,64,0,88.4c1.5,1.5,4,1.5,5.5,0l0.2-0.2
		C429.7,1448.5,429.7,1408.9,405.3,1384.5z"/>
	<path class="st1" d="M405,1478.6c-1.5-1.5-4-1.5-5.5,0l-0.2,0.2c-24.4,24.4-24.4,64,0,88.4c1.5,1.5,4,1.5,5.5,0l0.2-0.2
		C429.4,1542.6,429.4,1503.1,405,1478.6z"/>
	<g>
		<path class="st0" d="M1835.7,1610.1h268.2v-268.4"/>
		<path class="st1" d="M2103.9,1341.7l-268.2,0l0,268.4"/>
	</g>
	<path class="st2" d="M1835.3,1074.4l0-268.4l-268.2,0"/>
	<path class="st1" d="M1567.1,806l0,268.4l268.2,0"/>
	<path class="st1" d="M2103.9,536.6l-268.2,0l0,268.4"/>
	<g>
		<path class="st2" d="M1567.5,1610.1v-137.4h65c-0.9,18.8,5.9,37.9,20.2,52.2c27,27.1,70.8,27.1,97.9,0
			c14.3-14.3,21.1-33.4,20.2-52.2h65v137.4H1567.5z"/>
		<path class="st3" d="M1835.7,1341.7v137.4h-65c0.9-18.8-5.9-37.9-20.2-52.2c-27-27.1-70.8-27.1-97.9,0
			c-14.3,14.3-21.1,33.4-20.2,52.2l-65,0l0-137.4L1835.7,1341.7z"/>
	</g>
	<path class="st1" d="M1969.8,1101.3l106.1,106.2l-106.1,106.2l-106.1-106.2L1969.8,1101.3z M1969.8,1246.2
		c21.3,0,38.6-17.3,38.6-38.7c0-21.4-17.3-38.7-38.6-38.7c-21.3,0-38.6,17.3-38.6,38.7C1931.1,1228.9,1948.4,1246.2,1969.8,1246.2z"
		/>
	<path class="st0" d="M1338.2,1034c-52.4-52.4-52.4-137.4,0-189.8c52.4-52.4,137.3-52.4,189.6,0c52.4,52.4,52.4,137.4,0,189.8
		C1475.5,1086.4,1390.6,1086.4,1338.2,1034z"/>
	<path class="st0" d="M1299.3,1341.7l0,268.4l-268.2,0v-268.4L1299.3,1341.7z M1084.5,1377.6c-8.4,0-15.2,6.8-15.2,15.2
		c0,8.4,6.8,15.2,15.2,15.2c8.4,0,15.2-6.8,15.2-15.2C1099.7,1384.4,1092.9,1377.6,1084.5,1377.6z M1084.5,1433.5
		c-8.4,0-15.2,6.8-15.2,15.2c0,8.4,6.8,15.2,15.2,15.2c8.4,0,15.2-6.8,15.2-15.2C1099.7,1440.3,1092.9,1433.5,1084.5,1433.5z
		 M1140.3,1377.6c-8.4,0-15.2,6.8-15.2,15.2c0,8.4,6.8,15.2,15.2,15.2c8.4,0,15.2-6.8,15.2-15.2
		C1155.5,1384.4,1148.7,1377.6,1140.3,1377.6z M1140.3,1433.5c-8.4,0-15.2,6.8-15.2,15.2c0,8.4,6.8,15.2,15.2,15.2
		c8.4,0,15.2-6.8,15.2-15.2C1155.5,1440.3,1148.7,1433.5,1140.3,1433.5z M1232.9,1562.7c1.3,8.3,9.1,13.9,17.4,12.5
		c8.3-1.3,13.9-9.1,12.5-17.4c-1.3-8.3-9.1-13.9-17.4-12.5C1237.1,1546.7,1231.5,1554.5,1232.9,1562.7z M1247.8,1519.7
		c8.4,0,15.2-6.8,15.2-15.2c0-8.4-6.8-15.2-15.2-15.2c-8.4,0-15.2,6.8-15.2,15.2C1232.7,1512.9,1239.5,1519.7,1247.8,1519.7z
		 M1247.8,1463.8c8.4,0,15.2-6.8,15.2-15.2c0-8.4-6.8-15.2-15.2-15.2c-8.4,0-15.2,6.8-15.2,15.2
		C1232.7,1457,1239.5,1463.8,1247.8,1463.8z M1247.8,1408c8.4,0,15.2-6.8,15.2-15.2c0-8.4-6.8-15.2-15.2-15.2
		c-8.4,0-15.2,6.8-15.2,15.2C1232.7,1401.2,1239.5,1408,1247.8,1408z M1177.1,1562.3c1.1,8.3,8.7,14.2,17,13.1
		c8.3-1.1,14.1-8.7,13.1-17c-1.1-8.3-8.7-14.2-17-13.1C1181.8,1546.4,1176,1554,1177.1,1562.3z M1192,1519.7
		c8.4,0,15.2-6.8,15.2-15.2c0-8.4-6.8-15.2-15.2-15.2c-8.4,0-15.2,6.8-15.2,15.2C1176.9,1512.9,1183.7,1519.7,1192,1519.7z
		 M1192,1463.8c8.4,0,15.2-6.8,15.2-15.2c0-8.4-6.8-15.2-15.2-15.2c-8.4,0-15.2,6.8-15.2,15.2
		C1176.9,1457,1183.7,1463.8,1192,1463.8z M1192,1408c8.4,0,15.2-6.8,15.2-15.2c0-8.4-6.8-15.2-15.2-15.2c-8.4,0-15.2,6.8-15.2,15.2
		C1176.9,1401.2,1183.7,1408,1192,1408z M1140.3,1489.3c-8.4,0-15.2,6.8-15.2,15.2c0,8.4,6.8,15.2,15.2,15.2
		c8.4,0,15.2-6.8,15.2-15.2C1155.5,1496.1,1148.7,1489.3,1140.3,1489.3z M1125.3,1562.8c1.3,8.3,9.1,13.9,17.4,12.5
		c8.3-1.3,13.9-9.1,12.5-17.4c-1.3-8.3-9.1-13.9-17.4-12.5C1129.6,1546.7,1124,1554.5,1125.3,1562.8z M1084.5,1489.3
		c-8.4,0-15.2,6.8-15.2,15.2c0,8.4,6.8,15.2,15.2,15.2c8.4,0,15.2-6.8,15.2-15.2C1099.7,1496.1,1092.9,1489.3,1084.5,1489.3z
		 M1069.5,1562.8c1.3,8.3,9.1,13.9,17.4,12.5c8.3-1.3,13.9-9.1,12.5-17.4c-1.3-8.3-9.1-13.9-17.4-12.5
		C1073.8,1546.7,1068.2,1554.5,1069.5,1562.8z"/>
	<path class="st0" d="M2319.6,607.1c-8.4,0-15.2-6.8-15.2-15.2c0-8.4,6.8-15.2,15.2-15.2c8.4,0,15.2,6.8,15.2,15.2
		C2334.8,600.4,2328,607.1,2319.6,607.1z"/>
	<path class="st0" d="M2319.6,663c-8.4,0-15.2-6.8-15.2-15.2c0-8.4,6.8-15.2,15.2-15.2c8.4,0,15.2,6.8,15.2,15.2
		C2334.8,656.2,2328,663,2319.6,663z"/>
	<path class="st0" d="M2321.9,718.9c-7.1,0-12.9-6.8-12.9-15.2c0-8.4,5.8-15.2,12.9-15.2c7.1,0,12.9,6.8,12.9,15.2
		C2334.8,712.1,2329,718.9,2321.9,718.9z"/>
	<path class="st0" d="M2319.6,774.7c-8.4,0-15.2-6.8-15.2-15.2c0-8.4,6.8-15.2,15.2-15.2c8.4,0,15.2,6.8,15.2,15.2
		C2334.8,767.9,2328,774.7,2319.6,774.7z"/>
	<path class="st0" d="M2263.8,607.1c-8.4,0-15.2-6.8-15.2-15.2c0-8.4,6.8-15.2,15.2-15.2c8.4,0,15.2,6.8,15.2,15.2
		C2278.9,600.4,2272.2,607.1,2263.8,607.1z"/>
	<path class="st0" d="M2263.8,663c-8.4,0-15.2-6.8-15.2-15.2c0-8.4,6.8-15.2,15.2-15.2c8.4,0,15.2,6.8,15.2,15.2
		C2278.9,656.2,2272.2,663,2263.8,663z"/>
	<path class="st0" d="M2263.8,718.9c-8.4,0-15.2-6.8-15.2-15.2c0-8.4,6.8-15.2,15.2-15.2c8.4,0,15.2,6.8,15.2,15.2
		C2278.9,712.1,2272.2,718.9,2263.8,718.9z"/>
	<path class="st0" d="M2263.8,774.7c-8.4,0-15.2-6.8-15.2-15.2c0-8.4,6.8-15.2,15.2-15.2c8.4,0,15.2,6.8,15.2,15.2
		C2278.9,767.9,2272.2,774.7,2263.8,774.7z"/>
	<path class="st0" d="M2212.1,607.1c-8.4,0-15.2-6.8-15.2-15.2c0-8.4,6.8-15.2,15.2-15.2c8.4,0,15.2,6.8,15.2,15.2
		C2227.3,600.4,2220.5,607.1,2212.1,607.1z"/>
	<path class="st0" d="M2212.1,663c-8.4,0-15.2-6.8-15.2-15.2c0-8.4,6.8-15.2,15.2-15.2c8.4,0,15.2,6.8,15.2,15.2
		C2227.3,656.2,2220.5,663,2212.1,663z"/>
	<path class="st0" d="M2212.1,718.9c-8.4,0-15.2-6.8-15.2-15.2c0-8.4,6.8-15.2,15.2-15.2c8.4,0,15.2,6.8,15.2,15.2
		C2227.3,712.1,2220.5,718.9,2212.1,718.9z"/>
	<path class="st0" d="M2212.1,774.7c-8.4,0-15.2-6.8-15.2-15.2c0-8.4,6.8-15.2,15.2-15.2c8.4,0,15.2,6.8,15.2,15.2
		C2227.3,767.9,2220.5,774.7,2212.1,774.7z"/>
	<path class="st0" d="M2156.3,607.1c-8.4,0-15.2-6.8-15.2-15.2c0-8.4,6.8-15.2,15.2-15.2c8.4,0,15.2,6.8,15.2,15.2
		C2171.4,600.4,2164.7,607.1,2156.3,607.1z"/>
	<path class="st0" d="M2156.3,663c-8.4,0-15.2-6.8-15.2-15.2c0-8.4,6.8-15.2,15.2-15.2c8.4,0,15.2,6.8,15.2,15.2
		C2171.4,656.2,2164.7,663,2156.3,663z"/>
	<path class="st0" d="M2156.3,718.9c-8.4,0-15.2-6.8-15.2-15.2c0-8.4,6.8-15.2,15.2-15.2c8.4,0,15.2,6.8,15.2,15.2
		C2171.4,712.1,2164.7,718.9,2156.3,718.9z"/>
	<path class="st0" d="M2156.3,774.7c-8.4,0-15.2-6.8-15.2-15.2c0-8.4,6.8-15.2,15.2-15.2c8.4,0,15.2,6.8,15.2,15.2
		C2171.4,767.9,2164.7,774.7,2156.3,774.7z"/>
	<path class="st2" d="M2026.1,614l-113.5,0v113.5"/>
	<path class="st3" d="M494.8,1341.7h268.2l0,268.4l-268.2,0L494.8,1341.7z"/>
	<path class="st1" d="M762.3,1341.7H494.1l0,268.4"/>
	<path class="st2" d="M684.5,1419.1H571.1l0,113.5"/>
	<path class="st1" d="M1299.3,1073.3h-268.2l0,268.4"/>
	<path class="st2" d="M1221.6,1150.8h-113.5l0,113.5"/>
</g>
</svg>
