<?xml version="1.0" encoding="utf-8"?>
<!-- Generator: Adobe Illustrator 23.1.0, SVG Export Plug-In . SVG Version: 6.00 Build 0)  -->
<svg version="1.1" id="Layer_1" xmlns="http://www.w3.org/2000/svg" xmlns:xlink="http://www.w3.org/1999/xlink" x="0px" y="0px"
	 viewBox="0 0 2372 1610.1" style="enable-background:new 0 0 2372 1610.1;" xml:space="preserve">
<style type="text/css">
	.st0{fill:#327598;}
	.st1{fill:#EEA143;}
	.st2{fill:#56A4D0;}
	.st3{fill:#EFE043;}
</style>
<g>
	<path class="st0" d="M1072.7,1341.7H804.6V1610h268.2V1341.7z"/>
	<path class="st1" d="M268.2,805H0v268.3h268.2V805z"/>
	<path class="st0" d="M536.4,805H268.2v268.3h268.2V805z"/>
	<path class="st2" d="M402.7,805H267.5v135.2h135.1V805z"/>
	<path class="st2" d="M536.4,938.1H401.2v135.2h135.1V938.1z"/>
	<path class="st0" d="M2372,1610h-268.2v-268.3C2252,1341.7,2372,1461.8,2372,1610z"/>
	<path class="st0" d="M0,1341.7h268.2v-268.3C120.1,1073.3,0,1193.5,0,1341.7z"/>
	<path class="st0" d="M0,0v94.6c95.9,0,173.6,77.8,173.6,173.7h94.6C268.2,120.1,148.2,0,0,0z"/>
	<g>
		<path class="st1" d="M1340.9,1338.4c148.1,0,268.2,120.1,268.2,268.3v-268.3H1340.9z"/>
		<path class="st1" d="M1340.9,1436.3v173.7h173.6C1514.6,1514.1,1436.8,1436.3,1340.9,1436.3z"/>
	</g>
	<path class="st3" d="M206.2,1073.3h62C268.2,925.1,148.1,805,0,805v66.2C102.1,892.6,182.8,972,206.2,1073.3z"/>
	<path class="st3" d="M1072.7,1073.3H804.6v268.3h268.2V1073.3z"/>
	<path class="st3" d="M535.7,536.7H267.5V805h268.2V536.7z"/>
	<path class="st1" d="M1072.7,1135.4v-62c-148.1,0-268.2,120.1-268.2,268.3h66.2C892.1,1239.5,971.4,1158.7,1072.7,1135.4z"/>
	<path class="st0" d="M804.6,1073.3H536.4v268.3C684.5,1341.7,804.6,1221.5,804.6,1073.3z"/>
	<path class="st2" d="M1017.1,1397.3H860.2v157h156.9V1397.3z"/>
	<path class="st0" d="M268.2,268.3H0v268.3h268.2V268.3z"/>
	<path class="st2" d="M212.6,324H55.7v157h156.9V324z"/>
	<g>
		<path class="st2" d="M4.1,1341.7H0v6.9C0,1345.6,1.7,1343,4.1,1341.7z"/>
		<path class="st2" d="M264.4,1341.7c1.9,1.4,3.1,3.7,3.1,6.2v0.7c0,69.4-56.2,125.7-125.6,125.7h0.7c69.4,0,125.6,56.3,125.6,125.7
			c0,4.3-3.5,7.8-7.8,7.8h-0.7c-69.3,0-125.6-56.3-125.6-125.7c0-4.3,3.5-7.8,7.8-7.8c-4.3,0-7.8-3.5-7.8-7.8v-0.7
			c0-62.6,45.7-114.5,105.6-124.1H23.8c62.2,7.5,110.3,60.5,110.3,124.7c0,4.3-3.5,7.8-7.8,7.8h-0.7C56.2,1474.2,0,1418,0,1348.6
			V1610h268.2v-268.3H264.4z M134.1,1482.7c0,69.4-56.2,125.6-125.6,125.6c-4.3,0-7.8-3.5-7.8-7.8v-0.7
			c0-69.4,56.2-125.7,125.6-125.7c4.3,0,7.8,3.5,7.8,7.8V1482.7z"/>
	</g>
	<g>
		<path class="st2" d="M1345.1,1073.3h-4.1v6.9C1340.9,1077.2,1342.6,1074.6,1345.1,1073.3z"/>
		<path class="st2" d="M1605.3,1073.3c1.9,1.4,3.1,3.7,3.1,6.2v0.7c0,69.4-56.2,125.7-125.6,125.7h0.7
			c69.4,0,125.6,56.3,125.6,125.7c0,4.3-3.5,7.8-7.8,7.8h-0.7c-69.3,0-125.6-56.3-125.6-125.7c0-4.3,3.5-7.8,7.8-7.8
			c-4.3,0-7.8-3.5-7.8-7.8v-0.7c0-62.6,45.7-114.5,105.6-124.1h-215.9c62.2,7.5,110.3,60.5,110.3,124.7c0,4.3-3.5,7.8-7.8,7.8h-0.7
			c-69.3,0-125.6-56.2-125.6-125.6v261.4h268.2v-268.3H1605.3z M1475,1214.4c0,69.4-56.2,125.6-125.6,125.6c-4.3,0-7.8-3.5-7.8-7.8
			v-0.7c0-69.4,56.2-125.7,125.6-125.7c4.3,0,7.8,3.5,7.8,7.8V1214.4z"/>
	</g>
	<path class="st1" d="M1878.4,1478.8c-1.5-1.5-1.5-4,0-5.5l0.2-0.2c24.4-24.4,64-24.4,88.4,0c1.5,1.5,1.5,4,0,5.5l-0.2,0.2
		C1942.4,1503.2,1902.8,1503.2,1878.4,1478.8z"/>
	<path class="st1" d="M1972.5,1478.6c-1.5-1.5-1.5-4,0-5.5l0.2-0.2c24.4-24.4,64-24.4,88.4,0c1.5,1.5,1.5,4,0,5.5l-0.2,0.2
		C2036.5,1503,1996.9,1503,1972.5,1478.6z"/>
	<path class="st1" d="M1966.8,1384.4c1.5-1.5,4-1.5,5.5,0l0.2,0.2c24.4,24.4,24.4,64,0,88.4c-1.5,1.5-4,1.5-5.5,0l-0.2-0.2
		C1942.4,1448.4,1942.4,1408.8,1966.8,1384.4z"/>
	<path class="st1" d="M1967,1478.6c1.5-1.5,4-1.5,5.5,0l0.2,0.2c24.4,24.4,24.4,64,0,88.4c-1.5,1.5-4,1.5-5.5,0l-0.2-0.2
		C1942.6,1542.6,1942.6,1503,1967,1478.6z"/>
	<g>
		<path class="st0" d="M536.4,1610H268.2v-268.3"/>
		<path class="st1" d="M268.2,1341.7h268.2V1610"/>
	</g>
	<path class="st2" d="M536.8,1074.4V806h268.2"/>
	<path class="st1" d="M804.9,806v268.3H536.8"/>
	<path class="st1" d="M268.2,536.7h268.2V805"/>
	<g>
		<path class="st2" d="M804.6,1610v-137.4h-65c0.9,18.8-5.9,37.9-20.2,52.2c-27,27-70.8,27-97.9,0c-14.3-14.3-21.1-33.4-20.2-52.2
			h-65V1610H804.6z"/>
		<path class="st3" d="M536.4,1341.7v137.4h65c-0.9-18.8,5.9-37.9,20.2-52.2c27-27,70.8-27,97.9,0c14.3,14.3,21.1,33.4,20.2,52.2h65
			v-137.4H536.4z"/>
	</g>
	<path class="st1" d="M402.3,1101.3l-106.1,106.2l106.1,106.2l106.1-106.2L402.3,1101.3z M402.3,1246.1c-21.3,0-38.6-17.3-38.6-38.7
		s17.3-38.7,38.6-38.7c21.3,0,38.6,17.3,38.6,38.7S423.6,1246.1,402.3,1246.1z"/>
	<path class="st0" d="M1033.8,1034c52.4-52.4,52.4-137.3,0-189.7c-52.4-52.4-137.3-52.4-189.6,0c-52.4,52.4-52.4,137.3,0,189.7
		C896.6,1086.4,981.5,1086.4,1033.8,1034z"/>
	<path class="st0" d="M1072.7,1341.7V1610h268.2v-268.3H1072.7z M1287.5,1377.6c8.4,0,15.2,6.8,15.2,15.2c0,8.4-6.8,15.2-15.2,15.2
		c-8.4,0-15.2-6.8-15.2-15.2C1272.4,1384.4,1279.2,1377.6,1287.5,1377.6z M1287.5,1433.4c8.4,0,15.2,6.8,15.2,15.2
		c0,8.4-6.8,15.2-15.2,15.2c-8.4,0-15.2-6.8-15.2-15.2C1272.4,1440.2,1279.2,1433.4,1287.5,1433.4z M1231.7,1377.6
		c8.4,0,15.2,6.8,15.2,15.2c0,8.4-6.8,15.2-15.2,15.2c-8.4,0-15.2-6.8-15.2-15.2C1216.6,1384.4,1223.3,1377.6,1231.7,1377.6z
		 M1231.7,1433.4c8.4,0,15.2,6.8,15.2,15.2c0,8.4-6.8,15.2-15.2,15.2c-8.4,0-15.2-6.8-15.2-15.2
		C1216.6,1440.2,1223.3,1433.4,1231.7,1433.4z M1139.2,1562.7c-1.3,8.3-9.1,13.9-17.4,12.5c-8.3-1.3-13.9-9.1-12.5-17.4
		c1.3-8.3,9.1-13.9,17.4-12.5C1134.9,1546.6,1140.5,1554.4,1139.2,1562.7z M1124.2,1519.6c-8.4,0-15.2-6.8-15.2-15.2
		c0-8.4,6.8-15.2,15.2-15.2c8.4,0,15.2,6.8,15.2,15.2C1139.4,1512.8,1132.6,1519.6,1124.2,1519.6z M1124.2,1463.8
		c-8.4,0-15.2-6.8-15.2-15.2c0-8.4,6.8-15.2,15.2-15.2c8.4,0,15.2,6.8,15.2,15.2C1139.4,1457,1132.6,1463.8,1124.2,1463.8z
		 M1124.2,1407.9c-8.4,0-15.2-6.8-15.2-15.2c0-8.4,6.8-15.2,15.2-15.2c8.4,0,15.2,6.8,15.2,15.2
		C1139.4,1401.1,1132.6,1407.9,1124.2,1407.9z M1195,1562.2c-1.1,8.3-8.7,14.2-17,13.1c-8.3-1.1-14.1-8.7-13.1-17s8.7-14.1,17-13.1
		C1190.2,1546.3,1196.1,1553.9,1195,1562.2z M1180,1519.6c-8.4,0-15.2-6.8-15.2-15.2c0-8.4,6.8-15.2,15.2-15.2
		c8.4,0,15.2,6.8,15.2,15.2C1195.2,1512.8,1188.4,1519.6,1180,1519.6z M1180,1463.8c-8.4,0-15.2-6.8-15.2-15.2
		c0-8.4,6.8-15.2,15.2-15.2c8.4,0,15.2,6.8,15.2,15.2C1195.2,1457,1188.4,1463.8,1180,1463.8z M1180,1407.9
		c-8.4,0-15.2-6.8-15.2-15.2c0-8.4,6.8-15.2,15.2-15.2c8.4,0,15.2,6.8,15.2,15.2C1195.2,1401.1,1188.4,1407.9,1180,1407.9z
		 M1231.7,1489.3c8.4,0,15.2,6.8,15.2,15.2c0,8.4-6.8,15.2-15.2,15.2c-8.4,0-15.2-6.8-15.2-15.2
		C1216.6,1496.1,1223.3,1489.3,1231.7,1489.3z M1246.7,1562.7c-1.3,8.3-9.1,13.9-17.4,12.5c-8.3-1.3-13.9-9.1-12.5-17.4
		c1.3-8.3,9.1-13.9,17.4-12.5C1242.4,1546.7,1248.1,1554.5,1246.7,1562.7z M1287.5,1489.3c8.4,0,15.2,6.8,15.2,15.2
		c0,8.4-6.8,15.2-15.2,15.2c-8.4,0-15.2-6.8-15.2-15.2C1272.4,1496.1,1279.2,1489.3,1287.5,1489.3z M1302.5,1562.7
		c-1.3,8.3-9.1,13.9-17.4,12.5c-8.3-1.3-13.9-9.1-12.5-17.4c1.3-8.3,9.1-13.9,17.4-12.5C1298.3,1546.7,1303.9,1554.5,1302.5,1562.7z
		"/>
	<path class="st0" d="M52.4,607.2c8.4,0,15.2-6.8,15.2-15.2c0-8.4-6.8-15.2-15.2-15.2c-8.4,0-15.2,6.8-15.2,15.2
		C37.3,600.4,44.1,607.2,52.4,607.2z"/>
	<path class="st0" d="M52.4,663.1c8.4,0,15.2-6.8,15.2-15.2c0-8.4-6.8-15.2-15.2-15.2c-8.4,0-15.2,6.8-15.2,15.2
		C37.3,656.3,44.1,663.1,52.4,663.1z"/>
	<path class="st0" d="M50.2,718.9c7.1,0,12.9-6.8,12.9-15.2c0-8.4-5.8-15.2-12.9-15.2c-7.1,0-12.9,6.8-12.9,15.2
		C37.3,712.1,43,718.9,50.2,718.9z"/>
	<path class="st0" d="M52.4,774.7c8.4,0,15.2-6.8,15.2-15.2c0-8.4-6.8-15.2-15.2-15.2c-8.4,0-15.2,6.8-15.2,15.2
		C37.3,768,44.1,774.7,52.4,774.7z"/>
	<path class="st0" d="M108.3,607.2c8.4,0,15.2-6.8,15.2-15.2c0-8.4-6.8-15.2-15.2-15.2s-15.2,6.8-15.2,15.2
		C93.1,600.4,99.9,607.2,108.3,607.2z"/>
	<path class="st0" d="M108.3,663.1c8.4,0,15.2-6.8,15.2-15.2c0-8.4-6.8-15.2-15.2-15.2s-15.2,6.8-15.2,15.2
		C93.1,656.3,99.9,663.1,108.3,663.1z"/>
	<path class="st0" d="M108.3,718.9c8.4,0,15.2-6.8,15.2-15.2c0-8.4-6.8-15.2-15.2-15.2s-15.2,6.8-15.2,15.2
		C93.1,712.1,99.9,718.9,108.3,718.9z"/>
	<path class="st0" d="M108.3,774.7c8.4,0,15.2-6.8,15.2-15.2c0-8.4-6.8-15.2-15.2-15.2s-15.2,6.8-15.2,15.2
		C93.1,768,99.9,774.7,108.3,774.7z"/>
	<path class="st0" d="M159.9,607.2c8.4,0,15.2-6.8,15.2-15.2c0-8.4-6.8-15.2-15.2-15.2c-8.4,0-15.2,6.8-15.2,15.2
		C144.8,600.4,151.6,607.2,159.9,607.2z"/>
	<path class="st0" d="M159.9,663.1c8.4,0,15.2-6.8,15.2-15.2c0-8.4-6.8-15.2-15.2-15.2c-8.4,0-15.2,6.8-15.2,15.2
		C144.8,656.3,151.6,663.1,159.9,663.1z"/>
	<path class="st0" d="M159.9,718.9c8.4,0,15.2-6.8,15.2-15.2c0-8.4-6.8-15.2-15.2-15.2c-8.4,0-15.2,6.8-15.2,15.2
		C144.8,712.1,151.6,718.9,159.9,718.9z"/>
	<path class="st0" d="M159.9,774.7c8.4,0,15.2-6.8,15.2-15.2c0-8.4-6.8-15.2-15.2-15.2c-8.4,0-15.2,6.8-15.2,15.2
		C144.8,768,151.6,774.7,159.9,774.7z"/>
	<path class="st0" d="M215.8,607.2c8.4,0,15.2-6.8,15.2-15.2c0-8.4-6.8-15.2-15.2-15.2c-8.4,0-15.2,6.8-15.2,15.2
		C200.6,600.4,207.4,607.2,215.8,607.2z"/>
	<path class="st0" d="M215.8,663.1c8.4,0,15.2-6.8,15.2-15.2c0-8.4-6.8-15.2-15.2-15.2c-8.4,0-15.2,6.8-15.2,15.2
		C200.6,656.3,207.4,663.1,215.8,663.1z"/>
	<path class="st0" d="M215.8,718.9c8.4,0,15.2-6.8,15.2-15.2c0-8.4-6.8-15.2-15.2-15.2c-8.4,0-15.2,6.8-15.2,15.2
		C200.6,712.1,207.4,718.9,215.8,718.9z"/>
	<path class="st0" d="M215.8,774.7c8.4,0,15.2-6.8,15.2-15.2c0-8.4-6.8-15.2-15.2-15.2c-8.4,0-15.2,6.8-15.2,15.2
		C200.6,768,207.4,774.7,215.8,774.7z"/>
	<path class="st2" d="M345.9,614.1h113.5v113.5"/>
	<path class="st3" d="M1877.3,1341.7h-268.2V1610h268.2V1341.7z"/>
	<path class="st1" d="M1609.8,1341.7h268.2V1610"/>
	<path class="st2" d="M1687.5,1419.1H1801v113.5"/>
	<path class="st1" d="M1072.7,1073.3h268.2v268.3"/>
	<path class="st2" d="M1150.5,1150.7H1264v113.5"/>
</g>
</svg>
