<?xml version="1.0" encoding="utf-8"?>
<!-- Generator: Adobe Illustrator 23.1.0, SVG Export Plug-In . SVG Version: 6.00 Build 0)  -->
<svg version="1.1" id="Layer_1" xmlns="http://www.w3.org/2000/svg" xmlns:xlink="http://www.w3.org/1999/xlink" x="0px" y="0px"
	 viewBox="0 0 6900.1 1610.1" style="enable-background:new 0 0 6900.1 1610.1;" xml:space="preserve">
<style type="text/css">
	.st0{fill:#327598;}
	.st1{fill:#EEA143;}
	.st2{fill:#56A4D0;}
	.st3{fill:#EFE043;}
	.st4{fill:#FFFFFF;}
</style>
<g>
	<g>
		<path class="st0" d="M1074.1,1341.7H805.6V1610h268.5V1341.7z"/>
		<path class="st0" d="M1342.6,1341.7h-268.5V1610h268.5V1341.7z"/>
		<path class="st1" d="M268.5,805H0v268.3h268.5V805z"/>
		<path class="st0" d="M537,805H268.5v268.3H537V805z"/>
		<path class="st2" d="M403.2,805H267.9v135.2h135.3V805z"/>
		<path class="st2" d="M537,938.1H401.7v135.2H537V938.1z"/>
		<path class="st0" d="M2375,1610h-268.5v-268.3C2254.8,1341.7,2375,1461.8,2375,1610z"/>
		<path class="st0" d="M0,1341.7h268.5v-268.3C120.2,1073.3,0,1193.5,0,1341.7z"/>
		<path class="st0" d="M0,0v94.6c96,0,173.8,77.8,173.8,173.7h94.8C268.6,120.1,148.3,0,0,0z"/>
		<g>
			<path class="st1" d="M1342.6,1338.4c148.3,0,268.5,120.1,268.5,268.3v-268.3H1342.6z"/>
			<path class="st1" d="M1342.6,1436.3v173.7h173.9C1516.4,1514.1,1438.6,1436.3,1342.6,1436.3z"/>
		</g>
		<path class="st3" d="M206.4,1073.3h62.1C268.5,925.1,148.3,805,0,805v66.2C102.2,892.6,183,972,206.4,1073.3z"/>
		<path class="st3" d="M1074.1,1073.3H805.6v268.3h268.5V1073.3z"/>
		<path class="st3" d="M536.4,536.7H267.9V805h268.5V536.7z"/>
		<path class="st1" d="M1074.1,1135.4v-62c-148.3,0-268.5,120.1-268.5,268.3h66.3C893.2,1239.5,972.6,1158.7,1074.1,1135.4z"/>
		<path class="st0" d="M805.6,1073.3H537v268.3C685.3,1341.7,805.6,1221.5,805.6,1073.3z"/>
		<path class="st2" d="M1018.4,1397.3H861.3v157h157.1V1397.3z"/>
		<path class="st0" d="M268.6,268.3H0v268.3h268.5V268.3z"/>
		<path class="st2" d="M212.9,324H55.7v157h157.1V324z"/>
		<g>
			<path class="st2" d="M4.1,1341.7H0v6.9C0,1345.6,1.7,1343,4.1,1341.7z"/>
			<path class="st2" d="M264.7,1341.7c1.9,1.4,3.1,3.7,3.1,6.2v0.7c0,69.4-56.3,125.7-125.7,125.7h0.7
				c69.4,0,125.7,56.3,125.7,125.7c0,4.3-3.5,7.8-7.8,7.8H260c-69.4,0-125.7-56.3-125.7-125.7c0-4.3,3.5-7.8,7.8-7.8
				c-4.3,0-7.8-3.5-7.8-7.8v-0.7c0-62.6,45.8-114.5,105.7-124.1H23.8c62.2,7.5,110.4,60.5,110.4,124.7c0,4.3-3.5,7.8-7.8,7.8h-0.7
				C56.3,1474.2,0,1418,0,1348.6V1610h268.5v-268.3H264.7z M134.3,1482.7c0,69.4-56.3,125.6-125.7,125.6c-4.3,0-7.8-3.5-7.8-7.8
				v-0.7c0-69.4,56.3-125.7,125.7-125.7c4.3,0,7.8,3.5,7.8,7.8V1482.7z"/>
		</g>
		<g>
			<path class="st2" d="M1346.7,1073.3h-4.1v6.9C1342.6,1077.2,1344.3,1074.6,1346.7,1073.3z"/>
			<path class="st2" d="M1607.3,1073.3c1.9,1.4,3.1,3.7,3.1,6.2v0.7c0,69.4-56.3,125.7-125.7,125.7h0.7
				c69.4,0,125.7,56.3,125.7,125.7c0,4.3-3.5,7.8-7.8,7.8h-0.7c-69.4,0-125.7-56.3-125.7-125.7c0-4.3,3.5-7.8,7.8-7.8
				c-4.3,0-7.8-3.5-7.8-7.8v-0.7c0-62.6,45.8-114.5,105.7-124.1h-216.2c62.2,7.5,110.4,60.5,110.4,124.7c0,4.3-3.5,7.8-7.8,7.8h-0.7
				c-69.4,0-125.7-56.2-125.7-125.6v261.4h268.5v-268.3H1607.3z M1476.8,1214.4c0,69.4-56.3,125.6-125.7,125.6
				c-4.3,0-7.8-3.5-7.8-7.8v-0.7c0-69.4,56.3-125.7,125.7-125.7c4.3,0,7.8,3.5,7.8,7.8V1214.4z"/>
		</g>
		<path class="st1" d="M1880.8,1478.8c-1.5-1.5-1.5-4,0-5.5l0.2-0.2c24.4-24.4,64-24.4,88.5,0c1.5,1.5,1.5,4,0,5.5l-0.2,0.2
			C1944.8,1503.2,1905.2,1503.2,1880.8,1478.8z"/>
		<path class="st1" d="M1975,1478.6c-1.5-1.5-1.5-4,0-5.5l0.2-0.2c24.4-24.4,64-24.4,88.5,0c1.5,1.5,1.5,4,0,5.5l-0.2,0.2
			C2039,1503,1999.4,1503,1975,1478.6z"/>
		<path class="st1" d="M1969.2,1384.4c1.5-1.5,4-1.5,5.5,0l0.2,0.2c24.4,24.4,24.4,64,0,88.4c-1.5,1.5-4,1.5-5.5,0l-0.2-0.2
			C1944.8,1448.4,1944.8,1408.8,1969.2,1384.4z"/>
		<path class="st1" d="M1969.5,1478.6c1.5-1.5,4-1.5,5.5,0l0.2,0.2c24.4,24.4,24.4,64,0,88.4c-1.5,1.5-4,1.5-5.5,0l-0.2-0.2
			C1945,1542.6,1945,1503,1969.5,1478.6z"/>
		<g>
			<path class="st0" d="M537,1610H268.5v-268.3"/>
			<path class="st1" d="M268.5,1341.7H537V1610"/>
		</g>
		<path class="st2" d="M537.4,1074.4V806h268.5"/>
		<path class="st1" d="M805.9,806v268.3H537.4"/>
		<path class="st1" d="M268.5,536.7H537V805"/>
		<g>
			<path class="st2" d="M805.6,1610v-137.4h-65c0.9,18.8-5.9,37.9-20.2,52.2c-27.1,27-70.9,27-98,0c-14.4-14.3-21.1-33.4-20.2-52.2
				H537V1610H805.6z"/>
			<path class="st3" d="M537,1341.7v137.4h65c-0.9-18.8,5.9-37.9,20.2-52.2c27.1-27,70.9-27,98,0c14.4,14.3,21.1,33.4,20.2,52.2
				h65.1v-137.4H537z"/>
		</g>
		<path class="st1" d="M402.8,1101.3l-106.3,106.2l106.3,106.2l106.3-106.2L402.8,1101.3z M402.8,1246.1
			c-21.4,0-38.7-17.3-38.7-38.7s17.3-38.7,38.7-38.7c21.4,0,38.7,17.3,38.7,38.7S424.2,1246.1,402.8,1246.1z"/>
		<path class="st0" d="M1035.1,1034c52.4-52.4,52.4-137.3,0-189.7c-52.4-52.4-137.4-52.4-189.9,0c-52.4,52.4-52.4,137.3,0,189.7
			C897.7,1086.4,982.7,1086.4,1035.1,1034z"/>
		<path class="st4" d="M1125.6,1407.9c8.4,0,15.2-6.8,15.2-15.2s-6.8-15.2-15.2-15.2c-8.4,0-15.2,6.8-15.2,15.2
			S1117.2,1407.9,1125.6,1407.9z"/>
		<path class="st4" d="M1125.6,1463.8c8.4,0,15.2-6.8,15.2-15.2s-6.8-15.2-15.2-15.2c-8.4,0-15.2,6.8-15.2,15.2
			S1117.2,1463.8,1125.6,1463.8z"/>
		<path class="st4" d="M1125.6,1519.6c8.4,0,15.2-6.8,15.2-15.2c0-8.4-6.8-15.2-15.2-15.2c-8.4,0-15.2,6.8-15.2,15.2
			C1110.4,1512.8,1117.2,1519.6,1125.6,1519.6z"/>
		<path class="st4" d="M1140.6,1562.7c1.3-8.3-4.3-16.1-12.5-17.4c-8.3-1.3-16.1,4.3-17.4,12.5c-1.3,8.3,4.3,16.1,12.5,17.4
			C1131.4,1576.5,1139.2,1570.9,1140.6,1562.7z"/>
		<path class="st4" d="M1181.5,1407.9c8.4,0,15.2-6.8,15.2-15.2s-6.8-15.2-15.2-15.2c-8.4,0-15.2,6.8-15.2,15.2
			S1173.1,1407.9,1181.5,1407.9z"/>
		<path class="st4" d="M1181.5,1463.8c8.4,0,15.2-6.8,15.2-15.2s-6.8-15.2-15.2-15.2c-8.4,0-15.2,6.8-15.2,15.2
			S1173.1,1463.8,1181.5,1463.8z"/>
		<path class="st4" d="M1181.5,1519.6c8.4,0,15.2-6.8,15.2-15.2c0-8.4-6.8-15.2-15.2-15.2c-8.4,0-15.2,6.8-15.2,15.2
			C1166.3,1512.8,1173.1,1519.6,1181.5,1519.6z"/>
		<path class="st4" d="M1196.5,1562.2c1.1-8.3-4.8-15.9-13.1-17c-8.3-1.1-15.9,4.8-17,13.1c-1.1,8.3,4.8,15.9,13.1,17
			C1187.8,1576.4,1195.4,1570.6,1196.5,1562.2z"/>
		<path class="st4" d="M1233.2,1407.9c8.4,0,15.2-6.8,15.2-15.2s-6.8-15.2-15.2-15.2c-8.4,0-15.2,6.8-15.2,15.2
			S1224.9,1407.9,1233.2,1407.9z"/>
		<path class="st4" d="M1233.2,1463.8c8.4,0,15.2-6.8,15.2-15.2s-6.8-15.2-15.2-15.2c-8.4,0-15.2,6.8-15.2,15.2
			S1224.9,1463.8,1233.2,1463.8z"/>
		<path class="st4" d="M1233.2,1519.6c8.4,0,15.2-6.8,15.2-15.2c0-8.4-6.8-15.2-15.2-15.2c-8.4,0-15.2,6.8-15.2,15.2
			C1218.1,1512.8,1224.9,1519.6,1233.2,1519.6z"/>
		<path class="st4" d="M1248.3,1562.7c1.3-8.3-4.3-16.1-12.6-17.4c-8.3-1.3-16.1,4.3-17.4,12.5c-1.3,8.3,4.3,16.1,12.5,17.4
			C1239.1,1576.6,1246.9,1571,1248.3,1562.7z"/>
		<path class="st4" d="M1289.1,1407.9c8.4,0,15.2-6.8,15.2-15.2s-6.8-15.2-15.2-15.2c-8.4,0-15.2,6.8-15.2,15.2
			S1280.8,1407.9,1289.1,1407.9z"/>
		<path class="st4" d="M1289.1,1463.8c8.4,0,15.2-6.8,15.2-15.2s-6.8-15.2-15.2-15.2c-8.4,0-15.2,6.8-15.2,15.2
			S1280.8,1463.8,1289.1,1463.8z"/>
		<path class="st4" d="M1289.1,1519.6c8.4,0,15.2-6.8,15.2-15.2c0-8.4-6.8-15.2-15.2-15.2c-8.4,0-15.2,6.8-15.2,15.2
			C1274,1512.8,1280.8,1519.6,1289.1,1519.6z"/>
		<path class="st4" d="M1304.2,1562.7c1.3-8.3-4.3-16.1-12.6-17.4c-8.3-1.3-16.1,4.3-17.4,12.5c-1.3,8.3,4.3,16,12.6,17.4
			C1295,1576.6,1302.8,1571,1304.2,1562.7z"/>
		<path class="st0" d="M52.5,607.2c8.4,0,15.2-6.8,15.2-15.2c0-8.4-6.8-15.2-15.2-15.2c-8.4,0-15.2,6.8-15.2,15.2
			C37.3,600.4,44.1,607.2,52.5,607.2z"/>
		<path class="st0" d="M52.5,663.1c8.4,0,15.2-6.8,15.2-15.2c0-8.4-6.8-15.2-15.2-15.2c-8.4,0-15.2,6.8-15.2,15.2
			C37.3,656.3,44.1,663.1,52.5,663.1z"/>
		<path class="st0" d="M50.2,718.9c7.1,0,12.9-6.8,12.9-15.2c0-8.4-5.8-15.2-12.9-15.2c-7.1,0-12.9,6.8-12.9,15.2
			C37.3,712.1,43.1,718.9,50.2,718.9z"/>
		<path class="st0" d="M52.5,774.7c8.4,0,15.2-6.8,15.2-15.2c0-8.4-6.8-15.2-15.2-15.2c-8.4,0-15.2,6.8-15.2,15.2
			C37.3,768,44.1,774.7,52.5,774.7z"/>
		<path class="st0" d="M108.4,607.2c8.4,0,15.2-6.8,15.2-15.2c0-8.4-6.8-15.2-15.2-15.2s-15.2,6.8-15.2,15.2
			C93.2,600.4,100,607.2,108.4,607.2z"/>
		<path class="st0" d="M108.4,663.1c8.4,0,15.2-6.8,15.2-15.2c0-8.4-6.8-15.2-15.2-15.2s-15.2,6.8-15.2,15.2
			C93.2,656.3,100,663.1,108.4,663.1z"/>
		<path class="st0" d="M108.4,718.9c8.4,0,15.2-6.8,15.2-15.2c0-8.4-6.8-15.2-15.2-15.2s-15.2,6.8-15.2,15.2
			C93.2,712.1,100,718.9,108.4,718.9z"/>
		<path class="st0" d="M108.4,774.7c8.4,0,15.2-6.8,15.2-15.2c0-8.4-6.8-15.2-15.2-15.2s-15.2,6.8-15.2,15.2
			C93.2,768,100,774.7,108.4,774.7z"/>
		<path class="st0" d="M160.1,607.2c8.4,0,15.2-6.8,15.2-15.2c0-8.4-6.8-15.2-15.2-15.2c-8.4,0-15.2,6.8-15.2,15.2
			C145,600.4,151.8,607.2,160.1,607.2z"/>
		<path class="st0" d="M160.1,663.1c8.4,0,15.2-6.8,15.2-15.2c0-8.4-6.8-15.2-15.2-15.2c-8.4,0-15.2,6.8-15.2,15.2
			C145,656.3,151.8,663.1,160.1,663.1z"/>
		<path class="st0" d="M160.1,718.9c8.4,0,15.2-6.8,15.2-15.2c0-8.4-6.8-15.2-15.2-15.2c-8.4,0-15.2,6.8-15.2,15.2
			C145,712.1,151.8,718.9,160.1,718.9z"/>
		<path class="st0" d="M160.1,774.7c8.4,0,15.2-6.8,15.2-15.2c0-8.4-6.8-15.2-15.2-15.2c-8.4,0-15.2,6.8-15.2,15.2
			C145,768,151.8,774.7,160.1,774.7z"/>
		<path class="st0" d="M216,607.2c8.4,0,15.2-6.8,15.2-15.2c0-8.4-6.8-15.2-15.2-15.2c-8.4,0-15.2,6.8-15.2,15.2
			C200.9,600.4,207.6,607.2,216,607.2z"/>
		<path class="st0" d="M216,663.1c8.4,0,15.2-6.8,15.2-15.2c0-8.4-6.8-15.2-15.2-15.2c-8.4,0-15.2,6.8-15.2,15.2
			C200.9,656.3,207.6,663.1,216,663.1z"/>
		<path class="st0" d="M216,718.9c8.4,0,15.2-6.8,15.2-15.2c0-8.4-6.8-15.2-15.2-15.2c-8.4,0-15.2,6.8-15.2,15.2
			C200.9,712.1,207.6,718.9,216,718.9z"/>
		<path class="st0" d="M216,774.7c8.4,0,15.2-6.8,15.2-15.2c0-8.4-6.8-15.2-15.2-15.2c-8.4,0-15.2,6.8-15.2,15.2
			C200.9,768,207.6,774.7,216,774.7z"/>
		<path class="st2" d="M346.4,614.1H460v113.5"/>
		<path class="st3" d="M1879.6,1341.7h-268.5V1610h268.5V1341.7z"/>
		<path class="st1" d="M1611.8,1341.7h268.5V1610"/>
		<path class="st2" d="M1689.6,1419.1h113.6v113.5"/>
		<path class="st1" d="M1074.1,1073.3h268.5v268.3"/>
		<path class="st2" d="M1151.9,1150.7h113.6v113.5"/>
	</g>
	<g>
		<path class="st0" d="M5826,1341.7h268.5V1610H5826V1341.7z"/>
		<path class="st0" d="M5557.5,1341.7H5826V1610h-268.5V1341.7z"/>
		<path class="st1" d="M6631.6,805h268.5v268.3h-268.5V805z"/>
		<path class="st0" d="M6363.1,805h268.5v268.3h-268.5V805z"/>
		<path class="st2" d="M6496.9,805h135.3v135.2h-135.3V805z"/>
		<path class="st2" d="M6363,938.1h135.3v135.2H6363V938.1z"/>
		<path class="st0" d="M4525.1,1610h268.5v-268.3C4645.3,1341.7,4525.1,1461.8,4525.1,1610z"/>
		<path class="st0" d="M6900.1,1341.7h-268.5v-268.3C6779.9,1073.3,6900.1,1193.5,6900.1,1341.7z"/>
		<path class="st0" d="M6900,0v94.6c-96,0-173.8,77.8-173.8,173.7h-94.8C6631.5,120.1,6751.8,0,6900,0z"/>
		<g>
			<path class="st1" d="M5557.5,1338.4c-148.3,0-268.5,120.1-268.5,268.3v-268.3H5557.5z"/>
			<path class="st1" d="M5557.5,1436.3v173.7h-173.9C5383.7,1514.1,5461.5,1436.3,5557.5,1436.3z"/>
		</g>
		<path class="st3" d="M6693.6,1073.3h-62.1c0-148.2,120.2-268.3,268.5-268.3v66.2C6797.9,892.6,6717,972,6693.6,1073.3z"/>
		<path class="st3" d="M5826,1073.3h268.5v268.3H5826V1073.3z"/>
		<path class="st3" d="M6363.7,536.7h268.5V805h-268.5V536.7z"/>
		<path class="st1" d="M5826,1135.4v-62c148.3,0,268.5,120.1,268.5,268.3h-66.3C6006.9,1239.5,5927.5,1158.7,5826,1135.4z"/>
		<path class="st0" d="M6094.5,1073.3h268.5v268.3C6214.7,1341.7,6094.5,1221.5,6094.5,1073.3z"/>
		<path class="st2" d="M5881.7,1397.3h157.1v157h-157.1V1397.3z"/>
		<path class="st0" d="M6631.5,268.3H6900v268.3h-268.5V268.3z"/>
		<path class="st2" d="M6687.2,324h157.1v157h-157.1V324z"/>
		<g>
			<path class="st2" d="M6896,1341.7h4.1v6.9C6900.1,1345.6,6898.4,1343,6896,1341.7z"/>
			<path class="st2" d="M6635.4,1341.7c-1.9,1.4-3.1,3.7-3.1,6.2v0.7c0,69.4,56.3,125.7,125.7,125.7h-0.7
				c-69.4,0-125.7,56.3-125.7,125.7c0,4.3,3.5,7.8,7.8,7.8h0.7c69.4,0,125.7-56.3,125.7-125.7c0-4.3-3.5-7.8-7.8-7.8
				c4.3,0,7.8-3.5,7.8-7.8v-0.7c0-62.6-45.8-114.5-105.7-124.1h216.2c-62.2,7.5-110.4,60.5-110.4,124.7c0,4.3,3.5,7.8,7.8,7.8h0.7
				c69.4,0,125.7-56.2,125.7-125.6V1610h-268.5v-268.3H6635.4z M6765.8,1482.8c0,69.4,56.3,125.6,125.7,125.6c4.3,0,7.8-3.5,7.8-7.8
				v-0.7c0-69.4-56.3-125.7-125.7-125.7c-4.3,0-7.8,3.5-7.8,7.8V1482.8z"/>
		</g>
		<g>
			<path class="st2" d="M5553.4,1073.3h4.1v6.9C5557.5,1077.2,5555.8,1074.6,5553.4,1073.3z"/>
			<path class="st2" d="M5292.8,1073.3c-1.9,1.4-3.1,3.7-3.1,6.2v0.7c0,69.4,56.3,125.7,125.7,125.7h-0.7
				c-69.4,0-125.7,56.3-125.7,125.7c0,4.3,3.5,7.8,7.8,7.8h0.7c69.4,0,125.7-56.3,125.7-125.7c0-4.3-3.5-7.8-7.8-7.8
				c4.3,0,7.8-3.5,7.8-7.8v-0.7c0-62.6-45.8-114.5-105.7-124.1h216.2c-62.2,7.5-110.4,60.5-110.4,124.7c0,4.3,3.5,7.8,7.8,7.8h0.7
				c69.4,0,125.7-56.2,125.7-125.6v261.4H5289v-268.3H5292.8z M5423.3,1214.4c0,69.4,56.3,125.6,125.7,125.6c4.3,0,7.8-3.5,7.8-7.8
				v-0.7c0-69.4-56.3-125.7-125.7-125.7c-4.3,0-7.8,3.5-7.8,7.8V1214.4z"/>
		</g>
		<path class="st1" d="M5019.3,1478.8c1.5-1.5,1.5-4,0-5.5l-0.2-0.2c-24.4-24.4-64-24.4-88.5,0c-1.5,1.5-1.5,4,0,5.5l0.2,0.2
			C4955.3,1503.2,4994.9,1503.2,5019.3,1478.8z"/>
		<path class="st1" d="M4925.1,1478.6c1.5-1.5,1.5-4,0-5.5l-0.2-0.2c-24.4-24.4-64-24.4-88.5,0c-1.5,1.5-1.5,4,0,5.5l0.2,0.2
			C4861.1,1503,4900.7,1503,4925.1,1478.6z"/>
		<path class="st1" d="M4930.9,1384.4c-1.5-1.5-4-1.5-5.5,0l-0.2,0.2c-24.4,24.4-24.4,64,0,88.4c1.5,1.5,4,1.5,5.5,0l0.2-0.2
			C4955.3,1448.4,4955.3,1408.8,4930.9,1384.4z"/>
		<path class="st1" d="M4930.6,1478.6c-1.5-1.5-4-1.5-5.5,0l-0.2,0.2c-24.4,24.4-24.4,64,0,88.4c1.5,1.5,4,1.5,5.5,0l0.2-0.2
			C4955.1,1542.6,4955.1,1503,4930.6,1478.6z"/>
		<g>
			<path class="st0" d="M6363.1,1610h268.5v-268.3"/>
			<path class="st1" d="M6631.6,1341.7h-268.5V1610"/>
		</g>
		<path class="st2" d="M6362.7,1074.4V806h-268.5"/>
		<path class="st1" d="M6094.2,806v268.3h268.5"/>
		<path class="st1" d="M6631.6,536.7h-268.5V805"/>
		<g>
			<path class="st2" d="M6094.5,1610v-137.4h65c-0.9,18.8,5.9,37.9,20.2,52.2c27.1,27,70.9,27,98,0c14.4-14.3,21.1-33.4,20.2-52.2
				h65.1V1610L6094.5,1610z"/>
			<path class="st3" d="M6363.1,1341.7v137.4h-65c0.9-18.8-5.9-37.9-20.2-52.2c-27.1-27-70.9-27-98,0
				c-14.4,14.3-21.1,33.4-20.2,52.2h-65.1v-137.4H6363.1z"/>
		</g>
		<path class="st1" d="M6497.3,1101.3l106.3,106.2l-106.3,106.2L6391,1207.5L6497.3,1101.3z M6497.3,1246.1
			c21.4,0,38.7-17.3,38.7-38.7s-17.3-38.7-38.7-38.7c-21.4,0-38.7,17.3-38.7,38.7S6475.9,1246.1,6497.3,1246.1z"/>
		<path class="st0" d="M5865,1034c-52.4-52.4-52.4-137.3,0-189.7c52.4-52.4,137.4-52.4,189.9,0c52.4,52.4,52.4,137.3,0,189.7
			C6002.4,1086.4,5917.4,1086.4,5865,1034z"/>
		<path class="st4" d="M5774.5,1407.9c-8.4,0-15.2-6.8-15.2-15.2c0-8.4,6.8-15.2,15.2-15.2c8.4,0,15.2,6.8,15.2,15.2
			C5789.7,1401.1,5782.9,1407.9,5774.5,1407.9z"/>
		<path class="st4" d="M5774.5,1463.8c-8.4,0-15.2-6.8-15.2-15.2c0-8.4,6.8-15.2,15.2-15.2c8.4,0,15.2,6.8,15.2,15.2
			C5789.7,1457,5782.9,1463.8,5774.5,1463.8z"/>
		<path class="st4" d="M5774.5,1519.6c-8.4,0-15.2-6.8-15.2-15.2c0-8.4,6.8-15.2,15.2-15.2c8.4,0,15.2,6.8,15.2,15.2
			C5789.7,1512.8,5782.9,1519.6,5774.5,1519.6z"/>
		<path class="st4" d="M5759.5,1562.7c-1.3-8.3,4.3-16.1,12.5-17.4c8.3-1.3,16.1,4.3,17.4,12.5c1.3,8.3-4.3,16.1-12.5,17.4
			C5768.7,1576.5,5760.9,1570.9,5759.5,1562.7z"/>
		<path class="st4" d="M5718.6,1407.9c-8.4,0-15.2-6.8-15.2-15.2c0-8.4,6.8-15.2,15.2-15.2s15.2,6.8,15.2,15.2
			C5733.8,1401.1,5727,1407.9,5718.6,1407.9z"/>
		<path class="st4" d="M5718.6,1463.8c-8.4,0-15.2-6.8-15.2-15.2c0-8.4,6.8-15.2,15.2-15.2s15.2,6.8,15.2,15.2
			C5733.8,1457,5727,1463.8,5718.6,1463.8z"/>
		<path class="st4" d="M5718.6,1519.6c-8.4,0-15.2-6.8-15.2-15.2c0-8.4,6.8-15.2,15.2-15.2s15.2,6.8,15.2,15.2
			C5733.8,1512.8,5727,1519.6,5718.6,1519.6z"/>
		<path class="st4" d="M5703.6,1562.3c-1.1-8.3,4.8-15.9,13.1-17c8.3-1.1,15.9,4.8,17,13.1c1.1,8.3-4.8,15.9-13.1,17
			C5712.3,1576.4,5704.7,1570.6,5703.6,1562.3z"/>
		<path class="st4" d="M5666.9,1407.9c-8.4,0-15.2-6.8-15.2-15.2c0-8.4,6.8-15.2,15.2-15.2c8.4,0,15.2,6.8,15.2,15.2
			C5682,1401.1,5675.2,1407.9,5666.9,1407.9z"/>
		<path class="st4" d="M5666.9,1463.8c-8.4,0-15.2-6.8-15.2-15.2c0-8.4,6.8-15.2,15.2-15.2c8.4,0,15.2,6.8,15.2,15.2
			C5682,1457,5675.2,1463.8,5666.9,1463.8z"/>
		<path class="st4" d="M5666.9,1519.6c-8.4,0-15.2-6.8-15.2-15.2c0-8.4,6.8-15.2,15.2-15.2c8.4,0,15.2,6.8,15.2,15.2
			C5682,1512.8,5675.2,1519.6,5666.9,1519.6z"/>
		<path class="st4" d="M5651.8,1562.7c-1.3-8.3,4.3-16.1,12.6-17.4c8.3-1.3,16.1,4.3,17.4,12.5c1.3,8.3-4.3,16.1-12.5,17.4
			C5661,1576.6,5653.2,1571,5651.8,1562.7z"/>
		<path class="st4" d="M5611,1407.9c-8.4,0-15.2-6.8-15.2-15.2c0-8.4,6.8-15.2,15.2-15.2c8.4,0,15.2,6.8,15.2,15.2
			C5626.1,1401.1,5619.3,1407.9,5611,1407.9z"/>
		<path class="st4" d="M5611,1463.8c-8.4,0-15.2-6.8-15.2-15.2c0-8.4,6.8-15.2,15.2-15.2c8.4,0,15.2,6.8,15.2,15.2
			C5626.1,1457,5619.3,1463.8,5611,1463.8z"/>
		<path class="st4" d="M5611,1519.6c-8.4,0-15.2-6.8-15.2-15.2c0-8.4,6.8-15.2,15.2-15.2c8.4,0,15.2,6.8,15.2,15.2
			C5626.1,1512.8,5619.3,1519.6,5611,1519.6z"/>
		<path class="st4" d="M5595.9,1562.7c-1.3-8.3,4.3-16.1,12.6-17.4c8.3-1.3,16.1,4.3,17.4,12.5c1.3,8.3-4.3,16-12.6,17.4
			C5605.1,1576.6,5597.3,1571,5595.9,1562.7z"/>
		<path class="st0" d="M6847.6,607.2c-8.4,0-15.2-6.8-15.2-15.2c0-8.4,6.8-15.2,15.2-15.2c8.4,0,15.2,6.8,15.2,15.2
			C6862.8,600.4,6856,607.2,6847.6,607.2z"/>
		<path class="st0" d="M6847.6,663.1c-8.4,0-15.2-6.8-15.2-15.2c0-8.4,6.8-15.2,15.2-15.2c8.4,0,15.2,6.8,15.2,15.2
			C6862.8,656.3,6856,663.1,6847.6,663.1z"/>
		<path class="st0" d="M6849.9,718.9c-7.1,0-12.9-6.8-12.9-15.2c0-8.4,5.8-15.2,12.9-15.2s12.9,6.8,12.9,15.2
			C6862.8,712.1,6857,718.9,6849.9,718.9z"/>
		<path class="st0" d="M6847.6,774.7c-8.4,0-15.2-6.8-15.2-15.2c0-8.4,6.8-15.2,15.2-15.2c8.4,0,15.2,6.8,15.2,15.2
			C6862.8,768,6856,774.7,6847.6,774.7z"/>
		<path class="st0" d="M6791.7,607.2c-8.4,0-15.2-6.8-15.2-15.2c0-8.4,6.8-15.2,15.2-15.2s15.2,6.8,15.2,15.2
			C6806.9,600.4,6800.1,607.2,6791.7,607.2z"/>
		<path class="st0" d="M6791.7,663.1c-8.4,0-15.2-6.8-15.2-15.2c0-8.4,6.8-15.2,15.2-15.2s15.2,6.8,15.2,15.2
			C6806.9,656.3,6800.1,663.1,6791.7,663.1z"/>
		<path class="st0" d="M6791.7,718.9c-8.4,0-15.2-6.8-15.2-15.2c0-8.4,6.8-15.2,15.2-15.2s15.2,6.8,15.2,15.2
			C6806.9,712.1,6800.1,718.9,6791.7,718.9z"/>
		<path class="st0" d="M6791.7,774.7c-8.4,0-15.2-6.8-15.2-15.2c0-8.4,6.8-15.2,15.2-15.2s15.2,6.8,15.2,15.2
			C6806.9,768,6800.1,774.7,6791.7,774.7z"/>
		<path class="st0" d="M6740,607.2c-8.4,0-15.2-6.8-15.2-15.2c0-8.4,6.8-15.2,15.2-15.2c8.4,0,15.2,6.8,15.2,15.2
			C6755.1,600.4,6748.3,607.2,6740,607.2z"/>
		<path class="st0" d="M6740,663.1c-8.4,0-15.2-6.8-15.2-15.2c0-8.4,6.8-15.2,15.2-15.2c8.4,0,15.2,6.8,15.2,15.2
			C6755.1,656.3,6748.3,663.1,6740,663.1z"/>
		<path class="st0" d="M6740,718.9c-8.4,0-15.2-6.8-15.2-15.2c0-8.4,6.8-15.2,15.2-15.2c8.4,0,15.2,6.8,15.2,15.2
			C6755.1,712.1,6748.3,718.9,6740,718.9z"/>
		<path class="st0" d="M6740,774.7c-8.4,0-15.2-6.8-15.2-15.2c0-8.4,6.8-15.2,15.2-15.2c8.4,0,15.2,6.8,15.2,15.2
			C6755.1,768,6748.3,774.7,6740,774.7z"/>
		<path class="st0" d="M6684.1,607.2c-8.4,0-15.2-6.8-15.2-15.2c0-8.4,6.8-15.2,15.2-15.2c8.4,0,15.2,6.8,15.2,15.2
			C6699.2,600.4,6692.4,607.2,6684.1,607.2z"/>
		<path class="st0" d="M6684.1,663.1c-8.4,0-15.2-6.8-15.2-15.2c0-8.4,6.8-15.2,15.2-15.2c8.4,0,15.2,6.8,15.2,15.2
			C6699.2,656.3,6692.4,663.1,6684.1,663.1z"/>
		<path class="st0" d="M6684.1,718.9c-8.4,0-15.2-6.8-15.2-15.2c0-8.4,6.8-15.2,15.2-15.2c8.4,0,15.2,6.8,15.2,15.2
			C6699.2,712.1,6692.4,718.9,6684.1,718.9z"/>
		<path class="st0" d="M6684.1,774.7c-8.4,0-15.2-6.8-15.2-15.2c0-8.4,6.8-15.2,15.2-15.2c8.4,0,15.2,6.8,15.2,15.2
			C6699.2,768,6692.4,774.7,6684.1,774.7z"/>
		<path class="st2" d="M6553.7,614.1h-113.6v113.5"/>
		<path class="st3" d="M5020.5,1341.7H5289V1610h-268.5V1341.7z"/>
		<path class="st1" d="M5288.3,1341.7h-268.5V1610"/>
		<path class="st2" d="M5210.5,1419.1h-113.6v113.5"/>
		<path class="st1" d="M5826,1073.3h-268.5v268.3"/>
		<path class="st2" d="M5748.2,1150.7h-113.6v113.5"/>
	</g>
</g>
</svg>
