<?xml version="1.0" encoding="utf-8"?>
<!-- Generator: Adobe Illustrator 23.1.0, SVG Export Plug-In . SVG Version: 6.00 Build 0)  -->
<svg version="1.1" id="Layer_1" xmlns="http://www.w3.org/2000/svg" xmlns:xlink="http://www.w3.org/1999/xlink" x="0px" y="0px"
	 viewBox="0 0 2865 2807.9" style="enable-background:new 0 0 2865 2807.9;" xml:space="preserve">
<style type="text/css">
	.st0{display:none;}
	.st1{display:inline;fill:#327498;}
	.st2{display:inline;fill:#F0A243;}
	.st3{display:inline;fill:#57A6D1;}
	.st4{display:inline;fill:#F0E144;}
	.st5{display:inline;fill:#FEBC1B;}
	.st6{display:inline;}
	.st7{fill:#FEBC1B;}
	.st8{fill:#F0A243;}
	.st9{fill:#327498;}
	.st10{fill:#C3E8FA;}
	.st11{fill:#57A6D1;}
	.st12{fill:#F0E144;}
	.st13{fill:#56A4D0;}
	.st14{fill:#EFE043;}
	.st15{display:inline;fill:#EEA143;}
	.st16{fill:#EEA143;}
	.st17{display:none;fill:#327598;}
	.st18{fill:#327598;}
</style>
<g class="st0">
	<path class="st1" d="M1563.8,2546.7h260.3v-260.6h-260.3V2546.7z"/>
	<path class="st2" d="M1823.7,2023.3h260.3v-260.6h-260.3V2023.3z"/>
	<path class="st1" d="M2339.8,2544.4h266.8v-260.6h-266.8V2544.4z"/>
	<path class="st1" d="M1303.1,1241.5v260.6h260.3v-260.6H1303.1z"/>
	<path class="st3" d="M2476.4,2544.4h130.2v-130.3h-130.2V2544.4z"/>
	<path class="st3" d="M2344.4,2414.6h129.4v-129.6h-129.4V2414.6z"/>
	<path class="st3" d="M1432.2,1372.8h131.2v-131.3h-131.2V1372.8z"/>
	<path class="st3" d="M1303.1,1370.7v131.3h131.2v-131.3H1303.1z"/>
	<path class="st4" d="M1883.9,1762.9h-60.2c0,143.9,116.5,260.6,260.3,260.6v-64.3C1985,1938.4,1906.6,1861.3,1883.9,1762.9z"/>
	<path class="st4" d="M779.2,1764h260.3v-260.6H779.2V1764z"/>
	<path class="st1" d="M2339.8,2544.4v-260.6h-260.3C2079.4,2427.7,2196,2544.4,2339.8,2544.4z"/>
	<path class="st1" d="M1304.2,980.3"/>
	<path class="st1" d="M1301.2,1240.9"/>
	<path class="st1" d="M1040.8,1237.8"/>
	<path class="st3" d="M1617.8,2492.6h152.3v-152.5h-152.3V2492.6z"/>
	<path class="st1" d="M1042.7,1762.7H1303v-260.6h-260.3V1762.7z"/>
	<path class="st3" d="M1096.7,1708.6H1249v-152.5h-152.3V1708.6z"/>
	<path class="st2" d="M1272.4,1905.7c1.5,1.5,1.5,3.9,0,5.4l-0.2,0.2"/>
	<path class="st2" d="M1180.9,1819.8c1.5-1.5,3.9-1.5,5.4,0l0.2,0.2"/>
	<path class="st1" d="M2084,2023.1h260.3v260.6"/>
	<path class="st2" d="M2344.4,2283.7H2084v-260.6"/>
	<path class="st1" d="M1823.5,1502.1v260.6h-260.3"/>
	<path class="st2" d="M1563.2,1761.4v-259.4H1821"/>
	<path class="st3" d="M1042.1,2548.1v259.4H783.1"/>
	<path class="st2" d="M783.1,2807.4v-259.4h259.1"/>
	<path class="st5" d="M522.6,2546.8H783v-260.6H522.6V2546.8z"/>
	<path class="st2" d="M783,2546.6l-260.3,0V2286"/>
	<path class="st1" d="M1786,1202c50.8-50.9,50.8-133.4,0-184.3c-50.8-50.9-133.2-50.9-184.1,0c-50.8,50.9-50.8,133.4,0,184.3
		C1652.8,1252.9,1735.2,1252.9,1786,1202z"/>
	<path class="st1" d="M1525.6,1985.3c50.8-50.9,50.8-133.4,0-184.3c-50.8-50.9-133.2-50.9-184.1,0c-50.8,50.9-50.8,133.4,0,184.3
		C1392.4,2036.2,1474.8,2036.2,1525.6,1985.3z"/>
	<g class="st6">
		<path class="st7" d="M2603,2023.5h260.3v-260.6H2603V2023.5z"/>
		<path class="st8" d="M2863.3,2023.3H2603v-260.6"/>
		<path class="st9" d="M2788.2,1948.3h-110.1v-110.3"/>
	</g>
	<path class="st1" d="M713.8,2478.9H603.7v-110.3"/>
	<g class="st6">
		<path class="st8" d="M2602.7,2023.3H2863v260.6"/>
		<path class="st10" d="M2753.6,2023.3h110.1v130.3"/>
	</g>
	<path class="st2" d="M1039.5,1564.7v-60.2c-143.8,0-260.3,116.7-260.3,260.6h64.3C864.1,1665.9,941.2,1587.4,1039.5,1564.7z"/>
	<path class="st4" d="M522.6,2285.9h260.3v-260.6H522.6V2285.9z"/>
	<path class="st2" d="M783,2086.6v-60.2c-143.8,0-260.3,116.7-260.3,260.6h64.3C607.6,2187.7,684.6,2109.3,783,2086.6z"/>
	<path class="st1" d="M1042.1,2546.7h260.3v-260.6h-260.3V2546.7z"/>
	<path class="st3" d="M1171.9,2543.1h131.2v-131.3h-131.2V2543.1z"/>
	<path class="st3" d="M1042.1,2417.4h131.2v-131.3h-131.2V2417.4z"/>
	<path class="st1" d="M1042.1,2286.1H783.7v258.7C926.4,2544.8,1042.1,2429,1042.1,2286.1z"/>
	<path class="st1" d="M483.2,2506.7c50.8-50.9,50.8-133.4,0-184.3c-50.8-50.9-133.2-50.9-184.1,0c-50.8,50.9-50.8,133.4,0,184.3
		C350,2557.6,432.4,2557.6,483.2,2506.7z"/>
	<g class="st6">
		<path class="st8" d="M2863.3,1762.7H2603v-260.6"/>
		<path class="st10" d="M2713.1,1762.4l-110.1-0.2l0.2-110.3"/>
		<path class="st11" d="M2343.7,1502H2604v260.7"/>
	</g>
	<g class="st6">
		<path class="st9" d="M2559.7,2261.2c8.1,0,14.7-6.6,14.7-14.7c0-8.1-6.6-14.7-14.7-14.7c-8.1,0-14.7,6.6-14.7,14.7
			C2545,2254.6,2551.6,2261.2,2559.7,2261.2z"/>
		<path class="st9" d="M2559.7,2206.9c8.1,0,14.7-6.6,14.7-14.7c0-8.1-6.6-14.7-14.7-14.7c-8.1,0-14.7,6.6-14.7,14.7
			C2545,2200.3,2551.6,2206.9,2559.7,2206.9z"/>
		<path class="st9" d="M2559.7,2152.7c8.1,0,14.7-6.6,14.7-14.7c0-8.1-6.6-14.7-14.7-14.7c-8.1,0-14.7,6.6-14.7,14.7
			C2545,2146.1,2551.6,2152.7,2559.7,2152.7z"/>
		<path class="st9" d="M2559.7,2098.5c8.1,0,14.7-6.6,14.7-14.7c0-8.1-6.6-14.7-14.7-14.7c-8.1,0-14.7,6.6-14.7,14.7
			C2545,2091.9,2551.6,2098.5,2559.7,2098.5z"/>
		<path class="st9" d="M2505.5,2261.2c8.1,0,14.7-6.6,14.7-14.7c0-8.1-6.6-14.7-14.7-14.7c-8.1,0-14.7,6.6-14.7,14.7
			C2490.8,2254.6,2497.4,2261.2,2505.5,2261.2z"/>
		<path class="st9" d="M2505.5,2206.9c8.1,0,14.7-6.6,14.7-14.7c0-8.1-6.6-14.7-14.7-14.7c-8.1,0-14.7,6.6-14.7,14.7
			C2490.8,2200.3,2497.4,2206.9,2505.5,2206.9z"/>
		<path class="st9" d="M2505.5,2152.7c8.1,0,14.7-6.6,14.7-14.7c0-8.1-6.6-14.7-14.7-14.7c-8.1,0-14.7,6.6-14.7,14.7
			C2490.8,2146.1,2497.4,2152.7,2505.5,2152.7z"/>
		<path class="st9" d="M2505.5,2098.5c8.1,0,14.7-6.6,14.7-14.7c0-8.1-6.6-14.7-14.7-14.7c-8.1,0-14.7,6.6-14.7,14.7
			C2490.8,2091.9,2497.4,2098.5,2505.5,2098.5z"/>
		<path class="st9" d="M2455.3,2261.2c8.1,0,14.7-6.6,14.7-14.7c0-8.1-6.6-14.7-14.7-14.7c-8.1,0-14.7,6.6-14.7,14.7
			C2440.6,2254.6,2447.2,2261.2,2455.3,2261.2z"/>
		<path class="st9" d="M2455.3,2206.9c8.1,0,14.7-6.6,14.7-14.7c0-8.1-6.6-14.7-14.7-14.7c-8.1,0-14.7,6.6-14.7,14.7
			C2440.6,2200.3,2447.2,2206.9,2455.3,2206.9z"/>
		<path class="st9" d="M2455.3,2152.7c8.1,0,14.7-6.6,14.7-14.7c0-8.1-6.6-14.7-14.7-14.7c-8.1,0-14.7,6.6-14.7,14.7
			C2440.6,2146.1,2447.2,2152.7,2455.3,2152.7z"/>
		<path class="st9" d="M2455.3,2098.5c8.1,0,14.7-6.6,14.7-14.7c0-8.1-6.6-14.7-14.7-14.7c-8.1,0-14.7,6.6-14.7,14.7
			C2440.6,2091.9,2447.2,2098.5,2455.3,2098.5z"/>
		<path class="st9" d="M2401.2,2261.2c8.1,0,14.7-6.6,14.7-14.7c0-8.1-6.6-14.7-14.7-14.7c-8.1,0-14.7,6.6-14.7,14.7
			C2386.5,2254.6,2393,2261.2,2401.2,2261.2z"/>
		<path class="st9" d="M2401.2,2206.9c8.1,0,14.7-6.6,14.7-14.7c0-8.1-6.6-14.7-14.7-14.7c-8.1,0-14.7,6.6-14.7,14.7
			C2386.5,2200.3,2393,2206.9,2401.2,2206.9z"/>
		<path class="st9" d="M2401.2,2152.7c8.1,0,14.7-6.6,14.7-14.7c0-8.1-6.6-14.7-14.7-14.7c-8.1,0-14.7,6.6-14.7,14.7
			C2386.5,2146.1,2393,2152.7,2401.2,2152.7z"/>
		<path class="st9" d="M2401.2,2098.5c8.1,0,14.7-6.6,14.7-14.7c0-8.1-6.6-14.7-14.7-14.7c-8.1,0-14.7,6.6-14.7,14.7
			C2386.5,2091.9,2393,2098.5,2401.2,2098.5z"/>
	</g>
	<path class="st2" d="M1563.8,2286.1h260.3v-261.7h-260.3V2286.1z"/>
	<path class="st4" d="M1624.5,2024.4h-60.2c0,143.9,116.6,260.6,260.3,260.6v-64.3C1725.5,2199.9,1647.1,2122.8,1624.5,2024.4z"/>
	<path class="st2" d="M1303.1,2286.1h-260.3v-260.6"/>
	<path class="st3" d="M1153,2286.1l-110.1-0.2l0.2-110.3"/>
	<g class="st6">
		<path class="st12" d="M1563.4,1762.7c-143.8,0-260.4-115.2-260.4-257.4v257.4H1563.4z"/>
		<path class="st12" d="M1563.4,1668.7v-166.7h-168.6C1394.8,1594.1,1470.3,1668.7,1563.4,1668.7z"/>
	</g>
	<g class="st6">
		<path class="st12" d="M2338.5,2807.4c0-145.2,116.4-263,260-263l-260,0L2338.5,2807.4z"/>
		<path class="st12" d="M2433.3,2807.4h168.3l0-170.3C2508.7,2637.1,2433.3,2713.4,2433.3,2807.4z"/>
	</g>
	<g class="st6">
		<path class="st12" d="M1823.8,1502.1c-143.8,0-260.4-115.2-260.4-257.4v257.4L1823.8,1502.1z"/>
		<path class="st12" d="M1823.8,1408.1v-166.7h-168.6C1655.2,1333.5,1730.7,1408.1,1823.8,1408.1z"/>
	</g>
	<g class="st6">
		<path class="st13" d="M2344.4,2023.5v-133.4l-63,0c0.8,18.2-5.7,36.8-19.6,50.7c-26.2,26.3-68.8,26.3-95,0
			c-13.9-13.9-20.4-32.5-19.6-50.7H2084l0,133.4L2344.4,2023.5z"/>
		<path class="st14" d="M2084,1762.9v133.4h63c-0.8-18.2,5.7-36.8,19.6-50.7c26.2-26.3,68.8-26.3,95,0
			c13.9,13.9,20.4,32.5,19.6,50.7h63.1v-133.4H2084z"/>
	</g>
	<g class="st6">
		<path class="st13" d="M2084.1,2284.1v-133.4h-63c0.8,18.2-5.7,36.8-19.6,50.7c-26.2,26.3-68.8,26.3-95,0
			c-13.9-13.9-20.4-32.5-19.6-50.7h-63.1v133.4L2084.1,2284.1z"/>
		<path class="st14" d="M1823.7,2023.5v133.4h63c-0.8-18.2,5.7-36.8,19.6-50.7c26.2-26.3,68.8-26.3,95,0
			c13.9,13.9,20.4,32.5,19.6,50.7h63.1v-133.4H1823.7z"/>
	</g>
	<g class="st6">
		<path class="st13" d="M522.7,2807.4V2673h-63c0.8,18.4-5.7,37-19.6,51.1c-26.2,26.5-68.8,26.5-95,0c-13.9-14-20.4-32.7-19.6-51.1
			h-63.1l0,134.4H522.7z"/>
		<path class="st14" d="M262.4,2544.8v134.4h63c-0.8-18.4,5.7-37,19.6-51.1c26.2-26.5,68.8-26.5,95,0c13.9,14,20.4,32.7,19.6,51.1
			h63.1v-134.4H262.4z"/>
	</g>
	<path class="st15" d="M1432.2,1001.2l-106.1,106.2l106.1,106.2l106.1-106.2L1432.2,1001.2z M1432.2,1146
		c-21.3,0-38.6-17.3-38.6-38.7s17.3-38.7,38.6-38.7c21.3,0,38.6,17.3,38.6,38.7S1453.6,1146,1432.2,1146z"/>
	<path class="st15" d="M1965.1,2310.2L1859,2416.4l106.1,106.2l106.1-106.2L1965.1,2310.2z M1965.1,2455
		c-21.3,0-38.6-17.3-38.6-38.7s17.3-38.7,38.6-38.7c21.3,0,38.6,17.3,38.6,38.7S1986.5,2455,1965.1,2455z"/>
	<g class="st6">
		<path class="st13" d="M787,2025.5h-4v6.7C783,2029.3,784.6,2026.8,787,2025.5z"/>
		<path class="st13" d="M1039.2,2025.5c1.8,1.4,3,3.6,3,6.1v0.7c0,67.4-54.5,122-121.7,122h0.7c67.2,0,121.7,54.6,121.7,122
			c0,4.2-3.4,7.6-7.6,7.6h-0.7c-67.2,0-121.7-54.6-121.7-122c0-4.2,3.4-7.6,7.6-7.6c-4.2,0-7.6-3.4-7.6-7.6v-0.7
			c0-60.8,44.3-111.2,102.3-120.5H806c60.2,7.3,106.9,58.8,106.9,121.1c0,4.2-3.4,7.6-7.6,7.6h-0.7c-67.2,0-121.7-54.6-121.7-122
			v253.9h259.9v-260.6H1039.2z M912.9,2162.5c0,67.4-54.5,122-121.7,122c-4.2,0-7.6-3.4-7.6-7.6v-0.6c0-67.4,54.5-122,121.7-122
			c4.2,0,7.6,3.4,7.6,7.6V2162.5z"/>
	</g>
	<g class="st6">
		<path class="st13" d="M2610.5,2284.9h-4v6.7C2606.5,2288.6,2608.1,2286.1,2610.5,2284.9z"/>
		<path class="st13" d="M2859.1,2284.9c1.8,1.4,3,3.6,3,6v0.7c0,67.1-53.7,121.5-120,121.5h0.6c66.3,0,120,54.4,120,121.5
			c0,4.2-3.4,7.6-7.5,7.6h-0.6c-66.3,0-120-54.4-120-121.5c0-4.2,3.4-7.6,7.5-7.6c-4.1,0-7.5-3.4-7.5-7.6v-0.7
			c0-60.5,43.7-110.7,100.9-120h-206.3c59.4,7.3,105.4,58.5,105.4,120.6c0,4.2-3.4,7.6-7.5,7.6h-0.6c-66.3,0-120-54.4-120-121.5
			v252.9h256.2v-259.6H2859.1z M2734.6,2421.3c0,67.1-53.7,121.5-120,121.5c-4.1,0-7.5-3.4-7.5-7.6v-0.6
			c0-67.1,53.7-121.5,120-121.5c4.1,0,7.5,3.4,7.5,7.6V2421.3z"/>
	</g>
	<g class="st6">
		<path class="st13" d="M1307.3,2286.1h-4v6.7C1303.3,2289.9,1304.9,2287.4,1307.3,2286.1z"/>
		<path class="st13" d="M1559.5,2286.1c1.8,1.4,3,3.6,3,6.1v0.7c0,67.4-54.5,122-121.7,122h0.7c67.2,0,121.7,54.6,121.7,122
			c0,4.2-3.4,7.6-7.6,7.6h-0.7c-67.2,0-121.7-54.6-121.7-122c0-4.2,3.4-7.6,7.6-7.6c-4.2,0-7.6-3.4-7.6-7.6v-0.7
			c0-60.8,44.3-111.2,102.3-120.5h-209.2c60.2,7.3,106.9,58.8,106.9,121.1c0,4.2-3.4,7.6-7.6,7.6h-0.7c-67.2,0-121.7-54.6-121.7-122
			v253.9h259.9v-260.6H1559.5z M1433.2,2423.1c0,67.4-54.5,122-121.7,122c-4.2,0-7.6-3.4-7.6-7.6v-0.6c0-67.4,54.5-122,121.7-122
			c4.2,0,7.6,3.4,7.6,7.6V2423.1z"/>
	</g>
	<g class="st6">
		<path class="st13" d="M1567.6,1762.9h-4v6.7C1563.6,1766.7,1565.2,1764.2,1567.6,1762.9z"/>
		<path class="st13" d="M1819.8,1762.9c1.8,1.4,3,3.6,3,6.1v0.7c0,67.4-54.5,122-121.7,122h0.7c67.2,0,121.7,54.6,121.7,122
			c0,4.2-3.4,7.6-7.6,7.6h-0.7c-67.2,0-121.7-54.6-121.7-122c0-4.2,3.4-7.6,7.6-7.6c-4.2,0-7.6-3.4-7.6-7.6v-0.7
			c0-60.8,44.3-111.2,102.3-120.5h-209.2c60.2,7.3,106.9,58.8,106.9,121.1c0,4.2-3.4,7.6-7.6,7.6h-0.7c-67.2,0-121.7-54.6-121.7-122
			v253.9h259.9v-260.6H1819.8z M1693.5,1899.9c0,67.4-54.5,122-121.7,122c-4.2,0-7.6-3.4-7.6-7.6v-0.6c0-67.4,54.5-122,121.7-122
			c4.2,0,7.6,3.4,7.6,7.6V1899.9z"/>
	</g>
	<path class="st1" d="M262.4,2544.8v92.6c-93.8,0-169.8,76.1-169.8,170H0C0,2662.4,117.5,2544.8,262.4,2544.8z"/>
	<path class="st1" d="M2862.8,2542.9v93.4c-93.8,0-169.8,76.9-169.8,171.6h-92.6C2600.4,2661.5,2717.8,2542.9,2862.8,2542.9z"/>
	<path class="st1" d="M1303.1,978.8v92.6c-93.8,0-169.8,76.1-169.8,170h-92.6C1040.7,1096.4,1158.2,978.8,1303.1,978.8z"/>
	<g id="head" class="st6">
		<g>
			<path class="st9" d="M2343.2,1242.2V1501l-260.3,0c0-143,109-258.9,243.4-258.8H2343.2z"/>
			<path class="st9" d="M2603.8,1242.4l-260.3-0.7l-0.6,258.7l260.3,0.7L2603.8,1242.4z"/>
			<path class="st11" d="M2549.7,1293l-152.3-0.5l-0.5,143l152.3,0.5L2549.7,1293z"/>
			<path class="st12" d="M2864.1,1431.3l-0.2,56.5c-143.8-0.5-259.9-110.3-259.4-245.3l64.3,0.2
				C2689.1,1335.8,2765.9,1409.7,2864.1,1431.3z"/>
		</g>
		<path class="st8" d="M2604.5,1501h259.2v-259.5h-259.2V1501z"/>
		<path class="st9" d="M2604.5,981.8v92.6c-93.8,0-169.8,76.1-169.8,170h-92.6C2342.1,1099.4,2459.6,981.8,2604.5,981.8z"/>
		<path class="st8" d="M2572,1180.7c0-19.5-16.7-35.3-37.4-35.3c-20.7,0-37.5,15.7-37.6,35.2c0,19.5,16.7,35.3,37.4,35.3
			C2555.1,1215.9,2571.9,1200.1,2572,1180.7z"/>
		<g>
			<path class="st12" d="M2604.5,981.8c143.8,0,260.4,114.7,260.4,256.2V981.8L2604.5,981.8z"/>
			<path class="st12" d="M2604.5,1075.3v165.9h168.6C2773.1,1149.6,2697.7,1075.3,2604.5,1075.3z"/>
		</g>
		<g>
			<path class="st8" d="M2727.7,1049.5c1.3-1.3,3.4-1.3,4.7,0l0.2,0.2c20.8,20.8,20.8,54.6,0.1,75.4c-1.3,1.3-3.4,1.3-4.7,0
				l-0.2-0.2C2706.9,1104.1,2706.9,1070.3,2727.7,1049.5z"/>
			<path class="st8" d="M2728,1129.8c1.3-1.3,3.4-1.3,4.7,0l0.2,0.2c20.8,20.8,20.8,54.6,0,75.4c-1.3,1.3-3.4,1.3-4.7,0l-0.2-0.2
				C2707.2,1184.4,2707.2,1150.7,2728,1129.8z"/>
			<path class="st8" d="M2808.2,1124.8c1.3,1.3,1.3,3.4,0,4.7l-0.2,0.2c-20.8,20.8-54.5,20.9-75.3,0.1c-1.3-1.3-1.3-3.4,0-4.7
				l0.2-0.2C2753.6,1104.1,2787.4,1104,2808.2,1124.8z"/>
			<path class="st8" d="M2728,1125.1c1.3,1.3,1.3,3.4,0,4.7l-0.2,0.2c-20.8,20.8-54.5,20.9-75.3,0.1c-1.3-1.3-1.3-3.4,0-4.7l0.2-0.2
				C2673.4,1104.3,2707.1,1104.3,2728,1125.1z"/>
		</g>
		<path class="st16" d="M2527.5,1048.5l-106.1,106.2l106.1,106.2l106.1-106.2L2527.5,1048.5z M2527.5,1193.4
			c-21.3,0-38.6-17.3-38.6-38.7s17.3-38.7,38.6-38.7c21.3,0,38.6,17.3,38.6,38.7S2548.8,1193.4,2527.5,1193.4z"/>
	</g>
	<g class="st6">
		
			<image style="overflow:visible;" width="1510" height="2325" xlink:href="person-only/person-hero-asset-right-base.png"  transform="matrix(1.207 0 0 1.207 487.4086 0)">
		</image>
		
			<image style="overflow:visible;" width="638" height="806" xlink:href="person-only/person-hero-asset-right-hand.png"  transform="matrix(1.8735 0 0 1.8735 187.9464 244.9447)">
		</image>
		<g id="image-bottom-border">
			<g>
				<path class="st8" d="M1261.3,2670.6c1.5,1.5,1.5,3.9,0,5.4l-0.2,0.2c-23.7,23.7-62.1,23.7-85.8,0c-1.5-1.5-1.5-3.9,0-5.4
					l0.2-0.2C1199.2,2646.9,1237.6,2646.9,1261.3,2670.6z"/>
				<path class="st8" d="M1169.9,2670.8c1.5,1.5,1.5,3.9,0,5.4l-0.2,0.2c-23.7,23.7-62.1,23.7-85.8,0c-1.5-1.5-1.5-3.9,0-5.4
					l0.2-0.2C1107.8,2647.1,1146.2,2647.1,1169.9,2670.8z"/>
				<path class="st8" d="M1175.5,2762.3c-1.5,1.5-3.9,1.5-5.4,0l-0.2-0.2c-23.7-23.7-23.7-62.1,0-85.8c1.5-1.5,3.9-1.5,5.4,0
					l0.2,0.2C1199.2,2700.1,1199.2,2738.6,1175.5,2762.3z"/>
				<path class="st8" d="M1175.3,2670.8c-1.5,1.5-3.9,1.5-5.4,0l-0.2-0.2c-23.7-23.7-26.8-57-3.1-80.7c1.5-1.5,3.9-1.5,5.4,0
					l0.2,0.2C1195.8,2613.8,1199,2647.1,1175.3,2670.8z"/>
			</g>
			<g>
				<path class="st9" d="M2044.4,2771.1c8.1,0,14.7-6.6,14.7-14.7c0-8.1-6.6-14.7-14.7-14.7c-8.1,0-14.7,6.6-14.7,14.7
					C2029.7,2764.5,2036.3,2771.1,2044.4,2771.1z"/>
				<path class="st9" d="M2044.4,2716.9c8.1,0,14.7-6.6,14.7-14.7c0-8.1-6.6-14.7-14.7-14.7c-8.1,0-14.7,6.6-14.7,14.7
					C2029.7,2710.3,2036.3,2716.9,2044.4,2716.9z"/>
				<path class="st9" d="M2044.4,2662.7c8.1,0,14.7-6.6,14.7-14.7c0-8.1-6.6-14.7-14.7-14.7c-8.1,0-14.7,6.6-14.7,14.7
					C2029.7,2656.1,2036.3,2662.7,2044.4,2662.7z"/>
				<path class="st9" d="M2044.4,2608.4c8.1,0,14.7-6.6,14.7-14.7c0-8.1-6.6-14.7-14.7-14.7c-8.1,0-14.7,6.6-14.7,14.7
					C2029.7,2601.8,2036.3,2608.4,2044.4,2608.4z"/>
				<path class="st9" d="M1990.2,2771.1c8.1,0,14.7-6.6,14.7-14.7c0-8.1-6.6-14.7-14.7-14.7c-8.1,0-14.7,6.6-14.7,14.7
					C1975.5,2764.5,1982.1,2771.1,1990.2,2771.1z"/>
				<path class="st9" d="M1990.2,2716.9c8.1,0,14.7-6.6,14.7-14.7c0-8.1-6.6-14.7-14.7-14.7c-8.1,0-14.7,6.6-14.7,14.7
					C1975.5,2710.3,1982.1,2716.9,1990.2,2716.9z"/>
				<path class="st9" d="M1990.2,2662.7c8.1,0,14.7-6.6,14.7-14.7c0-8.1-6.6-14.7-14.7-14.7c-8.1,0-14.7,6.6-14.7,14.7
					C1975.5,2656.1,1982.1,2662.7,1990.2,2662.7z"/>
				<path class="st9" d="M1990.2,2608.4c8.1,0,14.7-6.6,14.7-14.7c0-8.1-6.6-14.7-14.7-14.7c-8.1,0-14.7,6.6-14.7,14.7
					C1975.5,2601.8,1982.1,2608.4,1990.2,2608.4z"/>
				<path class="st9" d="M1940,2771.1c8.1,0,14.7-6.6,14.7-14.7c0-8.1-6.6-14.7-14.7-14.7c-8.1,0-14.7,6.6-14.7,14.7
					C1925.3,2764.5,1931.9,2771.1,1940,2771.1z"/>
				<path class="st9" d="M1940,2716.9c8.1,0,14.7-6.6,14.7-14.7c0-8.1-6.6-14.7-14.7-14.7c-8.1,0-14.7,6.6-14.7,14.7
					C1925.3,2710.3,1931.9,2716.9,1940,2716.9z"/>
				<path class="st9" d="M1940,2662.7c8.1,0,14.7-6.6,14.7-14.7c0-8.1-6.6-14.7-14.7-14.7c-8.1,0-14.7,6.6-14.7,14.7
					C1925.3,2656.1,1931.9,2662.7,1940,2662.7z"/>
				<path class="st9" d="M1940,2608.4c8.1,0,14.7-6.6,14.7-14.7c0-8.1-6.6-14.7-14.7-14.7c-8.1,0-14.7,6.6-14.7,14.7
					C1925.3,2601.8,1931.9,2608.4,1940,2608.4z"/>
				<path class="st9" d="M1885.9,2771.1c8.1,0,14.7-6.6,14.7-14.7c0-8.1-6.6-14.7-14.7-14.7c-8.1,0-14.7,6.6-14.7,14.7
					C1871.2,2764.5,1877.7,2771.1,1885.9,2771.1z"/>
				<path class="st9" d="M1885.9,2716.9c8.1,0,14.7-6.6,14.7-14.7c0-8.1-6.6-14.7-14.7-14.7c-8.1,0-14.7,6.6-14.7,14.7
					C1871.2,2710.3,1877.7,2716.9,1885.9,2716.9z"/>
				<path class="st9" d="M1885.9,2662.7c8.1,0,14.7-6.6,14.7-14.7c0-8.1-6.6-14.7-14.7-14.7c-8.1,0-14.7,6.6-14.7,14.7
					C1871.2,2656.1,1877.7,2662.7,1885.9,2662.7z"/>
				<path class="st9" d="M1885.9,2608.4c8.1,0,14.7-6.6,14.7-14.7c0-8.1-6.6-14.7-14.7-14.7c-8.1,0-14.7,6.6-14.7,14.7
					C1871.2,2601.8,1877.7,2608.4,1885.9,2608.4z"/>
			</g>
			<path class="st9" d="M1302.4,2806.4h260.3v-260.6h-260.3V2806.4z"/>
			<path class="st11" d="M1430.9,2806.4h131.2v-131.3h-131.2V2806.4z"/>
			<path class="st11" d="M1302.4,2677.1h131.2v-131.3h-131.2V2677.1z"/>
			<path class="st7" d="M1822.4,2806.4v-260.6h-260.3v260.6H1822.4z"/>
			<path class="st8" d="M1822.4,2546.8v260.6h-260.3"/>
			<path class="st9" d="M1747.3,2622v110.3h-110.1"/>
			<g>
				<path class="st8" d="M2291,2669.6c1.5,1.5,1.5,3.9,0,5.4l-0.2,0.2c-23.7,23.7-62.1,23.7-85.8,0c-1.5-1.5-1.5-3.9,0-5.4l0.2-0.2
					C2228.9,2645.9,2267.3,2645.9,2291,2669.6z"/>
				<path class="st8" d="M2199.7,2669.8c1.5,1.5,1.5,3.9,0,5.4l-0.2,0.2c-23.7,23.7-62.1,23.7-85.8,0c-1.5-1.5-1.5-3.9,0-5.4
					l0.2-0.2C2137.6,2646.1,2176,2646.1,2199.7,2669.8z"/>
				<path class="st8" d="M2205.2,2761.2c-1.5,1.5-3.9,1.5-5.4,0l-0.2-0.2c-23.7-23.7-23.7-62.2,0-85.9c1.5-1.5,3.9-1.5,5.4,0
					l0.2,0.2C2228.9,2699.1,2228.9,2737.5,2205.2,2761.2z"/>
				<path class="st8" d="M2205,2669.8c-1.5,1.5-3.9,1.5-5.4,0l-0.2-0.2c-23.7-23.7-26.8-57-3.1-80.7c1.5-1.5,3.9-1.5,5.4,0l0.2,0.2
					C2225.6,2612.8,2228.7,2646.1,2205,2669.8z"/>
			</g>
		</g>
	</g>
</g>
<path class="st17" d="M1823.5,1501.3v260.8h260.7v-260.8H1823.5z M2032.2,1536.2c8.1,0,14.7,6.6,14.7,14.7c0,8.1-6.6,14.7-14.7,14.7
	c-8.1,0-14.7-6.6-14.7-14.7C2017.5,1542.8,2024.1,1536.2,2032.2,1536.2z M2032.2,1590.5c8.1,0,14.7,6.6,14.7,14.7
	c0,8.1-6.6,14.7-14.7,14.7c-8.1,0-14.7-6.6-14.7-14.7C2017.5,1597.1,2024.1,1590.5,2032.2,1590.5z M1978,1536.2
	c8.1,0,14.7,6.6,14.7,14.7c0,8.1-6.6,14.7-14.7,14.7c-8.1,0-14.7-6.6-14.7-14.7C1963.3,1542.8,1969.8,1536.2,1978,1536.2z
	 M1978,1590.5c8.1,0,14.7,6.6,14.7,14.7c0,8.1-6.6,14.7-14.7,14.7c-8.1,0-14.7-6.6-14.7-14.7
	C1963.3,1597.1,1969.8,1590.5,1978,1590.5z M1888,1716.1c-1.3,8-8.9,13.5-16.9,12.2c-8-1.3-13.5-8.9-12.2-16.9
	c1.3-8,8.9-13.5,16.9-12.2C1883.9,1700.5,1889.3,1708.1,1888,1716.1z M1873.5,1674.2c-8.1,0-14.7-6.6-14.7-14.7
	c0-8.1,6.6-14.7,14.7-14.7c8.1,0,14.7,6.6,14.7,14.7C1888.2,1667.6,1881.6,1674.2,1873.5,1674.2z M1873.5,1620
	c-8.1,0-14.7-6.6-14.7-14.7c0-8.1,6.6-14.7,14.7-14.7c8.1,0,14.7,6.6,14.7,14.7C1888.2,1613.4,1881.6,1620,1873.5,1620z
	 M1873.5,1565.7c-8.1,0-14.7-6.6-14.7-14.7c0-8.1,6.6-14.7,14.7-14.7c8.1,0,14.7,6.6,14.7,14.7
	C1888.2,1559.1,1881.6,1565.7,1873.5,1565.7z M1942.3,1715.7c-1.1,8.1-8.4,13.8-16.5,12.7c-8.1-1.1-13.7-8.5-12.7-16.5
	c1.1-8.1,8.5-13.8,16.5-12.7C1937.7,1700.2,1943.3,1707.6,1942.3,1715.7z M1927.7,1674.2c-8.1,0-14.7-6.6-14.7-14.7
	c0-8.1,6.6-14.7,14.7-14.7c8.1,0,14.7,6.6,14.7,14.7C1942.5,1667.6,1935.9,1674.2,1927.7,1674.2z M1927.7,1620
	c-8.1,0-14.7-6.6-14.7-14.7c0-8.1,6.6-14.7,14.7-14.7c8.1,0,14.7,6.6,14.7,14.7C1942.5,1613.4,1935.9,1620,1927.7,1620z
	 M1927.7,1565.7c-8.1,0-14.7-6.6-14.7-14.7c0-8.1,6.6-14.7,14.7-14.7c8.1,0,14.7,6.6,14.7,14.7
	C1942.5,1559.1,1935.9,1565.7,1927.7,1565.7z M1978,1644.8c8.1,0,14.7,6.6,14.7,14.7c0,8.1-6.6,14.7-14.7,14.7
	c-8.1,0-14.7-6.6-14.7-14.7C1963.3,1651.4,1969.8,1644.8,1978,1644.8z M1992.6,1716.1c-1.3,8-8.9,13.5-16.9,12.2
	c-8-1.3-13.5-8.9-12.2-16.9c1.3-8,8.9-13.5,16.9-12.2C1988.4,1700.5,1993.9,1708.1,1992.6,1716.1z M2032.2,1644.8
	c8.1,0,14.7,6.6,14.7,14.7c0,8.1-6.6,14.7-14.7,14.7c-8.1,0-14.7-6.6-14.7-14.7C2017.5,1651.4,2024.1,1644.8,2032.2,1644.8z
	 M2046.8,1716.1c-1.3,8-8.9,13.5-16.9,12.2c-8-1.3-13.5-8.9-12.2-16.9c1.3-8,8.9-13.5,16.9-12.2
	C2042.7,1700.5,2048.1,1708.1,2046.8,1716.1z"/>
<path class="st17" d="M1302.8,2023.9v260.8h260.7v-260.8H1302.8z M1511.5,2058.8c8.1,0,14.7,6.6,14.7,14.7s-6.6,14.7-14.7,14.7
	c-8.1,0-14.7-6.6-14.7-14.7S1503.4,2058.8,1511.5,2058.8z M1511.5,2113.1c8.1,0,14.7,6.6,14.7,14.7s-6.6,14.7-14.7,14.7
	c-8.1,0-14.7-6.6-14.7-14.7S1503.4,2113.1,1511.5,2113.1z M1457.3,2058.8c8.1,0,14.7,6.6,14.7,14.7s-6.6,14.7-14.7,14.7
	c-8.1,0-14.7-6.6-14.7-14.7S1449.1,2058.8,1457.3,2058.8z M1457.3,2113.1c8.1,0,14.7,6.6,14.7,14.7s-6.6,14.7-14.7,14.7
	c-8.1,0-14.7-6.6-14.7-14.7S1449.1,2113.1,1457.3,2113.1z M1367.3,2238.7c-1.3,8-8.9,13.5-16.9,12.2c-8-1.3-13.5-8.9-12.2-16.9
	c1.3-8,8.9-13.5,16.9-12.2C1363.2,2223.1,1368.6,2230.7,1367.3,2238.7z M1352.8,2196.9c-8.1,0-14.7-6.6-14.7-14.7
	c0-8.1,6.6-14.7,14.7-14.7c8.1,0,14.7,6.6,14.7,14.7C1367.5,2190.3,1360.9,2196.9,1352.8,2196.9z M1352.8,2142.6
	c-8.1,0-14.7-6.6-14.7-14.7s6.6-14.7,14.7-14.7c8.1,0,14.7,6.6,14.7,14.7S1360.9,2142.6,1352.8,2142.6z M1352.8,2088.3
	c-8.1,0-14.7-6.6-14.7-14.7s6.6-14.7,14.7-14.7c8.1,0,14.7,6.6,14.7,14.7S1360.9,2088.3,1352.8,2088.3z M1421.6,2238.3
	c-1.1,8.1-8.4,13.8-16.5,12.7c-8.1-1.1-13.7-8.5-12.7-16.5c1.1-8.1,8.5-13.8,16.5-12.7C1417,2222.8,1422.6,2230.2,1421.6,2238.3z
	 M1407,2196.9c-8.1,0-14.7-6.6-14.7-14.7c0-8.1,6.6-14.7,14.7-14.7c8.1,0,14.7,6.6,14.7,14.7
	C1421.8,2190.3,1415.2,2196.9,1407,2196.9z M1407,2142.6c-8.1,0-14.7-6.6-14.7-14.7s6.6-14.7,14.7-14.7c8.1,0,14.7,6.6,14.7,14.7
	S1415.2,2142.6,1407,2142.6z M1407,2088.3c-8.1,0-14.7-6.6-14.7-14.7s6.6-14.7,14.7-14.7c8.1,0,14.7,6.6,14.7,14.7
	S1415.2,2088.3,1407,2088.3z M1457.3,2167.4c8.1,0,14.7,6.6,14.7,14.7c0,8.1-6.6,14.7-14.7,14.7c-8.1,0-14.7-6.6-14.7-14.7
	C1442.5,2174,1449.1,2167.4,1457.3,2167.4z M1471.9,2238.8c-1.3,8-8.9,13.5-16.9,12.2c-8-1.3-13.5-8.9-12.2-16.9
	c1.3-8,8.9-13.5,16.9-12.2C1467.7,2223.2,1473.2,2230.7,1471.9,2238.8z M1511.5,2167.4c8.1,0,14.7,6.6,14.7,14.7
	c0,8.1-6.6,14.7-14.7,14.7c-8.1,0-14.7-6.6-14.7-14.7C1496.8,2174,1503.4,2167.4,1511.5,2167.4z M1526.1,2238.8
	c-1.3,8-8.9,13.5-16.9,12.2c-8-1.3-13.5-8.9-12.2-16.9c1.3-8,8.9-13.5,16.9-12.2C1522,2223.2,1527.4,2230.7,1526.1,2238.8z"/>
<path class="st17" d="M522.5,2546.9v260.8h260.7v-260.8H522.5z M731.2,2581.8c8.1,0,14.7,6.6,14.7,14.7c0,8.1-6.6,14.7-14.7,14.7
	c-8.1,0-14.7-6.6-14.7-14.7C716.5,2588.4,723.1,2581.8,731.2,2581.8z M731.2,2636.1c8.1,0,14.7,6.6,14.7,14.7
	c0,8.1-6.6,14.7-14.7,14.7c-8.1,0-14.7-6.6-14.7-14.7C716.5,2642.7,723.1,2636.1,731.2,2636.1z M677,2581.8
	c8.1,0,14.7,6.6,14.7,14.7c0,8.1-6.6,14.7-14.7,14.7c-8.1,0-14.7-6.6-14.7-14.7C662.3,2588.4,668.9,2581.8,677,2581.8z M677,2636.1
	c8.1,0,14.7,6.6,14.7,14.7c0,8.1-6.6,14.7-14.7,14.7c-8.1,0-14.7-6.6-14.7-14.7C662.3,2642.7,668.9,2636.1,677,2636.1z M587,2761.7
	c-1.3,8-8.9,13.5-16.9,12.2c-8-1.3-13.5-8.9-12.2-16.9c1.3-8,8.9-13.5,16.9-12.2C582.9,2746.1,588.3,2753.7,587,2761.7z
	 M572.5,2719.9c-8.1,0-14.7-6.6-14.7-14.7c0-8.1,6.6-14.7,14.7-14.7c8.1,0,14.7,6.6,14.7,14.7
	C587.2,2713.3,580.6,2719.9,572.5,2719.9z M572.5,2665.6c-8.1,0-14.7-6.6-14.7-14.7c0-8.1,6.6-14.7,14.7-14.7
	c8.1,0,14.7,6.6,14.7,14.7C587.2,2659,580.6,2665.6,572.5,2665.6z M572.5,2611.3c-8.1,0-14.7-6.6-14.7-14.7
	c0-8.1,6.6-14.7,14.7-14.7c8.1,0,14.7,6.6,14.7,14.7C587.2,2604.7,580.6,2611.3,572.5,2611.3z M641.3,2761.3
	c-1.1,8.1-8.4,13.8-16.5,12.7c-8.1-1.1-13.7-8.5-12.7-16.5c1.1-8.1,8.5-13.8,16.5-12.7C636.7,2745.8,642.4,2753.2,641.3,2761.3z
	 M626.8,2719.9c-8.1,0-14.7-6.6-14.7-14.7c0-8.1,6.6-14.7,14.7-14.7c8.1,0,14.7,6.6,14.7,14.7
	C641.5,2713.3,634.9,2719.9,626.8,2719.9z M626.8,2665.6c-8.1,0-14.7-6.6-14.7-14.7c0-8.1,6.6-14.7,14.7-14.7
	c8.1,0,14.7,6.6,14.7,14.7C641.5,2659,634.9,2665.6,626.8,2665.6z M626.8,2611.3c-8.1,0-14.7-6.6-14.7-14.7
	c0-8.1,6.6-14.7,14.7-14.7c8.1,0,14.7,6.6,14.7,14.7C641.5,2604.7,634.9,2611.3,626.8,2611.3z M677,2690.4c8.1,0,14.7,6.6,14.7,14.7
	c0,8.1-6.6,14.7-14.7,14.7c-8.1,0-14.7-6.6-14.7-14.7C662.3,2697,668.9,2690.4,677,2690.4z M691.6,2761.8c-1.3,8-8.9,13.5-16.9,12.2
	c-8-1.3-13.5-8.9-12.2-16.9c1.3-8,8.9-13.5,16.9-12.2C687.4,2746.2,692.9,2753.7,691.6,2761.8z M731.2,2690.4
	c8.1,0,14.7,6.6,14.7,14.7c0,8.1-6.6,14.7-14.7,14.7c-8.1,0-14.7-6.6-14.7-14.7C716.5,2697,723.1,2690.4,731.2,2690.4z
	 M745.8,2761.8c-1.3,8-8.9,13.5-16.9,12.2c-8-1.3-13.5-8.9-12.2-16.9c1.3-8,8.9-13.5,16.9-12.2
	C741.7,2746.2,747.1,2753.7,745.8,2761.8z"/>
<g>
	<path class="st18" d="M1072.8,2539.4H804.6v268.3h268.2V2539.4z"/>
	<path class="st16" d="M268.3,2002.7H0.1V2271h268.2V2002.7z"/>
	<path class="st18" d="M536.5,2002.7H268.3V2271h268.2V2002.7z"/>
	<path class="st13" d="M402.8,2002.7H267.6v135.2h135.1V2002.7z"/>
	<path class="st13" d="M536.5,2135.8H401.3V2271h135.1V2135.8z"/>
	<path class="st18" d="M2372.1,2807.7h-268.2v-268.3C2252.1,2539.4,2372.1,2659.5,2372.1,2807.7z"/>
	<path class="st18" d="M0.1,2539.4h268.2V2271C120.2,2271,0.1,2391.2,0.1,2539.4z"/>
	<path class="st18" d="M0.1,1197.7v94.6c95.9,0,173.6,77.8,173.6,173.7h94.6C268.3,1317.8,148.2,1197.7,0.1,1197.7z"/>
	<g>
		<path class="st16" d="M1341,2536.1c148.1,0,268.2,120.1,268.2,268.3v-268.3H1341z"/>
		<path class="st16" d="M1341,2634v173.7h173.6C1514.6,2711.8,1436.9,2634,1341,2634z"/>
	</g>
	<path class="st14" d="M206.3,2271h62c0-148.2-120.1-268.3-268.2-268.3v66.2C102.2,2090.3,182.9,2169.7,206.3,2271z"/>
	<path class="st14" d="M1072.8,2271H804.6v268.3h268.2V2271z"/>
	<path class="st14" d="M535.8,1734.4H267.6v268.3h268.2V1734.4z"/>
	<path class="st16" d="M1072.8,2333.1v-62c-148.1,0-268.2,120.1-268.2,268.3h66.2C892.2,2437.2,971.5,2356.4,1072.8,2333.1z"/>
	<path class="st18" d="M804.6,2271H536.5v268.3C684.6,2539.4,804.6,2419.2,804.6,2271z"/>
	<path class="st13" d="M1017.2,2595H860.3v157h156.9V2595z"/>
	<path class="st18" d="M268.3,1466H0.1v268.3h268.2V1466z"/>
	<path class="st13" d="M212.7,1521.7H55.8v157h156.9V1521.7z"/>
	<g>
		<path class="st13" d="M4.2,2539.4H0.1v6.9C0.1,2543.3,1.8,2540.7,4.2,2539.4z"/>
		<path class="st13" d="M264.5,2539.4c1.9,1.4,3.1,3.7,3.1,6.2v0.7c0,69.4-56.2,125.7-125.6,125.7h0.7
			c69.4,0,125.6,56.3,125.6,125.7c0,4.3-3.5,7.8-7.8,7.8h-0.7c-69.3,0-125.6-56.3-125.6-125.7c0-4.3,3.5-7.8,7.8-7.8
			c-4.3,0-7.8-3.5-7.8-7.8v-0.7c0-62.6,45.7-114.5,105.6-124.1H23.9c62.2,7.5,110.3,60.5,110.3,124.7c0,4.3-3.5,7.8-7.8,7.8h-0.7
			c-69.3,0-125.6-56.2-125.6-125.6v261.4h268.2v-268.3H264.5z M134.2,2680.4c0,69.4-56.2,125.6-125.6,125.6c-4.3,0-7.8-3.5-7.8-7.8
			v-0.7c0-69.4,56.2-125.7,125.6-125.7c4.3,0,7.8,3.5,7.8,7.8V2680.4z"/>
	</g>
	<g>
		<path class="st13" d="M1345.1,2271h-4.1v6.9C1341,2274.9,1342.7,2272.3,1345.1,2271z"/>
		<path class="st13" d="M1605.4,2271c1.9,1.4,3.1,3.7,3.1,6.2v0.7c0,69.4-56.2,125.7-125.6,125.7h0.7c69.4,0,125.6,56.3,125.6,125.7
			c0,4.3-3.5,7.8-7.8,7.8h-0.7c-69.3,0-125.6-56.3-125.6-125.7c0-4.3,3.5-7.8,7.8-7.8c-4.3,0-7.8-3.5-7.8-7.8v-0.7
			c0-62.6,45.7-114.5,105.6-124.1h-215.9c62.2,7.5,110.3,60.5,110.3,124.7c0,4.3-3.5,7.8-7.8,7.8h-0.7
			c-69.3,0-125.6-56.2-125.6-125.6v261.4h268.2V2271H1605.4z M1475.1,2412.1c0,69.4-56.2,125.6-125.6,125.6c-4.3,0-7.8-3.5-7.8-7.8
			v-0.7c0-69.4,56.2-125.7,125.6-125.7c4.3,0,7.8,3.5,7.8,7.8V2412.1z"/>
	</g>
	<path class="st16" d="M1878.5,2676.5c-1.5-1.5-1.5-4,0-5.5l0.2-0.2c24.4-24.4,64-24.4,88.4,0c1.5,1.5,1.5,4,0,5.5l-0.2,0.2
		C1942.5,2700.9,1902.9,2700.9,1878.5,2676.5z"/>
	<path class="st16" d="M1972.6,2676.3c-1.5-1.5-1.5-4,0-5.5l0.2-0.2c24.4-24.4,64-24.4,88.4,0c1.5,1.5,1.5,4,0,5.5l-0.2,0.2
		C2036.6,2700.7,1997,2700.7,1972.6,2676.3z"/>
	<path class="st16" d="M1966.9,2582.1c1.5-1.5,4-1.5,5.5,0l0.2,0.2c24.4,24.4,24.4,64,0,88.4c-1.5,1.5-4,1.5-5.5,0l-0.2-0.2
		C1942.5,2646.1,1942.5,2606.5,1966.9,2582.1z"/>
	<path class="st16" d="M1967.1,2676.3c1.5-1.5,4-1.5,5.5,0l0.2,0.2c24.4,24.4,24.4,64,0,88.4c-1.5,1.5-4,1.5-5.5,0l-0.2-0.2
		C1942.7,2740.3,1942.7,2700.7,1967.1,2676.3z"/>
	<g>
		<path class="st18" d="M536.5,2807.7H268.3v-268.3"/>
		<path class="st16" d="M268.3,2539.4h268.2v268.3"/>
	</g>
	<path class="st13" d="M536.8,2272.1v-268.3H805"/>
	<path class="st16" d="M805,2003.7v268.3H536.8"/>
	<path class="st16" d="M268.3,1734.4h268.2v268.3"/>
	<g>
		<path class="st13" d="M804.6,2807.7l0-137.4h-65c0.9,18.8-5.9,37.9-20.2,52.2c-27,27-70.8,27-97.9,0
			c-14.3-14.3-21.1-33.4-20.2-52.2h-65l0,137.4H804.6z"/>
		<path class="st14" d="M536.5,2539.4v137.4h65c-0.9-18.8,5.9-37.9,20.2-52.2c27-27,70.8-27,97.9,0c14.3,14.3,21.1,33.4,20.2,52.2
			h65v-137.4H536.5z"/>
	</g>
	<path class="st16" d="M402.4,2299l-106.1,106.2l106.1,106.2l106.1-106.2L402.4,2299z M402.4,2443.8c-21.3,0-38.6-17.3-38.6-38.7
		s17.3-38.7,38.6-38.7c21.3,0,38.6,17.3,38.6,38.7S423.7,2443.8,402.4,2443.8z"/>
	<path class="st18" d="M1033.9,2231.7c52.4-52.4,52.4-137.3,0-189.7c-52.4-52.4-137.3-52.4-189.6,0c-52.4,52.4-52.4,137.3,0,189.7
		C896.6,2284.1,981.6,2284.1,1033.9,2231.7z"/>
	<path class="st18" d="M1072.8,2539.4v268.3H1341v-268.3H1072.8z M1287.6,2575.3c8.4,0,15.2,6.8,15.2,15.2c0,8.4-6.8,15.2-15.2,15.2
		c-8.4,0-15.2-6.8-15.2-15.2C1272.5,2582.1,1279.2,2575.3,1287.6,2575.3z M1287.6,2631.1c8.4,0,15.2,6.8,15.2,15.2
		c0,8.4-6.8,15.2-15.2,15.2c-8.4,0-15.2-6.8-15.2-15.2C1272.5,2637.9,1279.2,2631.1,1287.6,2631.1z M1231.8,2575.3
		c8.4,0,15.2,6.8,15.2,15.2c0,8.4-6.8,15.2-15.2,15.2c-8.4,0-15.2-6.8-15.2-15.2C1216.6,2582.1,1223.4,2575.3,1231.8,2575.3z
		 M1231.8,2631.1c8.4,0,15.2,6.8,15.2,15.2c0,8.4-6.8,15.2-15.2,15.2c-8.4,0-15.2-6.8-15.2-15.2
		C1216.6,2637.9,1223.4,2631.1,1231.8,2631.1z M1139.2,2760.4c-1.3,8.3-9.1,13.9-17.4,12.5c-8.3-1.3-13.9-9.1-12.5-17.4
		c1.3-8.3,9.1-13.9,17.4-12.5C1135,2744.3,1140.6,2752.1,1139.2,2760.4z M1124.3,2717.3c-8.4,0-15.2-6.8-15.2-15.2
		c0-8.4,6.8-15.2,15.2-15.2c8.4,0,15.2,6.8,15.2,15.2C1139.4,2710.5,1132.7,2717.3,1124.3,2717.3z M1124.3,2661.4
		c-8.4,0-15.2-6.8-15.2-15.2c0-8.4,6.8-15.2,15.2-15.2c8.4,0,15.2,6.8,15.2,15.2C1139.4,2654.7,1132.7,2661.4,1124.3,2661.4z
		 M1124.3,2605.6c-8.4,0-15.2-6.8-15.2-15.2c0-8.4,6.8-15.2,15.2-15.2c8.4,0,15.2,6.8,15.2,15.2
		C1139.4,2598.8,1132.7,2605.6,1124.3,2605.6z M1195.1,2759.9c-1.1,8.3-8.7,14.2-17,13.1c-8.3-1.1-14.1-8.7-13.1-17
		c1.1-8.3,8.7-14.1,17-13.1C1190.3,2744,1196.2,2751.6,1195.1,2759.9z M1180.1,2717.3c-8.4,0-15.2-6.8-15.2-15.2
		c0-8.4,6.8-15.2,15.2-15.2c8.4,0,15.2,6.8,15.2,15.2C1195.3,2710.5,1188.5,2717.3,1180.1,2717.3z M1180.1,2661.4
		c-8.4,0-15.2-6.8-15.2-15.2c0-8.4,6.8-15.2,15.2-15.2c8.4,0,15.2,6.8,15.2,15.2C1195.3,2654.7,1188.5,2661.4,1180.1,2661.4z
		 M1180.1,2605.6c-8.4,0-15.2-6.8-15.2-15.2c0-8.4,6.8-15.2,15.2-15.2c8.4,0,15.2,6.8,15.2,15.2
		C1195.3,2598.8,1188.5,2605.6,1180.1,2605.6z M1231.8,2687c8.4,0,15.2,6.8,15.2,15.2c0,8.4-6.8,15.2-15.2,15.2
		c-8.4,0-15.2-6.8-15.2-15.2C1216.6,2693.8,1223.4,2687,1231.8,2687z M1246.8,2760.4c-1.3,8.3-9.1,13.9-17.4,12.5
		c-8.3-1.3-13.9-9.1-12.5-17.4c1.3-8.3,9.1-13.9,17.4-12.5C1242.5,2744.4,1248.1,2752.2,1246.8,2760.4z M1287.6,2687
		c8.4,0,15.2,6.8,15.2,15.2c0,8.4-6.8,15.2-15.2,15.2c-8.4,0-15.2-6.8-15.2-15.2C1272.5,2693.8,1279.2,2687,1287.6,2687z
		 M1302.6,2760.4c-1.3,8.3-9.1,13.9-17.4,12.5c-8.3-1.3-13.9-9.1-12.5-17.4c1.3-8.3,9.1-13.9,17.4-12.5
		C1298.3,2744.4,1304,2752.2,1302.6,2760.4z"/>
	<path class="st18" d="M52.5,1804.9c8.4,0,15.2-6.8,15.2-15.2c0-8.4-6.8-15.2-15.2-15.2c-8.4,0-15.2,6.8-15.2,15.2
		C37.4,1798.1,44.2,1804.9,52.5,1804.9z"/>
	<path class="st18" d="M52.5,1860.8c8.4,0,15.2-6.8,15.2-15.2c0-8.4-6.8-15.2-15.2-15.2c-8.4,0-15.2,6.8-15.2,15.2
		C37.4,1854,44.2,1860.8,52.5,1860.8z"/>
	<path class="st18" d="M50.2,1916.6c7.1,0,12.9-6.8,12.9-15.2c0-8.4-5.8-15.2-12.9-15.2c-7.1,0-12.9,6.8-12.9,15.2
		C37.4,1909.8,43.1,1916.6,50.2,1916.6z"/>
	<path class="st18" d="M52.5,1972.4c8.4,0,15.2-6.8,15.2-15.2c0-8.4-6.8-15.2-15.2-15.2c-8.4,0-15.2,6.8-15.2,15.2
		C37.4,1965.6,44.2,1972.4,52.5,1972.4z"/>
	<path class="st18" d="M108.3,1804.9c8.4,0,15.2-6.8,15.2-15.2c0-8.4-6.8-15.2-15.2-15.2s-15.2,6.8-15.2,15.2
		C93.2,1798.1,100,1804.9,108.3,1804.9z"/>
	<path class="st18" d="M108.3,1860.8c8.4,0,15.2-6.8,15.2-15.2c0-8.4-6.8-15.2-15.2-15.2s-15.2,6.8-15.2,15.2
		C93.2,1854,100,1860.8,108.3,1860.8z"/>
	<path class="st18" d="M108.3,1916.6c8.4,0,15.2-6.8,15.2-15.2c0-8.4-6.8-15.2-15.2-15.2s-15.2,6.8-15.2,15.2
		C93.2,1909.8,100,1916.6,108.3,1916.6z"/>
	<path class="st18" d="M108.3,1972.4c8.4,0,15.2-6.8,15.2-15.2c0-8.4-6.8-15.2-15.2-15.2s-15.2,6.8-15.2,15.2
		C93.2,1965.6,100,1972.4,108.3,1972.4z"/>
	<path class="st18" d="M160,1804.9c8.4,0,15.2-6.8,15.2-15.2c0-8.4-6.8-15.2-15.2-15.2c-8.4,0-15.2,6.8-15.2,15.2
		C144.9,1798.1,151.7,1804.9,160,1804.9z"/>
	<path class="st18" d="M160,1860.8c8.4,0,15.2-6.8,15.2-15.2c0-8.4-6.8-15.2-15.2-15.2c-8.4,0-15.2,6.8-15.2,15.2
		C144.9,1854,151.7,1860.8,160,1860.8z"/>
	<path class="st18" d="M160,1916.6c8.4,0,15.2-6.8,15.2-15.2c0-8.4-6.8-15.2-15.2-15.2c-8.4,0-15.2,6.8-15.2,15.2
		C144.9,1909.8,151.7,1916.6,160,1916.6z"/>
	<path class="st18" d="M160,1972.4c8.4,0,15.2-6.8,15.2-15.2c0-8.4-6.8-15.2-15.2-15.2c-8.4,0-15.2,6.8-15.2,15.2
		C144.9,1965.6,151.7,1972.4,160,1972.4z"/>
	<path class="st18" d="M215.8,1804.9c8.4,0,15.2-6.8,15.2-15.2c0-8.4-6.8-15.2-15.2-15.2c-8.4,0-15.2,6.8-15.2,15.2
		C200.7,1798.1,207.5,1804.9,215.8,1804.9z"/>
	<path class="st18" d="M215.8,1860.8c8.4,0,15.2-6.8,15.2-15.2c0-8.4-6.8-15.2-15.2-15.2c-8.4,0-15.2,6.8-15.2,15.2
		C200.7,1854,207.5,1860.8,215.8,1860.8z"/>
	<path class="st18" d="M215.8,1916.6c8.4,0,15.2-6.8,15.2-15.2c0-8.4-6.8-15.2-15.2-15.2c-8.4,0-15.2,6.8-15.2,15.2
		C200.7,1909.8,207.5,1916.6,215.8,1916.6z"/>
	<path class="st18" d="M215.8,1972.4c8.4,0,15.2-6.8,15.2-15.2c0-8.4-6.8-15.2-15.2-15.2c-8.4,0-15.2,6.8-15.2,15.2
		C200.7,1965.6,207.5,1972.4,215.8,1972.4z"/>
	<path class="st13" d="M346,1811.8h113.5v113.5"/>
	<path class="st14" d="M1877.4,2539.4h-268.2v268.3h268.2V2539.4z"/>
	<path class="st16" d="M1609.8,2539.4H1878v268.3"/>
	<path class="st13" d="M1687.6,2616.8h113.5v113.5"/>
	<path class="st16" d="M1072.8,2271H1341v268.3"/>
	<path class="st13" d="M1150.6,2348.4H1264V2462"/>
</g>
</svg>
