<?xml version="1.0" encoding="utf-8"?>
<!-- Generator: Adobe Illustrator 23.1.0, SVG Export Plug-In . SVG Version: 6.00 Build 0)  -->
<svg version="1.1" id="Layer_1" xmlns="http://www.w3.org/2000/svg" xmlns:xlink="http://www.w3.org/1999/xlink" x="0px" y="0px"
	 viewBox="0 0 2625.2 4414.2" style="enable-background:new 0 0 2625.2 4414.2;" xml:space="preserve">
<style type="text/css">
	.st0{fill:#317598;}
</style>
<g>
	<path class="st0" d="M1111.8,2671.5c0,0,818.4-18.2,1095.2,112.5c89.8,42.4,142.9,70.3,232,178.1c0,0,77.7-46.1,61.7-254
		c0,0,49,93.4,84.4,259.5c40.6,190.6,44,298.1,37.5,421.8c-9.4,178.1-56.2,356.2-125,490.6c-64,125-137.5,250-291.4,374.6
		c-149.2,120.8-260.1,159.7-260.1,159.7s107.2-113,172.6-253.6c40.7-87.5,75.3-186,84.7-313c13.8-188-12.1-313.9-90.5-418.7
		c-99.2-132.5-205.7-217.6-434.4-264.4c0,0,486.8-195,573.8-179.3c0,0-99.3-33.2-278.3,21.5c-134.5,41.1-160.8,55.3-213.4,77.3
		c-51.8,21.7-84.8,36-102.5,38.6c-17.7,2.7-55.3,10.5-98.8-1.6c-28.1-7.8-90.6-39.9-128-74.9
		C1325.7,2947.4,1200.8,2747.9,1111.8,2671.5z"/>
	<path class="st0" d="M300.9,1556.4c0,0,88.5,265.4,177.6,433.8c139.3,263.1,326.9,405.4,405.5,450.3
		c153.2,87.6,326.4,126.2,493.1,133.1c170.9,7.1,309.2,17.9,419.6,26.5c178,13.8,334.4,53.4,421.9,93.2
		c111.3,50.5,180,90.6,211.4,135.5c1.6,2.3-22.7-203.3-84.3-392c-64.6-197.8-434.9-289.3-753.5-345.2
		c-246.2-43.2-335.6-70.5-428.5-89.9c-103.7-21.6-366.5-109.5-506.3-188.9C426.4,1681.4,300.9,1556.4,300.9,1556.4z"/>
	<path class="st0" d="M19.8,0c0,0-52.2,343.9,12.9,717.3c89.3,512.7,286.2,730.6,606.8,917.5c275.4,160.5,630.7,236.3,881.4,315.7
		c227,71.8,435.5,151.9,594.5,282.7c193.9,159.5,298.4,418.2,314.8,595.6c0,0,90.7-443.7,17.3-744.9
		c-101.6-531.5-478.3-827.6-776.1-976.8c-261-130.8-610-248.3-908.4-404.9C583.6,608,372.3,474.6,227.2,325.4
		C108.7,203.7,44.1,81.1,19.8,0z"/>
</g>
</svg>
